<?xml version="1.0" encoding="utf-8" standalone="no"?>
<!DOCTYPE svg PUBLIC "-//W3C//DTD SVG 1.1//EN"
  "http://www.w3.org/Graphics/SVG/1.1/DTD/svg11.dtd">
<svg xmlns:xlink="http://www.w3.org/1999/xlink" width="407.976pt" height="255.16pt" viewBox="0 0 407.976 255.16" xmlns="http://www.w3.org/2000/svg" version="1.1">
 <metadata>
  <rdf:RDF xmlns:dc="http://purl.org/dc/elements/1.1/" xmlns:cc="http://creativecommons.org/ns#" xmlns:rdf="http://www.w3.org/1999/02/22-rdf-syntax-ns#">
   <cc:Work>
    <dc:type rdf:resource="http://purl.org/dc/dcmitype/StillImage"/>
    <dc:date>2026-06-15T11:42:54.403335</dc:date>
    <dc:format>image/svg+xml</dc:format>
    <dc:creator>
     <cc:Agent>
      <dc:title>Matplotlib v3.10.8, https://matplotlib.org/</dc:title>
     </cc:Agent>
    </dc:creator>
   </cc:Work>
  </rdf:RDF>
 </metadata>
 <defs>
  <style type="text/css">*{stroke-linejoin: round; stroke-linecap: butt}</style>
 </defs>
 <g id="figure_1">
  <g id="patch_1">
   <path d="M 0 255.16 
L 407.976 255.16 
L 407.976 0 
L 0 0 
z
" style="fill: #ffffff"/>
  </g>
  <g id="axes_1">
   <g id="patch_2">
    <path d="M 110.208 219.2 
C 111.353677 219.2 112.452585 218.744818 113.262701 217.934701 
C 114.072818 217.124585 114.528 216.025677 114.528 214.88 
C 114.528 213.734323 114.072818 212.635415 113.262701 211.825299 
C 112.452585 211.015182 111.353677 210.56 110.208 210.56 
C 109.062323 210.56 107.963415 211.015182 107.153299 211.825299 
C 106.343182 212.635415 105.888 213.734323 105.888 214.88 
C 105.888 216.025677 106.343182 217.124585 107.153299 217.934701 
C 107.963415 218.744818 109.062323 219.2 110.208 219.2 
L 110.208 219.2 
z
" clip-path="url(#p083283797d)" style="fill: none; stroke: #000000; stroke-width: 2; stroke-linejoin: miter"/>
   </g>
   <g id="line2d_1">
    <path d="M 212.088 58.28 
L 213.241264 58.243017 
L 214.389789 58.13222 
L 215.528855 57.948065 
L 216.653783 57.691308 
L 217.759948 57.363003 
L 218.842806 56.964502 
L 219.897907 56.49744 
L 220.920916 55.963737 
L 221.907628 55.365586 
L 222.85399 54.705445 
L 223.756111 53.986027 
L 224.610286 53.210288 
L 225.413004 52.381416 
L 226.160967 51.502816 
L 226.851101 50.5781 
L 227.48057 49.611066 
L 228.046788 48.605689 
L 228.547427 47.5661 
L 228.980432 46.496571 
L 229.344021 45.401497 
L 229.636702 44.285377 
L 229.857272 43.152798 
L 230.004824 42.008414 
L 230.078752 40.856928 
L 230.078752 39.703072 
L 230.004824 38.551586 
L 229.857272 37.407202 
L 229.636702 36.274623 
L 229.344021 35.158503 
L 228.980432 34.063429 
L 228.547427 32.9939 
L 228.046788 31.954311 
L 227.48057 30.948934 
L 226.851101 29.9819 
L 226.160967 29.057184 
L 225.413004 28.178584 
L 224.610286 27.349712 
L 223.756111 26.573973 
L 222.85399 25.854555 
L 221.907628 25.194414 
L 220.920916 24.596263 
L 219.897907 24.06256 
L 218.842806 23.595498 
L 217.759948 23.196997 
L 216.653783 22.868692 
L 215.528855 22.611935 
L 214.389789 22.42778 
L 213.241264 22.316983 
L 212.088 22.28 
L 212.088 22.28 
L 188.688 22.28 
L 188.688 40.28 
L 188.688 58.28 
L 212.088 58.28 
" clip-path="url(#p083283797d)" style="fill: none; stroke: #000000; stroke-width: 2; stroke-linecap: round"/>
   </g>
   <g id="line2d_2">
    <path d="M 176.088 49.28 
L 188.688 49.28 
" clip-path="url(#p083283797d)" style="fill: none; stroke: #000000; stroke-width: 2; stroke-linecap: round"/>
   </g>
   <g id="line2d_3">
    <path d="M 176.088 31.28 
L 188.688 31.28 
" clip-path="url(#p083283797d)" style="fill: none; stroke: #000000; stroke-width: 2; stroke-linecap: round"/>
   </g>
   <g id="line2d_4">
    <path d="M 230.088 40.28 
L 242.688 40.28 
" clip-path="url(#p083283797d)" style="fill: none; stroke: #000000; stroke-width: 2; stroke-linecap: round"/>
   </g>
   <g id="line2d_5">
    <path d="M 212.088 173.48 
L 213.241264 173.443017 
L 214.389789 173.33222 
L 215.528855 173.148065 
L 216.653783 172.891308 
L 217.759948 172.563003 
L 218.842806 172.164502 
L 219.897907 171.69744 
L 220.920916 171.163737 
L 221.907628 170.565586 
L 222.85399 169.905445 
L 223.756111 169.186027 
L 224.610286 168.410288 
L 225.413004 167.581416 
L 226.160967 166.702816 
L 226.851101 165.7781 
L 227.48057 164.811066 
L 228.046788 163.805689 
L 228.547427 162.7661 
L 228.980432 161.696571 
L 229.344021 160.601497 
L 229.636702 159.485377 
L 229.857272 158.352798 
L 230.004824 157.208414 
L 230.078752 156.056928 
L 230.078752 154.903072 
L 230.004824 153.751586 
L 229.857272 152.607202 
L 229.636702 151.474623 
L 229.344021 150.358503 
L 228.980432 149.263429 
L 228.547427 148.1939 
L 228.046788 147.154311 
L 227.48057 146.148934 
L 226.851101 145.1819 
L 226.160967 144.257184 
L 225.413004 143.378584 
L 224.610286 142.549712 
L 223.756111 141.773973 
L 222.85399 141.054555 
L 221.907628 140.394414 
L 220.920916 139.796263 
L 219.897907 139.26256 
L 218.842806 138.795498 
L 217.759948 138.396997 
L 216.653783 138.068692 
L 215.528855 137.811935 
L 214.389789 137.62778 
L 213.241264 137.516983 
L 212.088 137.48 
L 212.088 137.48 
L 188.688 137.48 
L 188.688 155.48 
L 188.688 173.48 
L 212.088 173.48 
" clip-path="url(#p083283797d)" style="fill: none; stroke: #000000; stroke-width: 2; stroke-linecap: round"/>
   </g>
   <g id="line2d_6">
    <path d="M 176.088 164.48 
L 188.688 164.48 
" clip-path="url(#p083283797d)" style="fill: none; stroke: #000000; stroke-width: 2; stroke-linecap: round"/>
   </g>
   <g id="line2d_7">
    <path d="M 176.088 146.48 
L 188.688 146.48 
" clip-path="url(#p083283797d)" style="fill: none; stroke: #000000; stroke-width: 2; stroke-linecap: round"/>
   </g>
   <g id="line2d_8">
    <path d="M 230.088 155.48 
L 242.688 155.48 
" clip-path="url(#p083283797d)" style="fill: none; stroke: #000000; stroke-width: 2; stroke-linecap: round"/>
   </g>
   <g id="line2d_9">
    <path d="M 334.488 106.52 
L 354.030857 106.453878 
L 356.088 106.16 
L 358.145143 105.63102 
L 360.202286 104.866939 
L 362.259429 103.867755 
L 364.316571 102.633469 
L 366.373714 101.164082 
L 368.430857 99.459592 
L 371.002286 96.998367 
L 373.573714 94.169796 
L 376.145143 90.973878 
L 377.688 88.88 
L 377.688 88.88 
L 375.116571 85.463673 
L 372.545143 82.414694 
L 369.973714 79.733061 
L 367.402286 77.418776 
L 365.345143 75.831837 
L 363.288 74.48 
L 361.230857 73.363265 
L 359.173714 72.481633 
L 357.116571 71.835102 
L 355.059429 71.423673 
L 353.002286 71.247347 
L 352.488 71.24 
L 334.488 71.24 
L 334.488 71.24 
L 336.4752 73.4 
L 338.2032 75.56 
L 339.672 77.72 
L 340.8816 79.88 
L 341.832 82.04 
L 342.5232 84.2 
L 342.9552 86.36 
L 343.128 88.52 
L 343.0416 90.68 
L 342.696 92.84 
L 342.0912 95 
L 341.2272 97.16 
L 340.104 99.32 
L 338.7216 101.48 
L 337.08 103.64 
L 335.1792 105.8 
L 334.488 106.52 
L 334.488 106.52 
" clip-path="url(#p083283797d)" style="fill: none; stroke: #000000; stroke-width: 2; stroke-linecap: round"/>
   </g>
   <g id="line2d_10">
    <path d="M 321.888 97.88 
L 340.8816 97.88 
" clip-path="url(#p083283797d)" style="fill: none; stroke: #000000; stroke-width: 2; stroke-linecap: round"/>
   </g>
   <g id="line2d_11">
    <path d="M 321.888 79.88 
L 340.8816 79.88 
" clip-path="url(#p083283797d)" style="fill: none; stroke: #000000; stroke-width: 2; stroke-linecap: round"/>
   </g>
   <g id="line2d_12">
    <path d="M 377.688 88.88 
L 390.288 88.88 
" clip-path="url(#p083283797d)" style="fill: none; stroke: #000000; stroke-width: 2; stroke-linecap: round"/>
   </g>
   <g id="line2d_13">
    <path d="M 44.508 214.88 
L 82.488 214.88 
M 114.528 214.88 
L 152.508 214.88 
" clip-path="url(#p083283797d)" style="fill: none; stroke: #000000; stroke-width: 2; stroke-linecap: round"/>
   </g>
   <g id="line2d_14">
    <path d="M 82.488 196.88 
L 105.888 214.88 
L 82.488 232.88 
L 82.488 196.88 
" clip-path="url(#p083283797d)" style="fill: none; stroke: #000000; stroke-width: 2; stroke-linecap: round"/>
   </g>
   <g id="line2d_15">
    <path d="M 242.688 40.28 
L 253.488 40.28 
L 264.288 40.28 
" clip-path="url(#p083283797d)" style="fill: none; stroke: #000000; stroke-width: 2; stroke-linecap: round"/>
   </g>
   <g id="line2d_16">
    <path d="M 264.288 40.28 
L 264.288 60.08 
L 264.288 79.88 
" clip-path="url(#p083283797d)" style="fill: none; stroke: #000000; stroke-width: 2; stroke-linecap: round"/>
   </g>
   <g id="line2d_17">
    <path d="M 264.288 79.88 
L 293.088 79.88 
L 321.888 79.88 
" clip-path="url(#p083283797d)" style="fill: none; stroke: #000000; stroke-width: 2; stroke-linecap: round"/>
   </g>
   <g id="line2d_18">
    <path d="M 242.688 155.48 
L 253.488 155.48 
L 264.288 155.48 
" clip-path="url(#p083283797d)" style="fill: none; stroke: #000000; stroke-width: 2; stroke-linecap: round"/>
   </g>
   <g id="line2d_19">
    <path d="M 264.288 155.48 
L 264.288 126.68 
L 264.288 97.88 
" clip-path="url(#p083283797d)" style="fill: none; stroke: #000000; stroke-width: 2; stroke-linecap: round"/>
   </g>
   <g id="line2d_20">
    <path d="M 264.288 97.88 
L 293.088 97.88 
L 321.888 97.88 
" clip-path="url(#p083283797d)" style="fill: none; stroke: #000000; stroke-width: 2; stroke-linecap: round"/>
   </g>
   <g id="line2d_21">
    <path d="M 176.088 31.28 
L 140.088 31.28 
L 104.088 31.28 
" clip-path="url(#p083283797d)" style="fill: none; stroke: #000000; stroke-width: 2; stroke-linecap: round"/>
   </g>
   <g id="line2d_22">
    <path d="M 176.088 146.48 
L 140.088 146.48 
L 104.088 146.48 
" clip-path="url(#p083283797d)" style="fill: none; stroke: #000000; stroke-width: 2; stroke-linecap: round"/>
   </g>
   <g id="line2d_23">
    <path d="M 82.488 214.88 
L 64.488 214.88 
L 46.488 214.88 
" clip-path="url(#p083283797d)" style="fill: none; stroke: #000000; stroke-width: 2; stroke-linecap: round"/>
   </g>
   <g id="line2d_24">
    <path d="M 46.488 214.88 
L 46.488 189.68 
L 46.488 164.48 
" clip-path="url(#p083283797d)" style="fill: none; stroke: #000000; stroke-width: 2; stroke-linecap: round"/>
   </g>
   <g id="line2d_25">
    <path d="M 46.488 164.48 
L 111.288 164.48 
L 176.088 164.48 
" clip-path="url(#p083283797d)" style="fill: none; stroke: #000000; stroke-width: 2; stroke-linecap: round"/>
   </g>
   <g id="line2d_26">
    <path d="M 46.488 164.48 
L 32.088 164.48 
L 17.688 164.48 
" clip-path="url(#p083283797d)" style="fill: none; stroke: #000000; stroke-width: 2; stroke-linecap: round"/>
   </g>
   <g id="line2d_27">
    <path d="M 114.528 214.88 
L 123.528 214.88 
L 132.528 214.88 
" clip-path="url(#p083283797d)" style="fill: none; stroke: #000000; stroke-width: 2; stroke-linecap: round"/>
   </g>
   <g id="line2d_28">
    <path d="M 132.528 214.88 
L 132.528 132.08 
L 132.528 49.28 
" clip-path="url(#p083283797d)" style="fill: none; stroke: #000000; stroke-width: 2; stroke-linecap: round"/>
   </g>
   <g id="line2d_29">
    <path d="M 132.528 49.28 
L 154.308 49.28 
L 176.088 49.28 
" clip-path="url(#p083283797d)" style="fill: none; stroke: #000000; stroke-width: 2; stroke-linecap: round"/>
   </g>
   <g id="text_1">
    <!-- G1 -->
    <g transform="translate(199.510344 15.768437) scale(0.14 -0.14)">
     <defs>
      <path id="DejaVuSans-47" d="M 3809 666 
L 3809 1919 
L 2778 1919 
L 2778 2438 
L 4434 2438 
L 4434 434 
Q 4069 175 3628 42 
Q 3188 -91 2688 -91 
Q 1594 -91 976 548 
Q 359 1188 359 2328 
Q 359 3472 976 4111 
Q 1594 4750 2688 4750 
Q 3144 4750 3555 4637 
Q 3966 4525 4313 4306 
L 4313 3634 
Q 3963 3931 3569 4081 
Q 3175 4231 2741 4231 
Q 1884 4231 1454 3753 
Q 1025 3275 1025 2328 
Q 1025 1384 1454 906 
Q 1884 428 2741 428 
Q 3075 428 3337 486 
Q 3600 544 3809 666 
z
" transform="scale(0.015625)"/>
      <path id="DejaVuSans-31" d="M 794 531 
L 1825 531 
L 1825 4091 
L 703 3866 
L 703 4441 
L 1819 4666 
L 2450 4666 
L 2450 531 
L 3481 531 
L 3481 0 
L 794 0 
L 794 531 
z
" transform="scale(0.015625)"/>
     </defs>
     <use xlink:href="#DejaVuSans-47"/>
     <use xlink:href="#DejaVuSans-31" transform="translate(77.490234 0)"/>
    </g>
   </g>
   <g id="text_2">
    <!-- G2 -->
    <g transform="translate(199.510344 187.717812) scale(0.14 -0.14)">
     <defs>
      <path id="DejaVuSans-32" d="M 1228 531 
L 3431 531 
L 3431 0 
L 469 0 
L 469 531 
Q 828 903 1448 1529 
Q 2069 2156 2228 2338 
Q 2531 2678 2651 2914 
Q 2772 3150 2772 3378 
Q 2772 3750 2511 3984 
Q 2250 4219 1831 4219 
Q 1534 4219 1204 4116 
Q 875 4013 500 3803 
L 500 4441 
Q 881 4594 1212 4672 
Q 1544 4750 1819 4750 
Q 2544 4750 2975 4387 
Q 3406 4025 3406 3419 
Q 3406 3131 3298 2873 
Q 3191 2616 2906 2266 
Q 2828 2175 2409 1742 
Q 1991 1309 1228 531 
z
" transform="scale(0.015625)"/>
     </defs>
     <use xlink:href="#DejaVuSans-47"/>
     <use xlink:href="#DejaVuSans-32" transform="translate(77.490234 0)"/>
    </g>
   </g>
   <g id="text_3">
    <!-- G4 -->
    <g transform="translate(346.210344 64.728437) scale(0.14 -0.14)">
     <defs>
      <path id="DejaVuSans-34" d="M 2419 4116 
L 825 1625 
L 2419 1625 
L 2419 4116 
z
M 2253 4666 
L 3047 4666 
L 3047 1625 
L 3713 1625 
L 3713 1100 
L 3047 1100 
L 3047 0 
L 2419 0 
L 2419 1100 
L 313 1100 
L 313 1709 
L 2253 4666 
z
" transform="scale(0.015625)"/>
     </defs>
     <use xlink:href="#DejaVuSans-47"/>
     <use xlink:href="#DejaVuSans-34" transform="translate(77.490234 0)"/>
    </g>
   </g>
   <g id="text_4">
    <!-- Y -->
    <g transform="translate(393.888 92.743125) scale(0.14 -0.14)">
     <defs>
      <path id="DejaVuSans-59" d="M -13 4666 
L 666 4666 
L 1959 2747 
L 3244 4666 
L 3922 4666 
L 2272 2222 
L 2272 0 
L 1638 0 
L 1638 2222 
L -13 4666 
z
" transform="scale(0.015625)"/>
     </defs>
     <use xlink:href="#DejaVuSans-59"/>
    </g>
   </g>
   <g id="text_5">
    <!-- G3 -->
    <g transform="translate(88.630344 247.117812) scale(0.14 -0.14)">
     <defs>
      <path id="DejaVuSans-33" d="M 2597 2516 
Q 3050 2419 3304 2112 
Q 3559 1806 3559 1356 
Q 3559 666 3084 287 
Q 2609 -91 1734 -91 
Q 1441 -91 1130 -33 
Q 819 25 488 141 
L 488 750 
Q 750 597 1062 519 
Q 1375 441 1716 441 
Q 2309 441 2620 675 
Q 2931 909 2931 1356 
Q 2931 1769 2642 2001 
Q 2353 2234 1838 2234 
L 1294 2234 
L 1294 2753 
L 1863 2753 
Q 2328 2753 2575 2939 
Q 2822 3125 2822 3475 
Q 2822 3834 2567 4026 
Q 2313 4219 1838 4219 
Q 1578 4219 1281 4162 
Q 984 4106 628 3988 
L 628 4550 
Q 988 4650 1302 4700 
Q 1616 4750 1894 4750 
Q 2613 4750 3031 4423 
Q 3450 4097 3450 3541 
Q 3450 3153 3228 2886 
Q 3006 2619 2597 2516 
z
" transform="scale(0.015625)"/>
     </defs>
     <use xlink:href="#DejaVuSans-47"/>
     <use xlink:href="#DejaVuSans-33" transform="translate(77.490234 0)"/>
    </g>
   </g>
   <g id="text_6">
    <!-- A -->
    <g transform="translate(90.911125 35.143125) scale(0.14 -0.14)">
     <defs>
      <path id="DejaVuSans-41" d="M 2188 4044 
L 1331 1722 
L 3047 1722 
L 2188 4044 
z
M 1831 4666 
L 2547 4666 
L 4325 0 
L 3669 0 
L 3244 1197 
L 1141 1197 
L 716 0 
L 50 0 
L 1831 4666 
z
" transform="scale(0.015625)"/>
     </defs>
     <use xlink:href="#DejaVuSans-41"/>
    </g>
   </g>
   <g id="text_7">
    <!-- B -->
    <g transform="translate(90.882687 150.343125) scale(0.14 -0.14)">
     <defs>
      <path id="DejaVuSans-42" d="M 1259 2228 
L 1259 519 
L 2272 519 
Q 2781 519 3026 730 
Q 3272 941 3272 1375 
Q 3272 1813 3026 2020 
Q 2781 2228 2272 2228 
L 1259 2228 
z
M 1259 4147 
L 1259 2741 
L 2194 2741 
Q 2656 2741 2882 2914 
Q 3109 3088 3109 3444 
Q 3109 3797 2882 3972 
Q 2656 4147 2194 4147 
L 1259 4147 
z
M 628 4666 
L 2241 4666 
Q 2963 4666 3353 4366 
Q 3744 4066 3744 3513 
Q 3744 3084 3544 2831 
Q 3344 2578 2956 2516 
Q 3422 2416 3680 2098 
Q 3938 1781 3938 1306 
Q 3938 681 3513 340 
Q 3088 0 2303 0 
L 628 0 
L 628 4666 
z
" transform="scale(0.015625)"/>
     </defs>
     <use xlink:href="#DejaVuSans-42"/>
    </g>
   </g>
   <g id="text_8">
    <!-- S -->
    <g transform="translate(5.200187 168.343125) scale(0.14 -0.14)">
     <defs>
      <path id="DejaVuSans-53" d="M 3425 4513 
L 3425 3897 
Q 3066 4069 2747 4153 
Q 2428 4238 2131 4238 
Q 1616 4238 1336 4038 
Q 1056 3838 1056 3469 
Q 1056 3159 1242 3001 
Q 1428 2844 1947 2747 
L 2328 2669 
Q 3034 2534 3370 2195 
Q 3706 1856 3706 1288 
Q 3706 609 3251 259 
Q 2797 -91 1919 -91 
Q 1588 -91 1214 -16 
Q 841 59 441 206 
L 441 856 
Q 825 641 1194 531 
Q 1563 422 1919 422 
Q 2459 422 2753 634 
Q 3047 847 3047 1241 
Q 3047 1584 2836 1778 
Q 2625 1972 2144 2069 
L 1759 2144 
Q 1053 2284 737 2584 
Q 422 2884 422 3419 
Q 422 4038 858 4394 
Q 1294 4750 2059 4750 
Q 2388 4750 2728 4690 
Q 3069 4631 3425 4513 
z
" transform="scale(0.015625)"/>
     </defs>
     <use xlink:href="#DejaVuSans-53"/>
    </g>
   </g>
   <g id="text_9">
    <!-- W1 -->
    <g transform="translate(112.153 208.368437) scale(0.14 -0.14)">
     <defs>
      <path id="DejaVuSans-57" d="M 213 4666 
L 850 4666 
L 1831 722 
L 2809 4666 
L 3519 4666 
L 4500 722 
L 5478 4666 
L 6119 4666 
L 4947 0 
L 4153 0 
L 3169 4050 
L 2175 0 
L 1381 0 
L 213 4666 
z
" transform="scale(0.015625)"/>
     </defs>
     <use xlink:href="#DejaVuSans-57"/>
     <use xlink:href="#DejaVuSans-31" transform="translate(98.876953 0)"/>
    </g>
   </g>
   <g id="patch_3">
    <path d="M 46.488 167.18 
C 47.204048 167.18 47.890866 166.895511 48.397188 166.389188 
C 48.903511 165.882866 49.188 165.196048 49.188 164.48 
C 49.188 163.763952 48.903511 163.077134 48.397188 162.570812 
C 47.890866 162.064489 47.204048 161.78 46.488 161.78 
C 45.771952 161.78 45.085134 162.064489 44.578812 162.570812 
C 44.072489 163.077134 43.788 163.763952 43.788 164.48 
C 43.788 165.196048 44.072489 165.882866 44.578812 166.389188 
C 45.085134 166.895511 45.771952 167.18 46.488 167.18 
z
" clip-path="url(#p083283797d)" style="stroke: #000000; stroke-width: 2; stroke-linejoin: miter"/>
   </g>
  </g>
 </g>
 <defs>
  <clipPath id="p083283797d">
   <rect x="0" y="-0" width="407.976" height="255.16"/>
  </clipPath>
 </defs>
</svg>
