<?xml version="1.0" encoding="utf-8" standalone="no"?>
<!DOCTYPE svg PUBLIC "-//W3C//DTD SVG 1.1//EN"
  "http://www.w3.org/Graphics/SVG/1.1/DTD/svg11.dtd">
<svg xmlns:xlink="http://www.w3.org/1999/xlink" width="319.464pt" height="187.56pt" viewBox="0 0 319.464 187.56" xmlns="http://www.w3.org/2000/svg" version="1.1">
 <metadata>
  <rdf:RDF xmlns:dc="http://purl.org/dc/elements/1.1/" xmlns:cc="http://creativecommons.org/ns#" xmlns:rdf="http://www.w3.org/1999/02/22-rdf-syntax-ns#">
   <cc:Work>
    <dc:type rdf:resource="http://purl.org/dc/dcmitype/StillImage"/>
    <dc:date>2026-06-15T11:50:39.458400</dc:date>
    <dc:format>image/svg+xml</dc:format>
    <dc:creator>
     <cc:Agent>
      <dc:title>Matplotlib v3.10.8, https://matplotlib.org/</dc:title>
     </cc:Agent>
    </dc:creator>
   </cc:Work>
  </rdf:RDF>
 </metadata>
 <defs>
  <style type="text/css">*{stroke-linejoin: round; stroke-linecap: butt}</style>
 </defs>
 <g id="figure_1">
  <g id="patch_1">
   <path d="M 0 187.56 
L 319.464 187.56 
L 319.464 0 
L 0 0 
z
" style="fill: #ffffff"/>
  </g>
  <g id="axes_1">
   <g id="line2d_1">
    <path d="M 26.784 4.68 
L 26.784 182.88 
" clip-path="url(#pfb3eb44701)" style="fill: none; stroke-dasharray: 1,1.65; stroke-dashoffset: 0; stroke: #dddddd"/>
   </g>
   <g id="line2d_2">
    <path d="M 62.784 4.68 
L 62.784 182.88 
" clip-path="url(#pfb3eb44701)" style="fill: none; stroke-dasharray: 1,1.65; stroke-dashoffset: 0; stroke: #dddddd"/>
   </g>
   <g id="line2d_3">
    <path d="M 98.784 4.68 
L 98.784 182.88 
" clip-path="url(#pfb3eb44701)" style="fill: none; stroke-dasharray: 1,1.65; stroke-dashoffset: 0; stroke: #dddddd"/>
   </g>
   <g id="line2d_4">
    <path d="M 134.784 4.68 
L 134.784 182.88 
" clip-path="url(#pfb3eb44701)" style="fill: none; stroke-dasharray: 1,1.65; stroke-dashoffset: 0; stroke: #dddddd"/>
   </g>
   <g id="line2d_5">
    <path d="M 170.784 4.68 
L 170.784 182.88 
" clip-path="url(#pfb3eb44701)" style="fill: none; stroke-dasharray: 1,1.65; stroke-dashoffset: 0; stroke: #dddddd"/>
   </g>
   <g id="line2d_6">
    <path d="M 206.784 4.68 
L 206.784 182.88 
" clip-path="url(#pfb3eb44701)" style="fill: none; stroke-dasharray: 1,1.65; stroke-dashoffset: 0; stroke: #dddddd"/>
   </g>
   <g id="line2d_7">
    <path d="M 242.784 4.68 
L 242.784 182.88 
" clip-path="url(#pfb3eb44701)" style="fill: none; stroke-dasharray: 1,1.65; stroke-dashoffset: 0; stroke: #dddddd"/>
   </g>
   <g id="line2d_8">
    <path d="M 278.784 4.68 
L 278.784 182.88 
" clip-path="url(#pfb3eb44701)" style="fill: none; stroke-dasharray: 1,1.65; stroke-dashoffset: 0; stroke: #dddddd"/>
   </g>
   <g id="line2d_9">
    <path d="M 314.784 4.68 
L 314.784 182.88 
" clip-path="url(#pfb3eb44701)" style="fill: none; stroke-dasharray: 1,1.65; stroke-dashoffset: 0; stroke: #dddddd"/>
   </g>
   <g id="line2d_10">
    <path d="M 26.784 28.08 
L 62.784 28.08 
" clip-path="url(#pc373da2e35)" style="fill: none; stroke: #000000; stroke-linecap: round"/>
   </g>
   <g id="line2d_11">
    <path d="M 62.784 28.08 
L 64.224 19.08 
L 65.664 28.08 
L 98.784 28.08 
" clip-path="url(#pc373da2e35)" style="fill: none; stroke: #000000; stroke-linecap: round"/>
   </g>
   <g id="line2d_12">
    <path d="M 98.784 28.08 
L 100.224 19.08 
L 101.664 28.08 
L 134.784 28.08 
" clip-path="url(#pc373da2e35)" style="fill: none; stroke: #000000; stroke-linecap: round"/>
   </g>
   <g id="line2d_13">
    <path d="M 134.784 28.08 
L 136.224 19.08 
L 137.664 28.08 
L 170.784 28.08 
" clip-path="url(#pc373da2e35)" style="fill: none; stroke: #000000; stroke-linecap: round"/>
   </g>
   <g id="line2d_14">
    <path d="M 170.784 28.08 
L 173.664 10.08 
L 206.784 10.08 
" clip-path="url(#pc373da2e35)" style="fill: none; stroke: #000000; stroke-linecap: round"/>
   </g>
   <g id="line2d_15">
    <path d="M 206.784 10.08 
L 208.224 19.08 
L 209.664 10.08 
L 242.784 10.08 
" clip-path="url(#pc373da2e35)" style="fill: none; stroke: #000000; stroke-linecap: round"/>
   </g>
   <g id="line2d_16">
    <path d="M 242.784 10.08 
L 244.224 19.08 
L 245.664 10.08 
L 278.784 10.08 
" clip-path="url(#pc373da2e35)" style="fill: none; stroke: #000000; stroke-linecap: round"/>
   </g>
   <g id="line2d_17">
    <path d="M 278.784 10.08 
L 280.224 19.08 
L 281.664 10.08 
L 314.784 10.08 
" clip-path="url(#pc373da2e35)" style="fill: none; stroke: #000000; stroke-linecap: round"/>
   </g>
   <g id="line2d_18">
    <path d="M 26.784 56.88 
L 62.784 56.88 
" clip-path="url(#pc373da2e35)" style="fill: none; stroke: #000000; stroke-linecap: round"/>
   </g>
   <g id="line2d_19">
    <path d="M 62.784 56.88 
L 64.224 47.88 
L 65.664 56.88 
L 98.784 56.88 
" clip-path="url(#pc373da2e35)" style="fill: none; stroke: #000000; stroke-linecap: round"/>
   </g>
   <g id="line2d_20">
    <path d="M 98.784 56.88 
L 101.664 38.88 
L 134.784 38.88 
" clip-path="url(#pc373da2e35)" style="fill: none; stroke: #000000; stroke-linecap: round"/>
   </g>
   <g id="line2d_21">
    <path d="M 134.784 38.88 
L 136.224 47.88 
L 137.664 38.88 
L 170.784 38.88 
" clip-path="url(#pc373da2e35)" style="fill: none; stroke: #000000; stroke-linecap: round"/>
   </g>
   <g id="line2d_22">
    <path d="M 170.784 38.88 
L 173.664 56.88 
L 206.784 56.88 
" clip-path="url(#pc373da2e35)" style="fill: none; stroke: #000000; stroke-linecap: round"/>
   </g>
   <g id="line2d_23">
    <path d="M 206.784 56.88 
L 208.224 47.88 
L 209.664 56.88 
L 242.784 56.88 
" clip-path="url(#pc373da2e35)" style="fill: none; stroke: #000000; stroke-linecap: round"/>
   </g>
   <g id="line2d_24">
    <path d="M 242.784 56.88 
L 245.664 38.88 
L 278.784 38.88 
" clip-path="url(#pc373da2e35)" style="fill: none; stroke: #000000; stroke-linecap: round"/>
   </g>
   <g id="line2d_25">
    <path d="M 278.784 38.88 
L 280.224 47.88 
L 281.664 38.88 
L 314.784 38.88 
" clip-path="url(#pc373da2e35)" style="fill: none; stroke: #000000; stroke-linecap: round"/>
   </g>
   <g id="line2d_26">
    <path d="M 26.784 85.68 
L 62.784 85.68 
" clip-path="url(#pc373da2e35)" style="fill: none; stroke: #000000; stroke-linecap: round"/>
   </g>
   <g id="line2d_27">
    <path d="M 62.784 85.68 
L 65.664 67.68 
L 98.784 67.68 
" clip-path="url(#pc373da2e35)" style="fill: none; stroke: #000000; stroke-linecap: round"/>
   </g>
   <g id="line2d_28">
    <path d="M 98.784 67.68 
L 101.664 85.68 
L 134.784 85.68 
" clip-path="url(#pc373da2e35)" style="fill: none; stroke: #000000; stroke-linecap: round"/>
   </g>
   <g id="line2d_29">
    <path d="M 134.784 85.68 
L 137.664 67.68 
L 170.784 67.68 
" clip-path="url(#pc373da2e35)" style="fill: none; stroke: #000000; stroke-linecap: round"/>
   </g>
   <g id="line2d_30">
    <path d="M 170.784 67.68 
L 173.664 85.68 
L 206.784 85.68 
" clip-path="url(#pc373da2e35)" style="fill: none; stroke: #000000; stroke-linecap: round"/>
   </g>
   <g id="line2d_31">
    <path d="M 206.784 85.68 
L 209.664 67.68 
L 242.784 67.68 
" clip-path="url(#pc373da2e35)" style="fill: none; stroke: #000000; stroke-linecap: round"/>
   </g>
   <g id="line2d_32">
    <path d="M 242.784 67.68 
L 245.664 85.68 
L 278.784 85.68 
" clip-path="url(#pc373da2e35)" style="fill: none; stroke: #000000; stroke-linecap: round"/>
   </g>
   <g id="line2d_33">
    <path d="M 278.784 85.68 
L 281.664 67.68 
L 314.784 67.68 
" clip-path="url(#pc373da2e35)" style="fill: none; stroke: #000000; stroke-linecap: round"/>
   </g>
   <g id="line2d_34">
    <path d="M 26.784 143.28 
L 62.784 143.28 
" clip-path="url(#pc373da2e35)" style="fill: none; stroke: #000000; stroke-linecap: round"/>
   </g>
   <g id="line2d_35">
    <path d="M 62.784 143.28 
L 65.664 125.28 
L 98.784 125.28 
" clip-path="url(#pc373da2e35)" style="fill: none; stroke: #000000; stroke-linecap: round"/>
   </g>
   <g id="line2d_36">
    <path d="M 98.784 125.28 
L 100.224 134.28 
L 101.664 125.28 
L 134.784 125.28 
" clip-path="url(#pc373da2e35)" style="fill: none; stroke: #000000; stroke-linecap: round"/>
   </g>
   <g id="line2d_37">
    <path d="M 134.784 125.28 
L 137.664 143.28 
L 170.784 143.28 
" clip-path="url(#pc373da2e35)" style="fill: none; stroke: #000000; stroke-linecap: round"/>
   </g>
   <g id="line2d_38">
    <path d="M 170.784 143.28 
L 173.664 125.28 
L 206.784 125.28 
" clip-path="url(#pc373da2e35)" style="fill: none; stroke: #000000; stroke-linecap: round"/>
   </g>
   <g id="line2d_39">
    <path d="M 206.784 125.28 
L 209.664 143.28 
L 242.784 143.28 
" clip-path="url(#pc373da2e35)" style="fill: none; stroke: #000000; stroke-linecap: round"/>
   </g>
   <g id="line2d_40">
    <path d="M 242.784 143.28 
L 244.224 134.28 
L 245.664 143.28 
L 278.784 143.28 
" clip-path="url(#pc373da2e35)" style="fill: none; stroke: #000000; stroke-linecap: round"/>
   </g>
   <g id="line2d_41">
    <path d="M 278.784 143.28 
L 281.664 125.28 
L 314.784 125.28 
" clip-path="url(#pc373da2e35)" style="fill: none; stroke: #000000; stroke-linecap: round"/>
   </g>
   <g id="line2d_42">
    <path d="M 26.784 172.08 
L 62.784 172.08 
" clip-path="url(#pc373da2e35)" style="fill: none; stroke: #000000; stroke-linecap: round"/>
   </g>
   <g id="line2d_43">
    <path d="M 62.784 172.08 
L 64.224 163.08 
L 65.664 172.08 
L 98.784 172.08 
" clip-path="url(#pc373da2e35)" style="fill: none; stroke: #000000; stroke-linecap: round"/>
   </g>
   <g id="line2d_44">
    <path d="M 98.784 172.08 
L 100.224 163.08 
L 101.664 172.08 
L 134.784 172.08 
" clip-path="url(#pc373da2e35)" style="fill: none; stroke: #000000; stroke-linecap: round"/>
   </g>
   <g id="line2d_45">
    <path d="M 134.784 172.08 
L 137.664 154.08 
L 170.784 154.08 
" clip-path="url(#pc373da2e35)" style="fill: none; stroke: #000000; stroke-linecap: round"/>
   </g>
   <g id="line2d_46">
    <path d="M 170.784 154.08 
L 173.664 172.08 
L 206.784 172.08 
" clip-path="url(#pc373da2e35)" style="fill: none; stroke: #000000; stroke-linecap: round"/>
   </g>
   <g id="line2d_47">
    <path d="M 206.784 172.08 
L 209.664 154.08 
L 242.784 154.08 
" clip-path="url(#pc373da2e35)" style="fill: none; stroke: #000000; stroke-linecap: round"/>
   </g>
   <g id="line2d_48">
    <path d="M 242.784 154.08 
L 244.224 163.08 
L 245.664 154.08 
L 278.784 154.08 
" clip-path="url(#pc373da2e35)" style="fill: none; stroke: #000000; stroke-linecap: round"/>
   </g>
   <g id="line2d_49">
    <path d="M 278.784 154.08 
L 280.224 163.08 
L 281.664 154.08 
L 314.784 154.08 
" clip-path="url(#pc373da2e35)" style="fill: none; stroke: #000000; stroke-linecap: round"/>
   </g>
   <g id="text_1">
    <!-- A -->
    <g style="fill: #0000ff" transform="translate(11.37525 25.584375) scale(0.12 -0.12)">
     <defs>
      <path id="DejaVuSans-41" d="M 2188 4044 
L 1331 1722 
L 3047 1722 
L 2188 4044 
z
M 1831 4666 
L 2547 4666 
L 4325 0 
L 3669 0 
L 3244 1197 
L 1141 1197 
L 716 0 
L 50 0 
L 1831 4666 
z
" transform="scale(0.015625)"/>
     </defs>
     <use xlink:href="#DejaVuSans-41"/>
    </g>
   </g>
   <g id="text_2">
    <!-- B -->
    <g style="fill: #0000ff" transform="translate(11.350875 54.384375) scale(0.12 -0.12)">
     <defs>
      <path id="DejaVuSans-42" d="M 1259 2228 
L 1259 519 
L 2272 519 
Q 2781 519 3026 730 
Q 3272 941 3272 1375 
Q 3272 1813 3026 2020 
Q 2781 2228 2272 2228 
L 1259 2228 
z
M 1259 4147 
L 1259 2741 
L 2194 2741 
Q 2656 2741 2882 2914 
Q 3109 3088 3109 3444 
Q 3109 3797 2882 3972 
Q 2656 4147 2194 4147 
L 1259 4147 
z
M 628 4666 
L 2241 4666 
Q 2963 4666 3353 4366 
Q 3744 4066 3744 3513 
Q 3744 3084 3544 2831 
Q 3344 2578 2956 2516 
Q 3422 2416 3680 2098 
Q 3938 1781 3938 1306 
Q 3938 681 3513 340 
Q 3088 0 2303 0 
L 628 0 
L 628 4666 
z
" transform="scale(0.015625)"/>
     </defs>
     <use xlink:href="#DejaVuSans-42"/>
    </g>
   </g>
   <g id="text_3">
    <!-- Ci -->
    <g style="fill: #0000ff" transform="translate(7.870875 83.184375) scale(0.12 -0.12)">
     <defs>
      <path id="DejaVuSans-43" d="M 4122 4306 
L 4122 3641 
Q 3803 3938 3442 4084 
Q 3081 4231 2675 4231 
Q 1875 4231 1450 3742 
Q 1025 3253 1025 2328 
Q 1025 1406 1450 917 
Q 1875 428 2675 428 
Q 3081 428 3442 575 
Q 3803 722 4122 1019 
L 4122 359 
Q 3791 134 3420 21 
Q 3050 -91 2638 -91 
Q 1578 -91 968 557 
Q 359 1206 359 2328 
Q 359 3453 968 4101 
Q 1578 4750 2638 4750 
Q 3056 4750 3426 4639 
Q 3797 4528 4122 4306 
z
" transform="scale(0.015625)"/>
      <path id="DejaVuSans-69" d="M 603 3500 
L 1178 3500 
L 1178 0 
L 603 0 
L 603 3500 
z
M 603 4863 
L 1178 4863 
L 1178 4134 
L 603 4134 
L 603 4863 
z
" transform="scale(0.015625)"/>
     </defs>
     <use xlink:href="#DejaVuSans-43"/>
     <use xlink:href="#DejaVuSans-69" transform="translate(69.824219 0)"/>
    </g>
   </g>
   <g id="text_4">
    <!-- S -->
    <g style="fill: #0000ff" transform="translate(11.965875 140.784375) scale(0.12 -0.12)">
     <defs>
      <path id="DejaVuSans-53" d="M 3425 4513 
L 3425 3897 
Q 3066 4069 2747 4153 
Q 2428 4238 2131 4238 
Q 1616 4238 1336 4038 
Q 1056 3838 1056 3469 
Q 1056 3159 1242 3001 
Q 1428 2844 1947 2747 
L 2328 2669 
Q 3034 2534 3370 2195 
Q 3706 1856 3706 1288 
Q 3706 609 3251 259 
Q 2797 -91 1919 -91 
Q 1588 -91 1214 -16 
Q 841 59 441 206 
L 441 856 
Q 825 641 1194 531 
Q 1563 422 1919 422 
Q 2459 422 2753 634 
Q 3047 847 3047 1241 
Q 3047 1584 2836 1778 
Q 2625 1972 2144 2069 
L 1759 2144 
Q 1053 2284 737 2584 
Q 422 2884 422 3419 
Q 422 4038 858 4394 
Q 1294 4750 2059 4750 
Q 2388 4750 2728 4690 
Q 3069 4631 3425 4513 
z
" transform="scale(0.015625)"/>
     </defs>
     <use xlink:href="#DejaVuSans-53"/>
    </g>
   </g>
   <g id="text_5">
    <!-- Co -->
    <g style="fill: #0000ff" transform="translate(3.862125 169.584375) scale(0.12 -0.12)">
     <defs>
      <path id="DejaVuSans-6f" d="M 1959 3097 
Q 1497 3097 1228 2736 
Q 959 2375 959 1747 
Q 959 1119 1226 758 
Q 1494 397 1959 397 
Q 2419 397 2687 759 
Q 2956 1122 2956 1747 
Q 2956 2369 2687 2733 
Q 2419 3097 1959 3097 
z
M 1959 3584 
Q 2709 3584 3137 3096 
Q 3566 2609 3566 1747 
Q 3566 888 3137 398 
Q 2709 -91 1959 -91 
Q 1206 -91 779 398 
Q 353 888 353 1747 
Q 353 2609 779 3096 
Q 1206 3584 1959 3584 
z
" transform="scale(0.015625)"/>
     </defs>
     <use xlink:href="#DejaVuSans-43"/>
     <use xlink:href="#DejaVuSans-6f" transform="translate(69.824219 0)"/>
    </g>
   </g>
  </g>
 </g>
 <defs>
  <clipPath id="pfb3eb44701">
   <rect x="0" y="0" width="319.464" height="187.56"/>
  </clipPath>
  <clipPath id="pc373da2e35">
   <rect x="26.784" y="8.28" width="288" height="192.6"/>
  </clipPath>
 </defs>
</svg>
