<?xml version="1.0" encoding="utf-8" standalone="no"?>
<!DOCTYPE svg PUBLIC "-//W3C//DTD SVG 1.1//EN"
  "http://www.w3.org/Graphics/SVG/1.1/DTD/svg11.dtd">
<svg xmlns:xlink="http://www.w3.org/1999/xlink" width="247.464pt" height="129.96pt" viewBox="0 0 247.464 129.96" xmlns="http://www.w3.org/2000/svg" version="1.1">
 <metadata>
  <rdf:RDF xmlns:dc="http://purl.org/dc/elements/1.1/" xmlns:cc="http://creativecommons.org/ns#" xmlns:rdf="http://www.w3.org/1999/02/22-rdf-syntax-ns#">
   <cc:Work>
    <dc:type rdf:resource="http://purl.org/dc/dcmitype/StillImage"/>
    <dc:date>2026-06-15T11:50:39.582678</dc:date>
    <dc:format>image/svg+xml</dc:format>
    <dc:creator>
     <cc:Agent>
      <dc:title>Matplotlib v3.10.8, https://matplotlib.org/</dc:title>
     </cc:Agent>
    </dc:creator>
   </cc:Work>
  </rdf:RDF>
 </metadata>
 <defs>
  <style type="text/css">*{stroke-linejoin: round; stroke-linecap: butt}</style>
 </defs>
 <g id="figure_1">
  <g id="patch_1">
   <path d="M 0 129.96 
L 247.464 129.96 
L 247.464 0 
L 0 0 
z
" style="fill: #ffffff"/>
  </g>
  <g id="axes_1">
   <g id="line2d_1">
    <path d="M 26.784 4.68 
L 26.784 125.28 
" clip-path="url(#p87164a9499)" style="fill: none; stroke-dasharray: 1,1.65; stroke-dashoffset: 0; stroke: #dddddd"/>
   </g>
   <g id="line2d_2">
    <path d="M 62.784 4.68 
L 62.784 125.28 
" clip-path="url(#p87164a9499)" style="fill: none; stroke-dasharray: 1,1.65; stroke-dashoffset: 0; stroke: #dddddd"/>
   </g>
   <g id="line2d_3">
    <path d="M 98.784 4.68 
L 98.784 125.28 
" clip-path="url(#p87164a9499)" style="fill: none; stroke-dasharray: 1,1.65; stroke-dashoffset: 0; stroke: #dddddd"/>
   </g>
   <g id="line2d_4">
    <path d="M 134.784 4.68 
L 134.784 125.28 
" clip-path="url(#p87164a9499)" style="fill: none; stroke-dasharray: 1,1.65; stroke-dashoffset: 0; stroke: #dddddd"/>
   </g>
   <g id="line2d_5">
    <path d="M 170.784 4.68 
L 170.784 125.28 
" clip-path="url(#p87164a9499)" style="fill: none; stroke-dasharray: 1,1.65; stroke-dashoffset: 0; stroke: #dddddd"/>
   </g>
   <g id="line2d_6">
    <path d="M 206.784 4.68 
L 206.784 125.28 
" clip-path="url(#p87164a9499)" style="fill: none; stroke-dasharray: 1,1.65; stroke-dashoffset: 0; stroke: #dddddd"/>
   </g>
   <g id="line2d_7">
    <path d="M 242.784 4.68 
L 242.784 125.28 
" clip-path="url(#p87164a9499)" style="fill: none; stroke-dasharray: 1,1.65; stroke-dashoffset: 0; stroke: #dddddd"/>
   </g>
   <g id="line2d_8">
    <path d="M 26.784 28.08 
L 26.784 10.08 
L 44.784 10.08 
L 44.784 28.08 
L 62.784 28.08 
L 62.784 10.08 
L 80.784 10.08 
L 80.784 28.08 
L 98.784 28.08 
L 98.784 10.08 
L 116.784 10.08 
L 116.784 28.08 
L 134.784 28.08 
L 134.784 10.08 
L 152.784 10.08 
L 152.784 28.08 
L 170.784 28.08 
L 170.784 10.08 
L 188.784 10.08 
L 188.784 28.08 
L 206.784 28.08 
L 206.784 10.08 
L 224.784 10.08 
L 224.784 28.08 
L 242.784 28.08 
" clip-path="url(#p58bf9d7a78)" style="fill: none; stroke: #000000; stroke-linecap: round"/>
   </g>
   <g id="line2d_9">
    <path d="M 26.784 56.88 
L 62.784 56.88 
" clip-path="url(#p58bf9d7a78)" style="fill: none; stroke: #000000; stroke-linecap: round"/>
   </g>
   <g id="line2d_10">
    <path d="M 62.784 56.88 
L 65.664 38.88 
L 170.784 38.88 
" clip-path="url(#p58bf9d7a78)" style="fill: none; stroke: #000000; stroke-linecap: round"/>
   </g>
   <g id="line2d_11">
    <path d="M 170.784 38.88 
L 173.664 56.88 
L 242.784 56.88 
" clip-path="url(#p58bf9d7a78)" style="fill: none; stroke: #000000; stroke-linecap: round"/>
   </g>
   <g id="line2d_12">
    <path d="M 26.784 85.68 
L 98.784 85.68 
" clip-path="url(#p58bf9d7a78)" style="fill: none; stroke: #000000; stroke-linecap: round"/>
   </g>
   <g id="line2d_13">
    <path d="M 98.784 85.68 
L 101.664 67.68 
L 206.784 67.68 
" clip-path="url(#p58bf9d7a78)" style="fill: none; stroke: #000000; stroke-linecap: round"/>
   </g>
   <g id="line2d_14">
    <path d="M 206.784 67.68 
L 209.664 85.68 
L 242.784 85.68 
" clip-path="url(#p58bf9d7a78)" style="fill: none; stroke: #000000; stroke-linecap: round"/>
   </g>
   <g id="line2d_15">
    <path d="M 26.784 114.48 
L 134.784 114.48 
" clip-path="url(#p58bf9d7a78)" style="fill: none; stroke: #000000; stroke-linecap: round"/>
   </g>
   <g id="line2d_16">
    <path d="M 134.784 114.48 
L 137.664 96.48 
L 242.784 96.48 
" clip-path="url(#p58bf9d7a78)" style="fill: none; stroke: #000000; stroke-linecap: round"/>
   </g>
   <g id="text_1">
    <!-- clk -->
    <g style="fill: #0000ff" transform="translate(2.703375 25.584375) scale(0.12 -0.12)">
     <defs>
      <path id="DejaVuSans-63" d="M 3122 3366 
L 3122 2828 
Q 2878 2963 2633 3030 
Q 2388 3097 2138 3097 
Q 1578 3097 1268 2742 
Q 959 2388 959 1747 
Q 959 1106 1268 751 
Q 1578 397 2138 397 
Q 2388 397 2633 464 
Q 2878 531 3122 666 
L 3122 134 
Q 2881 22 2623 -34 
Q 2366 -91 2075 -91 
Q 1284 -91 818 406 
Q 353 903 353 1747 
Q 353 2603 823 3093 
Q 1294 3584 2113 3584 
Q 2378 3584 2631 3529 
Q 2884 3475 3122 3366 
z
" transform="scale(0.015625)"/>
      <path id="DejaVuSans-6c" d="M 603 4863 
L 1178 4863 
L 1178 0 
L 603 0 
L 603 4863 
z
" transform="scale(0.015625)"/>
      <path id="DejaVuSans-6b" d="M 581 4863 
L 1159 4863 
L 1159 1991 
L 2875 3500 
L 3609 3500 
L 1753 1863 
L 3688 0 
L 2938 0 
L 1159 1709 
L 1159 0 
L 581 0 
L 581 4863 
z
" transform="scale(0.015625)"/>
     </defs>
     <use xlink:href="#DejaVuSans-63"/>
     <use xlink:href="#DejaVuSans-6c" transform="translate(54.980469 0)"/>
     <use xlink:href="#DejaVuSans-6b" transform="translate(82.763672 0)"/>
    </g>
   </g>
   <g id="text_2">
    <!-- b -->
    <g style="fill: #0000ff" transform="translate(11.965875 54.384375) scale(0.12 -0.12)">
     <defs>
      <path id="DejaVuSans-62" d="M 3116 1747 
Q 3116 2381 2855 2742 
Q 2594 3103 2138 3103 
Q 1681 3103 1420 2742 
Q 1159 2381 1159 1747 
Q 1159 1113 1420 752 
Q 1681 391 2138 391 
Q 2594 391 2855 752 
Q 3116 1113 3116 1747 
z
M 1159 2969 
Q 1341 3281 1617 3432 
Q 1894 3584 2278 3584 
Q 2916 3584 3314 3078 
Q 3713 2572 3713 1747 
Q 3713 922 3314 415 
Q 2916 -91 2278 -91 
Q 1894 -91 1617 61 
Q 1341 213 1159 525 
L 1159 0 
L 581 0 
L 581 4863 
L 1159 4863 
L 1159 2969 
z
" transform="scale(0.015625)"/>
     </defs>
     <use xlink:href="#DejaVuSans-62"/>
    </g>
   </g>
   <g id="text_3">
    <!-- a -->
    <g style="fill: #0000ff" transform="translate(12.23025 83.184375) scale(0.12 -0.12)">
     <defs>
      <path id="DejaVuSans-61" d="M 2194 1759 
Q 1497 1759 1228 1600 
Q 959 1441 959 1056 
Q 959 750 1161 570 
Q 1363 391 1709 391 
Q 2188 391 2477 730 
Q 2766 1069 2766 1631 
L 2766 1759 
L 2194 1759 
z
M 3341 1997 
L 3341 0 
L 2766 0 
L 2766 531 
Q 2569 213 2275 61 
Q 1981 -91 1556 -91 
Q 1019 -91 701 211 
Q 384 513 384 1019 
Q 384 1609 779 1909 
Q 1175 2209 1959 2209 
L 2766 2209 
L 2766 2266 
Q 2766 2663 2505 2880 
Q 2244 3097 1772 3097 
Q 1472 3097 1187 3025 
Q 903 2953 641 2809 
L 641 3341 
Q 956 3463 1253 3523 
Q 1550 3584 1831 3584 
Q 2591 3584 2966 3190 
Q 3341 2797 3341 1997 
z
" transform="scale(0.015625)"/>
     </defs>
     <use xlink:href="#DejaVuSans-61"/>
    </g>
   </g>
   <g id="text_4">
    <!-- c -->
    <g style="fill: #0000ff" transform="translate(12.985875 111.984375) scale(0.12 -0.12)">
     <use xlink:href="#DejaVuSans-63"/>
    </g>
   </g>
  </g>
 </g>
 <defs>
  <clipPath id="p87164a9499">
   <rect x="0" y="0" width="247.464" height="129.96"/>
  </clipPath>
  <clipPath id="p58bf9d7a78">
   <rect x="26.784" y="8.28" width="216" height="135"/>
  </clipPath>
 </defs>
</svg>
