<?xml version="1.0" encoding="utf-8" standalone="no"?>
<!DOCTYPE svg PUBLIC "-//W3C//DTD SVG 1.1//EN"
  "http://www.w3.org/Graphics/SVG/1.1/DTD/svg11.dtd">
<svg xmlns:xlink="http://www.w3.org/1999/xlink" width="301.175437pt" height="483.36pt" viewBox="0 0 301.175437 483.36" xmlns="http://www.w3.org/2000/svg" version="1.1">
 <metadata>
  <rdf:RDF xmlns:dc="http://purl.org/dc/elements/1.1/" xmlns:cc="http://creativecommons.org/ns#" xmlns:rdf="http://www.w3.org/1999/02/22-rdf-syntax-ns#">
   <cc:Work>
    <dc:type rdf:resource="http://purl.org/dc/dcmitype/StillImage"/>
    <dc:date>2026-06-15T11:52:09.390370</dc:date>
    <dc:format>image/svg+xml</dc:format>
    <dc:creator>
     <cc:Agent>
      <dc:title>Matplotlib v3.10.8, https://matplotlib.org/</dc:title>
     </cc:Agent>
    </dc:creator>
   </cc:Work>
  </rdf:RDF>
 </metadata>
 <defs>
  <style type="text/css">*{stroke-linejoin: round; stroke-linecap: butt}</style>
 </defs>
 <g id="figure_1">
  <g id="patch_1">
   <path d="M 0 483.36 
L 301.175437 483.36 
L 301.175437 0 
L 0 0 
z
" style="fill: #ffffff"/>
  </g>
  <g id="axes_1">
   <g id="patch_2">
    <path d="M 78.462 69 
C 79.607677 69 80.706585 68.544818 81.516701 67.734701 
C 82.326818 66.924585 82.782 65.825677 82.782 64.68 
C 82.782 63.534323 82.326818 62.435415 81.516701 61.625299 
C 80.706585 60.815182 79.607677 60.36 78.462 60.36 
C 77.316323 60.36 76.217415 60.815182 75.407299 61.625299 
C 74.597182 62.435415 74.142 63.534323 74.142 64.68 
C 74.142 65.825677 74.597182 66.924585 75.407299 67.734701 
C 76.217415 68.544818 77.316323 69 78.462 69 
L 78.462 69 
z
" clip-path="url(#pa5ca2db72a)" style="fill: none; stroke: #000000; stroke-width: 2; stroke-linejoin: miter"/>
   </g>
   <g id="patch_3">
    <path d="M 78.462 126.6 
C 79.607677 126.6 80.706585 126.144818 81.516701 125.334701 
C 82.326818 124.524585 82.782 123.425677 82.782 122.28 
C 82.782 121.134323 82.326818 120.035415 81.516701 119.225299 
C 80.706585 118.415182 79.607677 117.96 78.462 117.96 
C 77.316323 117.96 76.217415 118.415182 75.407299 119.225299 
C 74.597182 120.035415 74.142 121.134323 74.142 122.28 
C 74.142 123.425677 74.597182 124.524585 75.407299 125.334701 
C 76.217415 126.144818 77.316323 126.6 78.462 126.6 
L 78.462 126.6 
z
" clip-path="url(#pa5ca2db72a)" style="fill: none; stroke: #000000; stroke-width: 2; stroke-linejoin: miter"/>
   </g>
   <g id="patch_4">
    <path d="M 218.682 184.2 
C 219.827677 184.2 220.926585 183.744818 221.736701 182.934701 
C 222.546818 182.124585 223.002 181.025677 223.002 179.88 
C 223.002 178.734323 222.546818 177.635415 221.736701 176.825299 
C 220.926585 176.015182 219.827677 175.56 218.682 175.56 
C 217.536323 175.56 216.437415 176.015182 215.627299 176.825299 
C 214.817182 177.635415 214.362 178.734323 214.362 179.88 
C 214.362 181.025677 214.817182 182.124585 215.627299 182.934701 
C 216.437415 183.744818 217.536323 184.2 218.682 184.2 
L 218.682 184.2 
z
" clip-path="url(#pa5ca2db72a)" style="fill: none; stroke: #000000; stroke-width: 2; stroke-linejoin: miter"/>
   </g>
   <g id="patch_5">
    <path d="M 218.682 277.8 
C 219.827677 277.8 220.926585 277.344818 221.736701 276.534701 
C 222.546818 275.724585 223.002 274.625677 223.002 273.48 
C 223.002 272.334323 222.546818 271.235415 221.736701 270.425299 
C 220.926585 269.615182 219.827677 269.16 218.682 269.16 
C 217.536323 269.16 216.437415 269.615182 215.627299 270.425299 
C 214.817182 271.235415 214.362 272.334323 214.362 273.48 
C 214.362 274.625677 214.817182 275.724585 215.627299 276.534701 
C 216.437415 277.344818 217.536323 277.8 218.682 277.8 
L 218.682 277.8 
z
" clip-path="url(#pa5ca2db72a)" style="fill: none; stroke: #000000; stroke-width: 2; stroke-linejoin: miter"/>
   </g>
   <g id="patch_6">
    <path d="M 218.682 371.4 
C 219.827677 371.4 220.926585 370.944818 221.736701 370.134701 
C 222.546818 369.324585 223.002 368.225677 223.002 367.08 
C 223.002 365.934323 222.546818 364.835415 221.736701 364.025299 
C 220.926585 363.215182 219.827677 362.76 218.682 362.76 
C 217.536323 362.76 216.437415 363.215182 215.627299 364.025299 
C 214.817182 364.835415 214.362 365.934323 214.362 367.08 
C 214.362 368.225677 214.817182 369.324585 215.627299 370.134701 
C 216.437415 370.944818 217.536323 371.4 218.682 371.4 
L 218.682 371.4 
z
" clip-path="url(#pa5ca2db72a)" style="fill: none; stroke: #000000; stroke-width: 2; stroke-linejoin: miter"/>
   </g>
   <g id="patch_7">
    <path d="M 218.682 465 
C 219.827677 465 220.926585 464.544818 221.736701 463.734701 
C 222.546818 462.924585 223.002 461.825677 223.002 460.68 
C 223.002 459.534323 222.546818 458.435415 221.736701 457.625299 
C 220.926585 456.815182 219.827677 456.36 218.682 456.36 
C 217.536323 456.36 216.437415 456.815182 215.627299 457.625299 
C 214.817182 458.435415 214.362 459.534323 214.362 460.68 
C 214.362 461.825677 214.817182 462.924585 215.627299 463.734701 
C 216.437415 464.544818 217.536323 465 218.682 465 
L 218.682 465 
z
" clip-path="url(#pa5ca2db72a)" style="fill: none; stroke: #000000; stroke-width: 2; stroke-linejoin: miter"/>
   </g>
   <g id="line2d_1">
    <path d="M 45.162 64.68 
L 50.742 64.68 
M 82.782 64.68 
L 88.362 64.68 
" clip-path="url(#pa5ca2db72a)" style="fill: none; stroke: #000000; stroke-width: 2; stroke-linecap: round"/>
   </g>
   <g id="line2d_2">
    <path d="M 50.742 46.68 
L 74.142 64.68 
L 50.742 82.68 
L 50.742 46.68 
" clip-path="url(#pa5ca2db72a)" style="fill: none; stroke: #000000; stroke-width: 2; stroke-linecap: round"/>
   </g>
   <g id="line2d_3">
    <path d="M 50.742 64.68 
L 36.342 64.68 
L 21.942 64.68 
" clip-path="url(#pa5ca2db72a)" style="fill: none; stroke: #000000; stroke-width: 2; stroke-linecap: round"/>
   </g>
   <g id="line2d_4">
    <path d="M 45.162 122.28 
L 50.742 122.28 
M 82.782 122.28 
L 88.362 122.28 
" clip-path="url(#pa5ca2db72a)" style="fill: none; stroke: #000000; stroke-width: 2; stroke-linecap: round"/>
   </g>
   <g id="line2d_5">
    <path d="M 50.742 104.28 
L 74.142 122.28 
L 50.742 140.28 
L 50.742 104.28 
" clip-path="url(#pa5ca2db72a)" style="fill: none; stroke: #000000; stroke-width: 2; stroke-linecap: round"/>
   </g>
   <g id="line2d_6">
    <path d="M 50.742 122.28 
L 36.342 122.28 
L 21.942 122.28 
" clip-path="url(#pa5ca2db72a)" style="fill: none; stroke: #000000; stroke-width: 2; stroke-linecap: round"/>
   </g>
   <g id="line2d_7">
    <path d="M 160.362 197.88 
L 161.515264 197.843017 
L 162.663789 197.73222 
L 163.802855 197.548065 
L 164.927783 197.291308 
L 166.033948 196.963003 
L 167.116806 196.564502 
L 168.171907 196.09744 
L 169.194916 195.563737 
L 170.181628 194.965586 
L 171.12799 194.305445 
L 172.030111 193.586027 
L 172.884286 192.810288 
L 173.687004 191.981416 
L 174.434967 191.102816 
L 175.125101 190.1781 
L 175.75457 189.211066 
L 176.320788 188.205689 
L 176.821427 187.1661 
L 177.254432 186.096571 
L 177.618021 185.001497 
L 177.910702 183.885377 
L 178.131272 182.752798 
L 178.278824 181.608414 
L 178.352752 180.456928 
L 178.352752 179.303072 
L 178.278824 178.151586 
L 178.131272 177.007202 
L 177.910702 175.874623 
L 177.618021 174.758503 
L 177.254432 173.663429 
L 176.821427 172.5939 
L 176.320788 171.554311 
L 175.75457 170.548934 
L 175.125101 169.5819 
L 174.434967 168.657184 
L 173.687004 167.778584 
L 172.884286 166.949712 
L 172.030111 166.173973 
L 171.12799 165.454555 
L 170.181628 164.794414 
L 169.194916 164.196263 
L 168.171907 163.66256 
L 167.116806 163.195498 
L 166.033948 162.796997 
L 164.927783 162.468692 
L 163.802855 162.211935 
L 162.663789 162.02778 
L 161.515264 161.916983 
L 160.362 161.88 
L 160.362 161.88 
L 136.962 161.88 
L 136.962 179.88 
L 136.962 197.88 
L 160.362 197.88 
" clip-path="url(#pa5ca2db72a)" style="fill: none; stroke: #000000; stroke-width: 2; stroke-linecap: round"/>
   </g>
   <g id="line2d_8">
    <path d="M 124.362 191.76 
L 136.962 191.76 
" clip-path="url(#pa5ca2db72a)" style="fill: none; stroke: #000000; stroke-width: 2; stroke-linecap: round"/>
   </g>
   <g id="line2d_9">
    <path d="M 124.362 179.88 
L 136.962 179.88 
" clip-path="url(#pa5ca2db72a)" style="fill: none; stroke: #000000; stroke-width: 2; stroke-linecap: round"/>
   </g>
   <g id="line2d_10">
    <path d="M 124.362 168 
L 136.962 168 
" clip-path="url(#pa5ca2db72a)" style="fill: none; stroke: #000000; stroke-width: 2; stroke-linecap: round"/>
   </g>
   <g id="line2d_11">
    <path d="M 178.362 179.88 
L 190.962 179.88 
" clip-path="url(#pa5ca2db72a)" style="fill: none; stroke: #000000; stroke-width: 2; stroke-linecap: round"/>
   </g>
   <g id="line2d_12">
    <path d="M 124.362 168 
L 111.762 168 
L 99.162 168 
" clip-path="url(#pa5ca2db72a)" style="fill: none; stroke: #000000; stroke-width: 2; stroke-linecap: round"/>
   </g>
   <g id="line2d_13">
    <path d="M 124.362 179.88 
L 111.762 179.88 
L 99.162 179.88 
" clip-path="url(#pa5ca2db72a)" style="fill: none; stroke: #000000; stroke-width: 2; stroke-linecap: round"/>
   </g>
   <g id="line2d_14">
    <path d="M 124.362 191.76 
L 111.762 191.76 
L 99.162 191.76 
" clip-path="url(#pa5ca2db72a)" style="fill: none; stroke: #000000; stroke-width: 2; stroke-linecap: round"/>
   </g>
   <g id="line2d_15">
    <path d="M 185.382 179.88 
L 190.962 179.88 
M 223.002 179.88 
L 228.582 179.88 
" clip-path="url(#pa5ca2db72a)" style="fill: none; stroke: #000000; stroke-width: 2; stroke-linecap: round"/>
   </g>
   <g id="line2d_16">
    <path d="M 190.962 161.88 
L 214.362 179.88 
L 190.962 197.88 
L 190.962 161.88 
" clip-path="url(#pa5ca2db72a)" style="fill: none; stroke: #000000; stroke-width: 2; stroke-linecap: round"/>
   </g>
   <g id="line2d_17">
    <path d="M 223.002 179.88 
L 232.002 179.88 
L 241.002 179.88 
" clip-path="url(#pa5ca2db72a)" style="fill: none; stroke: #000000; stroke-width: 2; stroke-linecap: round"/>
   </g>
   <g id="line2d_18">
    <path d="M 160.362 291.48 
L 161.515264 291.443017 
L 162.663789 291.33222 
L 163.802855 291.148065 
L 164.927783 290.891308 
L 166.033948 290.563003 
L 167.116806 290.164502 
L 168.171907 289.69744 
L 169.194916 289.163737 
L 170.181628 288.565586 
L 171.12799 287.905445 
L 172.030111 287.186027 
L 172.884286 286.410288 
L 173.687004 285.581416 
L 174.434967 284.702816 
L 175.125101 283.7781 
L 175.75457 282.811066 
L 176.320788 281.805689 
L 176.821427 280.7661 
L 177.254432 279.696571 
L 177.618021 278.601497 
L 177.910702 277.485377 
L 178.131272 276.352798 
L 178.278824 275.208414 
L 178.352752 274.056928 
L 178.352752 272.903072 
L 178.278824 271.751586 
L 178.131272 270.607202 
L 177.910702 269.474623 
L 177.618021 268.358503 
L 177.254432 267.263429 
L 176.821427 266.1939 
L 176.320788 265.154311 
L 175.75457 264.148934 
L 175.125101 263.1819 
L 174.434967 262.257184 
L 173.687004 261.378584 
L 172.884286 260.549712 
L 172.030111 259.773973 
L 171.12799 259.054555 
L 170.181628 258.394414 
L 169.194916 257.796263 
L 168.171907 257.26256 
L 167.116806 256.795498 
L 166.033948 256.396997 
L 164.927783 256.068692 
L 163.802855 255.811935 
L 162.663789 255.62778 
L 161.515264 255.516983 
L 160.362 255.48 
L 160.362 255.48 
L 136.962 255.48 
L 136.962 273.48 
L 136.962 291.48 
L 160.362 291.48 
" clip-path="url(#pa5ca2db72a)" style="fill: none; stroke: #000000; stroke-width: 2; stroke-linecap: round"/>
   </g>
   <g id="line2d_19">
    <path d="M 124.362 285.36 
L 136.962 285.36 
" clip-path="url(#pa5ca2db72a)" style="fill: none; stroke: #000000; stroke-width: 2; stroke-linecap: round"/>
   </g>
   <g id="line2d_20">
    <path d="M 124.362 273.48 
L 136.962 273.48 
" clip-path="url(#pa5ca2db72a)" style="fill: none; stroke: #000000; stroke-width: 2; stroke-linecap: round"/>
   </g>
   <g id="line2d_21">
    <path d="M 124.362 261.6 
L 136.962 261.6 
" clip-path="url(#pa5ca2db72a)" style="fill: none; stroke: #000000; stroke-width: 2; stroke-linecap: round"/>
   </g>
   <g id="line2d_22">
    <path d="M 178.362 273.48 
L 190.962 273.48 
" clip-path="url(#pa5ca2db72a)" style="fill: none; stroke: #000000; stroke-width: 2; stroke-linecap: round"/>
   </g>
   <g id="line2d_23">
    <path d="M 124.362 261.6 
L 111.762 261.6 
L 99.162 261.6 
" clip-path="url(#pa5ca2db72a)" style="fill: none; stroke: #000000; stroke-width: 2; stroke-linecap: round"/>
   </g>
   <g id="line2d_24">
    <path d="M 124.362 273.48 
L 111.762 273.48 
L 99.162 273.48 
" clip-path="url(#pa5ca2db72a)" style="fill: none; stroke: #000000; stroke-width: 2; stroke-linecap: round"/>
   </g>
   <g id="line2d_25">
    <path d="M 124.362 285.36 
L 111.762 285.36 
L 99.162 285.36 
" clip-path="url(#pa5ca2db72a)" style="fill: none; stroke: #000000; stroke-width: 2; stroke-linecap: round"/>
   </g>
   <g id="line2d_26">
    <path d="M 185.382 273.48 
L 190.962 273.48 
M 223.002 273.48 
L 228.582 273.48 
" clip-path="url(#pa5ca2db72a)" style="fill: none; stroke: #000000; stroke-width: 2; stroke-linecap: round"/>
   </g>
   <g id="line2d_27">
    <path d="M 190.962 255.48 
L 214.362 273.48 
L 190.962 291.48 
L 190.962 255.48 
" clip-path="url(#pa5ca2db72a)" style="fill: none; stroke: #000000; stroke-width: 2; stroke-linecap: round"/>
   </g>
   <g id="line2d_28">
    <path d="M 223.002 273.48 
L 232.002 273.48 
L 241.002 273.48 
" clip-path="url(#pa5ca2db72a)" style="fill: none; stroke: #000000; stroke-width: 2; stroke-linecap: round"/>
   </g>
   <g id="line2d_29">
    <path d="M 160.362 385.08 
L 161.515264 385.043017 
L 162.663789 384.93222 
L 163.802855 384.748065 
L 164.927783 384.491308 
L 166.033948 384.163003 
L 167.116806 383.764502 
L 168.171907 383.29744 
L 169.194916 382.763737 
L 170.181628 382.165586 
L 171.12799 381.505445 
L 172.030111 380.786027 
L 172.884286 380.010288 
L 173.687004 379.181416 
L 174.434967 378.302816 
L 175.125101 377.3781 
L 175.75457 376.411066 
L 176.320788 375.405689 
L 176.821427 374.3661 
L 177.254432 373.296571 
L 177.618021 372.201497 
L 177.910702 371.085377 
L 178.131272 369.952798 
L 178.278824 368.808414 
L 178.352752 367.656928 
L 178.352752 366.503072 
L 178.278824 365.351586 
L 178.131272 364.207202 
L 177.910702 363.074623 
L 177.618021 361.958503 
L 177.254432 360.863429 
L 176.821427 359.7939 
L 176.320788 358.754311 
L 175.75457 357.748934 
L 175.125101 356.7819 
L 174.434967 355.857184 
L 173.687004 354.978584 
L 172.884286 354.149712 
L 172.030111 353.373973 
L 171.12799 352.654555 
L 170.181628 351.994414 
L 169.194916 351.396263 
L 168.171907 350.86256 
L 167.116806 350.395498 
L 166.033948 349.996997 
L 164.927783 349.668692 
L 163.802855 349.411935 
L 162.663789 349.22778 
L 161.515264 349.116983 
L 160.362 349.08 
L 160.362 349.08 
L 136.962 349.08 
L 136.962 367.08 
L 136.962 385.08 
L 160.362 385.08 
" clip-path="url(#pa5ca2db72a)" style="fill: none; stroke: #000000; stroke-width: 2; stroke-linecap: round"/>
   </g>
   <g id="line2d_30">
    <path d="M 124.362 378.96 
L 136.962 378.96 
" clip-path="url(#pa5ca2db72a)" style="fill: none; stroke: #000000; stroke-width: 2; stroke-linecap: round"/>
   </g>
   <g id="line2d_31">
    <path d="M 124.362 367.08 
L 136.962 367.08 
" clip-path="url(#pa5ca2db72a)" style="fill: none; stroke: #000000; stroke-width: 2; stroke-linecap: round"/>
   </g>
   <g id="line2d_32">
    <path d="M 124.362 355.2 
L 136.962 355.2 
" clip-path="url(#pa5ca2db72a)" style="fill: none; stroke: #000000; stroke-width: 2; stroke-linecap: round"/>
   </g>
   <g id="line2d_33">
    <path d="M 178.362 367.08 
L 190.962 367.08 
" clip-path="url(#pa5ca2db72a)" style="fill: none; stroke: #000000; stroke-width: 2; stroke-linecap: round"/>
   </g>
   <g id="line2d_34">
    <path d="M 124.362 355.2 
L 111.762 355.2 
L 99.162 355.2 
" clip-path="url(#pa5ca2db72a)" style="fill: none; stroke: #000000; stroke-width: 2; stroke-linecap: round"/>
   </g>
   <g id="line2d_35">
    <path d="M 124.362 367.08 
L 111.762 367.08 
L 99.162 367.08 
" clip-path="url(#pa5ca2db72a)" style="fill: none; stroke: #000000; stroke-width: 2; stroke-linecap: round"/>
   </g>
   <g id="line2d_36">
    <path d="M 124.362 378.96 
L 111.762 378.96 
L 99.162 378.96 
" clip-path="url(#pa5ca2db72a)" style="fill: none; stroke: #000000; stroke-width: 2; stroke-linecap: round"/>
   </g>
   <g id="line2d_37">
    <path d="M 185.382 367.08 
L 190.962 367.08 
M 223.002 367.08 
L 228.582 367.08 
" clip-path="url(#pa5ca2db72a)" style="fill: none; stroke: #000000; stroke-width: 2; stroke-linecap: round"/>
   </g>
   <g id="line2d_38">
    <path d="M 190.962 349.08 
L 214.362 367.08 
L 190.962 385.08 
L 190.962 349.08 
" clip-path="url(#pa5ca2db72a)" style="fill: none; stroke: #000000; stroke-width: 2; stroke-linecap: round"/>
   </g>
   <g id="line2d_39">
    <path d="M 223.002 367.08 
L 232.002 367.08 
L 241.002 367.08 
" clip-path="url(#pa5ca2db72a)" style="fill: none; stroke: #000000; stroke-width: 2; stroke-linecap: round"/>
   </g>
   <g id="line2d_40">
    <path d="M 160.362 478.68 
L 161.515264 478.643017 
L 162.663789 478.53222 
L 163.802855 478.348065 
L 164.927783 478.091308 
L 166.033948 477.763003 
L 167.116806 477.364502 
L 168.171907 476.89744 
L 169.194916 476.363737 
L 170.181628 475.765586 
L 171.12799 475.105445 
L 172.030111 474.386027 
L 172.884286 473.610288 
L 173.687004 472.781416 
L 174.434967 471.902816 
L 175.125101 470.9781 
L 175.75457 470.011066 
L 176.320788 469.005689 
L 176.821427 467.9661 
L 177.254432 466.896571 
L 177.618021 465.801497 
L 177.910702 464.685377 
L 178.131272 463.552798 
L 178.278824 462.408414 
L 178.352752 461.256928 
L 178.352752 460.103072 
L 178.278824 458.951586 
L 178.131272 457.807202 
L 177.910702 456.674623 
L 177.618021 455.558503 
L 177.254432 454.463429 
L 176.821427 453.3939 
L 176.320788 452.354311 
L 175.75457 451.348934 
L 175.125101 450.3819 
L 174.434967 449.457184 
L 173.687004 448.578584 
L 172.884286 447.749712 
L 172.030111 446.973973 
L 171.12799 446.254555 
L 170.181628 445.594414 
L 169.194916 444.996263 
L 168.171907 444.46256 
L 167.116806 443.995498 
L 166.033948 443.596997 
L 164.927783 443.268692 
L 163.802855 443.011935 
L 162.663789 442.82778 
L 161.515264 442.716983 
L 160.362 442.68 
L 160.362 442.68 
L 136.962 442.68 
L 136.962 460.68 
L 136.962 478.68 
L 160.362 478.68 
" clip-path="url(#pa5ca2db72a)" style="fill: none; stroke: #000000; stroke-width: 2; stroke-linecap: round"/>
   </g>
   <g id="line2d_41">
    <path d="M 124.362 472.56 
L 136.962 472.56 
" clip-path="url(#pa5ca2db72a)" style="fill: none; stroke: #000000; stroke-width: 2; stroke-linecap: round"/>
   </g>
   <g id="line2d_42">
    <path d="M 124.362 460.68 
L 136.962 460.68 
" clip-path="url(#pa5ca2db72a)" style="fill: none; stroke: #000000; stroke-width: 2; stroke-linecap: round"/>
   </g>
   <g id="line2d_43">
    <path d="M 124.362 448.8 
L 136.962 448.8 
" clip-path="url(#pa5ca2db72a)" style="fill: none; stroke: #000000; stroke-width: 2; stroke-linecap: round"/>
   </g>
   <g id="line2d_44">
    <path d="M 178.362 460.68 
L 190.962 460.68 
" clip-path="url(#pa5ca2db72a)" style="fill: none; stroke: #000000; stroke-width: 2; stroke-linecap: round"/>
   </g>
   <g id="line2d_45">
    <path d="M 124.362 448.8 
L 111.762 448.8 
L 99.162 448.8 
" clip-path="url(#pa5ca2db72a)" style="fill: none; stroke: #000000; stroke-width: 2; stroke-linecap: round"/>
   </g>
   <g id="line2d_46">
    <path d="M 124.362 460.68 
L 111.762 460.68 
L 99.162 460.68 
" clip-path="url(#pa5ca2db72a)" style="fill: none; stroke: #000000; stroke-width: 2; stroke-linecap: round"/>
   </g>
   <g id="line2d_47">
    <path d="M 124.362 472.56 
L 111.762 472.56 
L 99.162 472.56 
" clip-path="url(#pa5ca2db72a)" style="fill: none; stroke: #000000; stroke-width: 2; stroke-linecap: round"/>
   </g>
   <g id="line2d_48">
    <path d="M 185.382 460.68 
L 190.962 460.68 
M 223.002 460.68 
L 228.582 460.68 
" clip-path="url(#pa5ca2db72a)" style="fill: none; stroke: #000000; stroke-width: 2; stroke-linecap: round"/>
   </g>
   <g id="line2d_49">
    <path d="M 190.962 442.68 
L 214.362 460.68 
L 190.962 478.68 
L 190.962 442.68 
" clip-path="url(#pa5ca2db72a)" style="fill: none; stroke: #000000; stroke-width: 2; stroke-linecap: round"/>
   </g>
   <g id="line2d_50">
    <path d="M 223.002 460.68 
L 232.002 460.68 
L 241.002 460.68 
" clip-path="url(#pa5ca2db72a)" style="fill: none; stroke: #000000; stroke-width: 2; stroke-linecap: round"/>
   </g>
   <g id="text_1">
    <!-- ~A0 -->
    <g transform="translate(91.962 67.715312) scale(0.11 -0.11)">
     <defs>
      <path id="DejaVuSans-7e" d="M 4684 2553 
L 4684 1997 
Q 4356 1750 4076 1644 
Q 3797 1538 3494 1538 
Q 3150 1538 2694 1722 
Q 2659 1734 2644 1741 
Q 2622 1750 2575 1766 
Q 2091 1959 1797 1959 
Q 1522 1959 1253 1839 
Q 984 1719 678 1459 
L 678 2016 
Q 1006 2263 1286 2370 
Q 1566 2478 1869 2478 
Q 2213 2478 2672 2291 
Q 2703 2278 2719 2272 
Q 2744 2263 2788 2247 
Q 3272 2053 3566 2053 
Q 3834 2053 4098 2172 
Q 4363 2291 4684 2553 
z
" transform="scale(0.015625)"/>
      <path id="DejaVuSans-41" d="M 2188 4044 
L 1331 1722 
L 3047 1722 
L 2188 4044 
z
M 1831 4666 
L 2547 4666 
L 4325 0 
L 3669 0 
L 3244 1197 
L 1141 1197 
L 716 0 
L 50 0 
L 1831 4666 
z
" transform="scale(0.015625)"/>
      <path id="DejaVuSans-30" d="M 2034 4250 
Q 1547 4250 1301 3770 
Q 1056 3291 1056 2328 
Q 1056 1369 1301 889 
Q 1547 409 2034 409 
Q 2525 409 2770 889 
Q 3016 1369 3016 2328 
Q 3016 3291 2770 3770 
Q 2525 4250 2034 4250 
z
M 2034 4750 
Q 2819 4750 3233 4129 
Q 3647 3509 3647 2328 
Q 3647 1150 3233 529 
Q 2819 -91 2034 -91 
Q 1250 -91 836 529 
Q 422 1150 422 2328 
Q 422 3509 836 4129 
Q 1250 4750 2034 4750 
z
" transform="scale(0.015625)"/>
     </defs>
     <use xlink:href="#DejaVuSans-7e"/>
     <use xlink:href="#DejaVuSans-41" transform="translate(83.789062 0)"/>
     <use xlink:href="#DejaVuSans-30" transform="translate(152.197266 0)"/>
    </g>
   </g>
   <g id="text_2">
    <!-- A0 -->
    <g transform="translate(3.818563 67.715312) scale(0.11 -0.11)">
     <use xlink:href="#DejaVuSans-41"/>
     <use xlink:href="#DejaVuSans-30" transform="translate(68.408203 0)"/>
    </g>
   </g>
   <g id="text_3">
    <!-- ~A1 -->
    <g transform="translate(91.962 125.315312) scale(0.11 -0.11)">
     <defs>
      <path id="DejaVuSans-31" d="M 794 531 
L 1825 531 
L 1825 4091 
L 703 3866 
L 703 4441 
L 1819 4666 
L 2450 4666 
L 2450 531 
L 3481 531 
L 3481 0 
L 794 0 
L 794 531 
z
" transform="scale(0.015625)"/>
     </defs>
     <use xlink:href="#DejaVuSans-7e"/>
     <use xlink:href="#DejaVuSans-41" transform="translate(83.789062 0)"/>
     <use xlink:href="#DejaVuSans-31" transform="translate(152.197266 0)"/>
    </g>
   </g>
   <g id="text_4">
    <!-- A1 -->
    <g transform="translate(3.818563 125.315312) scale(0.11 -0.11)">
     <use xlink:href="#DejaVuSans-41"/>
     <use xlink:href="#DejaVuSans-31" transform="translate(68.408203 0)"/>
    </g>
   </g>
   <g id="text_5">
    <!-- ~A1 -->
    <g transform="translate(73.979188 170.759375) scale(0.1 -0.1)">
     <use xlink:href="#DejaVuSans-7e"/>
     <use xlink:href="#DejaVuSans-41" transform="translate(83.789062 0)"/>
     <use xlink:href="#DejaVuSans-31" transform="translate(152.197266 0)"/>
    </g>
   </g>
   <g id="text_6">
    <!-- ~A0 -->
    <g transform="translate(73.979188 182.639375) scale(0.1 -0.1)">
     <use xlink:href="#DejaVuSans-7e"/>
     <use xlink:href="#DejaVuSans-41" transform="translate(83.789062 0)"/>
     <use xlink:href="#DejaVuSans-30" transform="translate(152.197266 0)"/>
    </g>
   </g>
   <g id="text_7">
    <!-- G -->
    <g transform="translate(87.813563 194.519375) scale(0.1 -0.1)">
     <defs>
      <path id="DejaVuSans-47" d="M 3809 666 
L 3809 1919 
L 2778 1919 
L 2778 2438 
L 4434 2438 
L 4434 434 
Q 4069 175 3628 42 
Q 3188 -91 2688 -91 
Q 1594 -91 976 548 
Q 359 1188 359 2328 
Q 359 3472 976 4111 
Q 1594 4750 2688 4750 
Q 3144 4750 3555 4637 
Q 3966 4525 4313 4306 
L 4313 3634 
Q 3963 3931 3569 4081 
Q 3175 4231 2741 4231 
Q 1884 4231 1454 3753 
Q 1025 3275 1025 2328 
Q 1025 1384 1454 906 
Q 1884 428 2741 428 
Q 3075 428 3337 486 
Q 3600 544 3809 666 
z
" transform="scale(0.015625)"/>
     </defs>
     <use xlink:href="#DejaVuSans-47"/>
    </g>
   </g>
   <g id="text_8">
    <!-- Y0 -->
    <g transform="translate(244.602 182.915312) scale(0.11 -0.11)">
     <defs>
      <path id="DejaVuSans-59" d="M -13 4666 
L 666 4666 
L 1959 2747 
L 3244 4666 
L 3922 4666 
L 2272 2222 
L 2272 0 
L 1638 0 
L 1638 2222 
L -13 4666 
z
" transform="scale(0.015625)"/>
     </defs>
     <use xlink:href="#DejaVuSans-59"/>
     <use xlink:href="#DejaVuSans-30" transform="translate(61.083984 0)"/>
    </g>
   </g>
   <g id="text_9">
    <!-- ~A1 -->
    <g transform="translate(73.979188 264.359375) scale(0.1 -0.1)">
     <use xlink:href="#DejaVuSans-7e"/>
     <use xlink:href="#DejaVuSans-41" transform="translate(83.789062 0)"/>
     <use xlink:href="#DejaVuSans-31" transform="translate(152.197266 0)"/>
    </g>
   </g>
   <g id="text_10">
    <!-- A0 -->
    <g transform="translate(82.358875 276.239375) scale(0.1 -0.1)">
     <use xlink:href="#DejaVuSans-41"/>
     <use xlink:href="#DejaVuSans-30" transform="translate(68.408203 0)"/>
    </g>
   </g>
   <g id="text_11">
    <!-- G -->
    <g transform="translate(87.813563 288.119375) scale(0.1 -0.1)">
     <use xlink:href="#DejaVuSans-47"/>
    </g>
   </g>
   <g id="text_12">
    <!-- Y1 -->
    <g transform="translate(244.602 276.515312) scale(0.11 -0.11)">
     <use xlink:href="#DejaVuSans-59"/>
     <use xlink:href="#DejaVuSans-31" transform="translate(61.083984 0)"/>
    </g>
   </g>
   <g id="text_13">
    <!-- A1 -->
    <g transform="translate(82.358875 357.959375) scale(0.1 -0.1)">
     <use xlink:href="#DejaVuSans-41"/>
     <use xlink:href="#DejaVuSans-31" transform="translate(68.408203 0)"/>
    </g>
   </g>
   <g id="text_14">
    <!-- ~A0 -->
    <g transform="translate(73.979188 369.839375) scale(0.1 -0.1)">
     <use xlink:href="#DejaVuSans-7e"/>
     <use xlink:href="#DejaVuSans-41" transform="translate(83.789062 0)"/>
     <use xlink:href="#DejaVuSans-30" transform="translate(152.197266 0)"/>
    </g>
   </g>
   <g id="text_15">
    <!-- G -->
    <g transform="translate(87.813563 381.719375) scale(0.1 -0.1)">
     <use xlink:href="#DejaVuSans-47"/>
    </g>
   </g>
   <g id="text_16">
    <!-- Y2 -->
    <g transform="translate(244.602 370.115312) scale(0.11 -0.11)">
     <defs>
      <path id="DejaVuSans-32" d="M 1228 531 
L 3431 531 
L 3431 0 
L 469 0 
L 469 531 
Q 828 903 1448 1529 
Q 2069 2156 2228 2338 
Q 2531 2678 2651 2914 
Q 2772 3150 2772 3378 
Q 2772 3750 2511 3984 
Q 2250 4219 1831 4219 
Q 1534 4219 1204 4116 
Q 875 4013 500 3803 
L 500 4441 
Q 881 4594 1212 4672 
Q 1544 4750 1819 4750 
Q 2544 4750 2975 4387 
Q 3406 4025 3406 3419 
Q 3406 3131 3298 2873 
Q 3191 2616 2906 2266 
Q 2828 2175 2409 1742 
Q 1991 1309 1228 531 
z
" transform="scale(0.015625)"/>
     </defs>
     <use xlink:href="#DejaVuSans-59"/>
     <use xlink:href="#DejaVuSans-32" transform="translate(61.083984 0)"/>
    </g>
   </g>
   <g id="text_17">
    <!-- A1 -->
    <g transform="translate(82.358875 451.559375) scale(0.1 -0.1)">
     <use xlink:href="#DejaVuSans-41"/>
     <use xlink:href="#DejaVuSans-31" transform="translate(68.408203 0)"/>
    </g>
   </g>
   <g id="text_18">
    <!-- A0 -->
    <g transform="translate(82.358875 463.439375) scale(0.1 -0.1)">
     <use xlink:href="#DejaVuSans-41"/>
     <use xlink:href="#DejaVuSans-30" transform="translate(68.408203 0)"/>
    </g>
   </g>
   <g id="text_19">
    <!-- G -->
    <g transform="translate(87.813563 475.319375) scale(0.1 -0.1)">
     <use xlink:href="#DejaVuSans-47"/>
    </g>
   </g>
   <g id="text_20">
    <!-- Y3 -->
    <g transform="translate(244.602 463.715312) scale(0.11 -0.11)">
     <defs>
      <path id="DejaVuSans-33" d="M 2597 2516 
Q 3050 2419 3304 2112 
Q 3559 1806 3559 1356 
Q 3559 666 3084 287 
Q 2609 -91 1734 -91 
Q 1441 -91 1130 -33 
Q 819 25 488 141 
L 488 750 
Q 750 597 1062 519 
Q 1375 441 1716 441 
Q 2309 441 2620 675 
Q 2931 909 2931 1356 
Q 2931 1769 2642 2001 
Q 2353 2234 1838 2234 
L 1294 2234 
L 1294 2753 
L 1863 2753 
Q 2328 2753 2575 2939 
Q 2822 3125 2822 3475 
Q 2822 3834 2567 4026 
Q 2313 4219 1838 4219 
Q 1578 4219 1281 4162 
Q 984 4106 628 3988 
L 628 4550 
Q 988 4650 1302 4700 
Q 1616 4750 1894 4750 
Q 2613 4750 3031 4423 
Q 3450 4097 3450 3541 
Q 3450 3153 3228 2886 
Q 3006 2619 2597 2516 
z
" transform="scale(0.015625)"/>
     </defs>
     <use xlink:href="#DejaVuSans-59"/>
     <use xlink:href="#DejaVuSans-33" transform="translate(61.083984 0)"/>
    </g>
   </g>
   <g id="text_21">
    <!-- 2-to-4 decoder (active-low outputs, enable G) -->
    <g transform="translate(26.748563 13.99125) scale(0.12 -0.12)">
     <defs>
      <path id="DejaVuSans-2d" d="M 313 2009 
L 1997 2009 
L 1997 1497 
L 313 1497 
L 313 2009 
z
" transform="scale(0.015625)"/>
      <path id="DejaVuSans-74" d="M 1172 4494 
L 1172 3500 
L 2356 3500 
L 2356 3053 
L 1172 3053 
L 1172 1153 
Q 1172 725 1289 603 
Q 1406 481 1766 481 
L 2356 481 
L 2356 0 
L 1766 0 
Q 1100 0 847 248 
Q 594 497 594 1153 
L 594 3053 
L 172 3053 
L 172 3500 
L 594 3500 
L 594 4494 
L 1172 4494 
z
" transform="scale(0.015625)"/>
      <path id="DejaVuSans-6f" d="M 1959 3097 
Q 1497 3097 1228 2736 
Q 959 2375 959 1747 
Q 959 1119 1226 758 
Q 1494 397 1959 397 
Q 2419 397 2687 759 
Q 2956 1122 2956 1747 
Q 2956 2369 2687 2733 
Q 2419 3097 1959 3097 
z
M 1959 3584 
Q 2709 3584 3137 3096 
Q 3566 2609 3566 1747 
Q 3566 888 3137 398 
Q 2709 -91 1959 -91 
Q 1206 -91 779 398 
Q 353 888 353 1747 
Q 353 2609 779 3096 
Q 1206 3584 1959 3584 
z
" transform="scale(0.015625)"/>
      <path id="DejaVuSans-34" d="M 2419 4116 
L 825 1625 
L 2419 1625 
L 2419 4116 
z
M 2253 4666 
L 3047 4666 
L 3047 1625 
L 3713 1625 
L 3713 1100 
L 3047 1100 
L 3047 0 
L 2419 0 
L 2419 1100 
L 313 1100 
L 313 1709 
L 2253 4666 
z
" transform="scale(0.015625)"/>
      <path id="DejaVuSans-20" transform="scale(0.015625)"/>
      <path id="DejaVuSans-64" d="M 2906 2969 
L 2906 4863 
L 3481 4863 
L 3481 0 
L 2906 0 
L 2906 525 
Q 2725 213 2448 61 
Q 2172 -91 1784 -91 
Q 1150 -91 751 415 
Q 353 922 353 1747 
Q 353 2572 751 3078 
Q 1150 3584 1784 3584 
Q 2172 3584 2448 3432 
Q 2725 3281 2906 2969 
z
M 947 1747 
Q 947 1113 1208 752 
Q 1469 391 1925 391 
Q 2381 391 2643 752 
Q 2906 1113 2906 1747 
Q 2906 2381 2643 2742 
Q 2381 3103 1925 3103 
Q 1469 3103 1208 2742 
Q 947 2381 947 1747 
z
" transform="scale(0.015625)"/>
      <path id="DejaVuSans-65" d="M 3597 1894 
L 3597 1613 
L 953 1613 
Q 991 1019 1311 708 
Q 1631 397 2203 397 
Q 2534 397 2845 478 
Q 3156 559 3463 722 
L 3463 178 
Q 3153 47 2828 -22 
Q 2503 -91 2169 -91 
Q 1331 -91 842 396 
Q 353 884 353 1716 
Q 353 2575 817 3079 
Q 1281 3584 2069 3584 
Q 2775 3584 3186 3129 
Q 3597 2675 3597 1894 
z
M 3022 2063 
Q 3016 2534 2758 2815 
Q 2500 3097 2075 3097 
Q 1594 3097 1305 2825 
Q 1016 2553 972 2059 
L 3022 2063 
z
" transform="scale(0.015625)"/>
      <path id="DejaVuSans-63" d="M 3122 3366 
L 3122 2828 
Q 2878 2963 2633 3030 
Q 2388 3097 2138 3097 
Q 1578 3097 1268 2742 
Q 959 2388 959 1747 
Q 959 1106 1268 751 
Q 1578 397 2138 397 
Q 2388 397 2633 464 
Q 2878 531 3122 666 
L 3122 134 
Q 2881 22 2623 -34 
Q 2366 -91 2075 -91 
Q 1284 -91 818 406 
Q 353 903 353 1747 
Q 353 2603 823 3093 
Q 1294 3584 2113 3584 
Q 2378 3584 2631 3529 
Q 2884 3475 3122 3366 
z
" transform="scale(0.015625)"/>
      <path id="DejaVuSans-72" d="M 2631 2963 
Q 2534 3019 2420 3045 
Q 2306 3072 2169 3072 
Q 1681 3072 1420 2755 
Q 1159 2438 1159 1844 
L 1159 0 
L 581 0 
L 581 3500 
L 1159 3500 
L 1159 2956 
Q 1341 3275 1631 3429 
Q 1922 3584 2338 3584 
Q 2397 3584 2469 3576 
Q 2541 3569 2628 3553 
L 2631 2963 
z
" transform="scale(0.015625)"/>
      <path id="DejaVuSans-28" d="M 1984 4856 
Q 1566 4138 1362 3434 
Q 1159 2731 1159 2009 
Q 1159 1288 1364 580 
Q 1569 -128 1984 -844 
L 1484 -844 
Q 1016 -109 783 600 
Q 550 1309 550 2009 
Q 550 2706 781 3412 
Q 1013 4119 1484 4856 
L 1984 4856 
z
" transform="scale(0.015625)"/>
      <path id="DejaVuSans-61" d="M 2194 1759 
Q 1497 1759 1228 1600 
Q 959 1441 959 1056 
Q 959 750 1161 570 
Q 1363 391 1709 391 
Q 2188 391 2477 730 
Q 2766 1069 2766 1631 
L 2766 1759 
L 2194 1759 
z
M 3341 1997 
L 3341 0 
L 2766 0 
L 2766 531 
Q 2569 213 2275 61 
Q 1981 -91 1556 -91 
Q 1019 -91 701 211 
Q 384 513 384 1019 
Q 384 1609 779 1909 
Q 1175 2209 1959 2209 
L 2766 2209 
L 2766 2266 
Q 2766 2663 2505 2880 
Q 2244 3097 1772 3097 
Q 1472 3097 1187 3025 
Q 903 2953 641 2809 
L 641 3341 
Q 956 3463 1253 3523 
Q 1550 3584 1831 3584 
Q 2591 3584 2966 3190 
Q 3341 2797 3341 1997 
z
" transform="scale(0.015625)"/>
      <path id="DejaVuSans-69" d="M 603 3500 
L 1178 3500 
L 1178 0 
L 603 0 
L 603 3500 
z
M 603 4863 
L 1178 4863 
L 1178 4134 
L 603 4134 
L 603 4863 
z
" transform="scale(0.015625)"/>
      <path id="DejaVuSans-76" d="M 191 3500 
L 800 3500 
L 1894 563 
L 2988 3500 
L 3597 3500 
L 2284 0 
L 1503 0 
L 191 3500 
z
" transform="scale(0.015625)"/>
      <path id="DejaVuSans-6c" d="M 603 4863 
L 1178 4863 
L 1178 0 
L 603 0 
L 603 4863 
z
" transform="scale(0.015625)"/>
      <path id="DejaVuSans-77" d="M 269 3500 
L 844 3500 
L 1563 769 
L 2278 3500 
L 2956 3500 
L 3675 769 
L 4391 3500 
L 4966 3500 
L 4050 0 
L 3372 0 
L 2619 2869 
L 1863 0 
L 1184 0 
L 269 3500 
z
" transform="scale(0.015625)"/>
      <path id="DejaVuSans-75" d="M 544 1381 
L 544 3500 
L 1119 3500 
L 1119 1403 
Q 1119 906 1312 657 
Q 1506 409 1894 409 
Q 2359 409 2629 706 
Q 2900 1003 2900 1516 
L 2900 3500 
L 3475 3500 
L 3475 0 
L 2900 0 
L 2900 538 
Q 2691 219 2414 64 
Q 2138 -91 1772 -91 
Q 1169 -91 856 284 
Q 544 659 544 1381 
z
M 1991 3584 
L 1991 3584 
z
" transform="scale(0.015625)"/>
      <path id="DejaVuSans-70" d="M 1159 525 
L 1159 -1331 
L 581 -1331 
L 581 3500 
L 1159 3500 
L 1159 2969 
Q 1341 3281 1617 3432 
Q 1894 3584 2278 3584 
Q 2916 3584 3314 3078 
Q 3713 2572 3713 1747 
Q 3713 922 3314 415 
Q 2916 -91 2278 -91 
Q 1894 -91 1617 61 
Q 1341 213 1159 525 
z
M 3116 1747 
Q 3116 2381 2855 2742 
Q 2594 3103 2138 3103 
Q 1681 3103 1420 2742 
Q 1159 2381 1159 1747 
Q 1159 1113 1420 752 
Q 1681 391 2138 391 
Q 2594 391 2855 752 
Q 3116 1113 3116 1747 
z
" transform="scale(0.015625)"/>
      <path id="DejaVuSans-73" d="M 2834 3397 
L 2834 2853 
Q 2591 2978 2328 3040 
Q 2066 3103 1784 3103 
Q 1356 3103 1142 2972 
Q 928 2841 928 2578 
Q 928 2378 1081 2264 
Q 1234 2150 1697 2047 
L 1894 2003 
Q 2506 1872 2764 1633 
Q 3022 1394 3022 966 
Q 3022 478 2636 193 
Q 2250 -91 1575 -91 
Q 1294 -91 989 -36 
Q 684 19 347 128 
L 347 722 
Q 666 556 975 473 
Q 1284 391 1588 391 
Q 1994 391 2212 530 
Q 2431 669 2431 922 
Q 2431 1156 2273 1281 
Q 2116 1406 1581 1522 
L 1381 1569 
Q 847 1681 609 1914 
Q 372 2147 372 2553 
Q 372 3047 722 3315 
Q 1072 3584 1716 3584 
Q 2034 3584 2315 3537 
Q 2597 3491 2834 3397 
z
" transform="scale(0.015625)"/>
      <path id="DejaVuSans-2c" d="M 750 794 
L 1409 794 
L 1409 256 
L 897 -744 
L 494 -744 
L 750 256 
L 750 794 
z
" transform="scale(0.015625)"/>
      <path id="DejaVuSans-6e" d="M 3513 2113 
L 3513 0 
L 2938 0 
L 2938 2094 
Q 2938 2591 2744 2837 
Q 2550 3084 2163 3084 
Q 1697 3084 1428 2787 
Q 1159 2491 1159 1978 
L 1159 0 
L 581 0 
L 581 3500 
L 1159 3500 
L 1159 2956 
Q 1366 3272 1645 3428 
Q 1925 3584 2291 3584 
Q 2894 3584 3203 3211 
Q 3513 2838 3513 2113 
z
" transform="scale(0.015625)"/>
      <path id="DejaVuSans-62" d="M 3116 1747 
Q 3116 2381 2855 2742 
Q 2594 3103 2138 3103 
Q 1681 3103 1420 2742 
Q 1159 2381 1159 1747 
Q 1159 1113 1420 752 
Q 1681 391 2138 391 
Q 2594 391 2855 752 
Q 3116 1113 3116 1747 
z
M 1159 2969 
Q 1341 3281 1617 3432 
Q 1894 3584 2278 3584 
Q 2916 3584 3314 3078 
Q 3713 2572 3713 1747 
Q 3713 922 3314 415 
Q 2916 -91 2278 -91 
Q 1894 -91 1617 61 
Q 1341 213 1159 525 
L 1159 0 
L 581 0 
L 581 4863 
L 1159 4863 
L 1159 2969 
z
" transform="scale(0.015625)"/>
      <path id="DejaVuSans-29" d="M 513 4856 
L 1013 4856 
Q 1481 4119 1714 3412 
Q 1947 2706 1947 2009 
Q 1947 1309 1714 600 
Q 1481 -109 1013 -844 
L 513 -844 
Q 928 -128 1133 580 
Q 1338 1288 1338 2009 
Q 1338 2731 1133 3434 
Q 928 4138 513 4856 
z
" transform="scale(0.015625)"/>
     </defs>
     <use xlink:href="#DejaVuSans-32"/>
     <use xlink:href="#DejaVuSans-2d" transform="translate(63.623047 0)"/>
     <use xlink:href="#DejaVuSans-74" transform="translate(99.707031 0)"/>
     <use xlink:href="#DejaVuSans-6f" transform="translate(138.916016 0)"/>
     <use xlink:href="#DejaVuSans-2d" transform="translate(201.972656 0)"/>
     <use xlink:href="#DejaVuSans-34" transform="translate(238.056641 0)"/>
     <use xlink:href="#DejaVuSans-20" transform="translate(301.679688 0)"/>
     <use xlink:href="#DejaVuSans-64" transform="translate(333.466797 0)"/>
     <use xlink:href="#DejaVuSans-65" transform="translate(396.943359 0)"/>
     <use xlink:href="#DejaVuSans-63" transform="translate(458.466797 0)"/>
     <use xlink:href="#DejaVuSans-6f" transform="translate(513.447266 0)"/>
     <use xlink:href="#DejaVuSans-64" transform="translate(574.628906 0)"/>
     <use xlink:href="#DejaVuSans-65" transform="translate(638.105469 0)"/>
     <use xlink:href="#DejaVuSans-72" transform="translate(699.628906 0)"/>
     <use xlink:href="#DejaVuSans-20" transform="translate(740.742188 0)"/>
     <use xlink:href="#DejaVuSans-28" transform="translate(772.529297 0)"/>
     <use xlink:href="#DejaVuSans-61" transform="translate(811.542969 0)"/>
     <use xlink:href="#DejaVuSans-63" transform="translate(872.822266 0)"/>
     <use xlink:href="#DejaVuSans-74" transform="translate(927.802734 0)"/>
     <use xlink:href="#DejaVuSans-69" transform="translate(967.011719 0)"/>
     <use xlink:href="#DejaVuSans-76" transform="translate(994.794922 0)"/>
     <use xlink:href="#DejaVuSans-65" transform="translate(1053.974609 0)"/>
     <use xlink:href="#DejaVuSans-2d" transform="translate(1115.498047 0)"/>
     <use xlink:href="#DejaVuSans-6c" transform="translate(1151.582031 0)"/>
     <use xlink:href="#DejaVuSans-6f" transform="translate(1179.365234 0)"/>
     <use xlink:href="#DejaVuSans-77" transform="translate(1240.546875 0)"/>
     <use xlink:href="#DejaVuSans-20" transform="translate(1322.333984 0)"/>
     <use xlink:href="#DejaVuSans-6f" transform="translate(1354.121094 0)"/>
     <use xlink:href="#DejaVuSans-75" transform="translate(1415.302734 0)"/>
     <use xlink:href="#DejaVuSans-74" transform="translate(1478.681641 0)"/>
     <use xlink:href="#DejaVuSans-70" transform="translate(1517.890625 0)"/>
     <use xlink:href="#DejaVuSans-75" transform="translate(1581.367188 0)"/>
     <use xlink:href="#DejaVuSans-74" transform="translate(1644.746094 0)"/>
     <use xlink:href="#DejaVuSans-73" transform="translate(1683.955078 0)"/>
     <use xlink:href="#DejaVuSans-2c" transform="translate(1736.054688 0)"/>
     <use xlink:href="#DejaVuSans-20" transform="translate(1767.841797 0)"/>
     <use xlink:href="#DejaVuSans-65" transform="translate(1799.628906 0)"/>
     <use xlink:href="#DejaVuSans-6e" transform="translate(1861.152344 0)"/>
     <use xlink:href="#DejaVuSans-61" transform="translate(1924.53125 0)"/>
     <use xlink:href="#DejaVuSans-62" transform="translate(1985.810547 0)"/>
     <use xlink:href="#DejaVuSans-6c" transform="translate(2049.287109 0)"/>
     <use xlink:href="#DejaVuSans-65" transform="translate(2077.070312 0)"/>
     <use xlink:href="#DejaVuSans-20" transform="translate(2138.59375 0)"/>
     <use xlink:href="#DejaVuSans-47" transform="translate(2170.380859 0)"/>
     <use xlink:href="#DejaVuSans-29" transform="translate(2247.871094 0)"/>
    </g>
   </g>
  </g>
 </g>
 <defs>
  <clipPath id="pa5ca2db72a">
   <rect x="0" y="-0" width="290.97" height="483.36"/>
  </clipPath>
 </defs>
</svg>
