<?xml version="1.0" encoding="UTF-8" standalone="no"?>
<!DOCTYPE svg PUBLIC "-//W3C//DTD SVG 1.1//EN"
 "http://www.w3.org/Graphics/SVG/1.1/DTD/svg11.dtd">
<!-- Generated by graphviz version 2.43.0 (0)
 -->
<!-- Title: BABA Pages: 1 -->
<svg width="503pt" height="133pt"
 viewBox="0.00 0.00 503.20 133.20" xmlns="http://www.w3.org/2000/svg" xmlns:xlink="http://www.w3.org/1999/xlink">
<g id="graph0" class="graph" transform="scale(1 1) rotate(0) translate(21.6 111.6)">
<title>BABA</title>
<polygon fill="white" stroke="transparent" points="-21.6,21.6 -21.6,-111.6 481.6,-111.6 481.6,21.6 -21.6,21.6"/>
<text text-anchor="middle" x="230" y="-75.6" font-family="Helvetica,sans-Serif" font-size="13.00">&quot;BABA&quot; Mealy detector (other inputs return toward IDLE)</text>
<!-- IDLE -->
<g id="node1" class="node">
<title>IDLE</title>
<ellipse fill="none" stroke="black" stroke-width="1.5" cx="34" cy="-34" rx="34" ry="34"/>
<text text-anchor="middle" x="34" y="-30.6" font-family="Helvetica,sans-Serif" font-size="13.00">IDLE</text>
</g>
<!-- B_ -->
<g id="node2" class="node">
<title>B_</title>
<ellipse fill="none" stroke="black" stroke-width="1.5" cx="148" cy="-34" rx="34" ry="34"/>
<text text-anchor="middle" x="148" y="-30.6" font-family="Helvetica,sans-Serif" font-size="13.00">B_</text>
</g>
<!-- IDLE&#45;&gt;B_ -->
<g id="edge1" class="edge">
<title>IDLE&#45;&gt;B_</title>
<path fill="none" stroke="black" stroke-width="1.5" d="M68.3,-34C79.37,-34 91.87,-34 103.59,-34"/>
<polygon fill="black" stroke="black" stroke-width="1.5" points="103.63,-37.5 113.63,-34 103.63,-30.5 103.63,-37.5"/>
<text text-anchor="middle" x="91" y="-37.6" font-family="Helvetica,sans-Serif" font-size="13.00">B</text>
</g>
<!-- BA_ -->
<g id="node3" class="node">
<title>BA_</title>
<ellipse fill="none" stroke="black" stroke-width="1.5" cx="262" cy="-34" rx="34" ry="34"/>
<text text-anchor="middle" x="262" y="-30.6" font-family="Helvetica,sans-Serif" font-size="13.00">BA_</text>
</g>
<!-- B_&#45;&gt;BA_ -->
<g id="edge2" class="edge">
<title>B_&#45;&gt;BA_</title>
<path fill="none" stroke="black" stroke-width="1.5" d="M182.3,-34C193.37,-34 205.87,-34 217.59,-34"/>
<polygon fill="black" stroke="black" stroke-width="1.5" points="217.63,-37.5 227.63,-34 217.63,-30.5 217.63,-37.5"/>
<text text-anchor="middle" x="205" y="-37.6" font-family="Helvetica,sans-Serif" font-size="13.00">A</text>
</g>
<!-- BAB_ -->
<g id="node4" class="node">
<title>BAB_</title>
<ellipse fill="none" stroke="black" stroke-width="1.5" cx="426" cy="-34" rx="34" ry="34"/>
<text text-anchor="middle" x="426" y="-30.6" font-family="Helvetica,sans-Serif" font-size="13.00">BAB_</text>
</g>
<!-- BA_&#45;&gt;BAB_ -->
<g id="edge3" class="edge">
<title>BA_&#45;&gt;BAB_</title>
<path fill="none" stroke="black" stroke-width="1.5" d="M296.17,-34C320.85,-34 354.76,-34 381.6,-34"/>
<polygon fill="black" stroke="black" stroke-width="1.5" points="381.87,-37.5 391.87,-34 381.87,-30.5 381.87,-37.5"/>
<text text-anchor="middle" x="344" y="-37.6" font-family="Helvetica,sans-Serif" font-size="13.00">B</text>
</g>
<!-- BAB_&#45;&gt;BA_ -->
<g id="edge4" class="edge">
<title>BAB_&#45;&gt;BA_</title>
<path fill="none" stroke="black" stroke-width="1.5" d="M394.43,-21.33C387.81,-19.12 380.76,-17.16 374,-16 347.72,-11.5 340.28,-11.5 314,-16 310.52,-16.6 306.95,-17.41 303.41,-18.36"/>
<polygon fill="black" stroke="black" stroke-width="1.5" points="302.13,-15.09 293.57,-21.33 304.15,-21.79 302.13,-15.09"/>
<text text-anchor="middle" x="344" y="-19.6" font-family="Helvetica,sans-Serif" font-size="13.00"> &#160;A / Y=1</text>
</g>
</g>
</svg>
