<?xml version="1.0" encoding="utf-8" standalone="no"?>
<!DOCTYPE svg PUBLIC "-//W3C//DTD SVG 1.1//EN"
  "http://www.w3.org/Graphics/SVG/1.1/DTD/svg11.dtd">
<svg xmlns:xlink="http://www.w3.org/1999/xlink" width="197.376pt" height="188.2pt" viewBox="0 0 197.376 188.2" xmlns="http://www.w3.org/2000/svg" version="1.1">
 <metadata>
  <rdf:RDF xmlns:dc="http://purl.org/dc/elements/1.1/" xmlns:cc="http://creativecommons.org/ns#" xmlns:rdf="http://www.w3.org/1999/02/22-rdf-syntax-ns#">
   <cc:Work>
    <dc:type rdf:resource="http://purl.org/dc/dcmitype/StillImage"/>
    <dc:date>2026-06-15T11:41:51.173975</dc:date>
    <dc:format>image/svg+xml</dc:format>
    <dc:creator>
     <cc:Agent>
      <dc:title>Matplotlib v3.10.8, https://matplotlib.org/</dc:title>
     </cc:Agent>
    </dc:creator>
   </cc:Work>
  </rdf:RDF>
 </metadata>
 <defs>
  <style type="text/css">*{stroke-linejoin: round; stroke-linecap: butt}</style>
 </defs>
 <g id="figure_1">
  <g id="patch_1">
   <path d="M 0 188.2 
L 197.376 188.2 
L 197.376 0 
L 0 0 
z
" style="fill: #ffffff"/>
  </g>
  <g id="axes_1">
   <g id="line2d_1">
    <path d="M 123.888 57.56 
L 143.430857 57.493878 
L 145.488 57.2 
L 147.545143 56.67102 
L 149.602286 55.906939 
L 151.659429 54.907755 
L 153.716571 53.673469 
L 155.773714 52.204082 
L 157.830857 50.499592 
L 160.402286 48.038367 
L 162.973714 45.209796 
L 165.545143 42.013878 
L 167.088 39.92 
L 167.088 39.92 
L 164.516571 36.503673 
L 161.945143 33.454694 
L 159.373714 30.773061 
L 156.802286 28.458776 
L 154.745143 26.871837 
L 152.688 25.52 
L 150.630857 24.403265 
L 148.573714 23.521633 
L 146.516571 22.875102 
L 144.459429 22.463673 
L 142.402286 22.287347 
L 141.888 22.28 
L 123.888 22.28 
L 123.888 22.28 
L 125.8752 24.44 
L 127.6032 26.6 
L 129.072 28.76 
L 130.2816 30.92 
L 131.232 33.08 
L 131.9232 35.24 
L 132.3552 37.4 
L 132.528 39.56 
L 132.4416 41.72 
L 132.096 43.88 
L 131.4912 46.04 
L 130.6272 48.2 
L 129.504 50.36 
L 128.1216 52.52 
L 126.48 54.68 
L 124.5792 56.84 
L 123.888 57.56 
L 123.888 57.56 
" clip-path="url(#pd72c31dcd8)" style="fill: none; stroke: #000000; stroke-width: 2; stroke-linecap: round"/>
   </g>
   <g id="line2d_2">
    <path d="M 118.488 57.56 
L 119.1792 56.84 
L 119.8416 56.12 
L 120.4752 55.4 
L 121.08 54.68 
L 121.656 53.96 
L 122.2032 53.24 
L 122.7216 52.52 
L 123.2112 51.8 
L 123.672 51.08 
L 124.104 50.36 
L 124.5072 49.64 
L 124.8816 48.92 
L 125.2272 48.2 
L 125.544 47.48 
L 125.832 46.76 
L 126.0912 46.04 
L 126.3216 45.32 
L 126.5232 44.6 
L 126.696 43.88 
L 126.84 43.16 
L 126.9552 42.44 
L 127.0416 41.72 
L 127.0992 41 
L 127.128 40.28 
L 127.128 39.56 
L 127.0992 38.84 
L 127.0416 38.12 
L 126.9552 37.4 
L 126.84 36.68 
L 126.696 35.96 
L 126.5232 35.24 
L 126.3216 34.52 
L 126.0912 33.8 
L 125.832 33.08 
L 125.544 32.36 
L 125.2272 31.64 
L 124.8816 30.92 
L 124.5072 30.2 
L 124.104 29.48 
L 123.672 28.76 
L 123.2112 28.04 
L 122.7216 27.32 
L 122.2032 26.6 
L 121.656 25.88 
L 121.08 25.16 
L 120.4752 24.44 
L 119.8416 23.72 
L 119.1792 23 
L 118.488 22.28 
" clip-path="url(#pd72c31dcd8)" style="fill: none; stroke: #000000; stroke-width: 2; stroke-linecap: round"/>
   </g>
   <g id="line2d_3">
    <path d="M 111.288 48.92 
L 124.8816 48.92 
" clip-path="url(#pd72c31dcd8)" style="fill: none; stroke: #000000; stroke-width: 2; stroke-linecap: round"/>
   </g>
   <g id="line2d_4">
    <path d="M 111.288 30.92 
L 124.8816 30.92 
" clip-path="url(#pd72c31dcd8)" style="fill: none; stroke: #000000; stroke-width: 2; stroke-linecap: round"/>
   </g>
   <g id="line2d_5">
    <path d="M 167.088 39.92 
L 179.688 39.92 
" clip-path="url(#pd72c31dcd8)" style="fill: none; stroke: #000000; stroke-width: 2; stroke-linecap: round"/>
   </g>
   <g id="line2d_6">
    <path d="M 147.288 165.92 
L 148.441264 165.883017 
L 149.589789 165.77222 
L 150.728855 165.588065 
L 151.853783 165.331308 
L 152.959948 165.003003 
L 154.042806 164.604502 
L 155.097907 164.13744 
L 156.120916 163.603737 
L 157.107628 163.005586 
L 158.05399 162.345445 
L 158.956111 161.626027 
L 159.810286 160.850288 
L 160.613004 160.021416 
L 161.360967 159.142816 
L 162.051101 158.2181 
L 162.68057 157.251066 
L 163.246788 156.245689 
L 163.747427 155.2061 
L 164.180432 154.136571 
L 164.544021 153.041497 
L 164.836702 151.925377 
L 165.057272 150.792798 
L 165.204824 149.648414 
L 165.278752 148.496928 
L 165.278752 147.343072 
L 165.204824 146.191586 
L 165.057272 145.047202 
L 164.836702 143.914623 
L 164.544021 142.798503 
L 164.180432 141.703429 
L 163.747427 140.6339 
L 163.246788 139.594311 
L 162.68057 138.588934 
L 162.051101 137.6219 
L 161.360967 136.697184 
L 160.613004 135.818584 
L 159.810286 134.989712 
L 158.956111 134.213973 
L 158.05399 133.494555 
L 157.107628 132.834414 
L 156.120916 132.236263 
L 155.097907 131.70256 
L 154.042806 131.235498 
L 152.959948 130.836997 
L 151.853783 130.508692 
L 150.728855 130.251935 
L 149.589789 130.06778 
L 148.441264 129.956983 
L 147.288 129.92 
L 147.288 129.92 
L 123.888 129.92 
L 123.888 147.92 
L 123.888 165.92 
L 147.288 165.92 
" clip-path="url(#pd72c31dcd8)" style="fill: none; stroke: #000000; stroke-width: 2; stroke-linecap: round"/>
   </g>
   <g id="line2d_7">
    <path d="M 111.288 156.92 
L 123.888 156.92 
" clip-path="url(#pd72c31dcd8)" style="fill: none; stroke: #000000; stroke-width: 2; stroke-linecap: round"/>
   </g>
   <g id="line2d_8">
    <path d="M 111.288 138.92 
L 123.888 138.92 
" clip-path="url(#pd72c31dcd8)" style="fill: none; stroke: #000000; stroke-width: 2; stroke-linecap: round"/>
   </g>
   <g id="line2d_9">
    <path d="M 165.288 147.92 
L 177.888 147.92 
" clip-path="url(#pd72c31dcd8)" style="fill: none; stroke: #000000; stroke-width: 2; stroke-linecap: round"/>
   </g>
   <g id="line2d_10">
    <path d="M 39.288 30.92 
L 39.288 84.92 
L 39.288 138.92 
" clip-path="url(#pd72c31dcd8)" style="fill: none; stroke: #000000; stroke-width: 2; stroke-linecap: round"/>
   </g>
   <g id="line2d_11">
    <path d="M 39.288 30.92 
L 75.288 30.92 
L 111.288 30.92 
" clip-path="url(#pd72c31dcd8)" style="fill: none; stroke: #000000; stroke-width: 2; stroke-linecap: round"/>
   </g>
   <g id="line2d_12">
    <path d="M 39.288 138.92 
L 75.288 138.92 
L 111.288 138.92 
" clip-path="url(#pd72c31dcd8)" style="fill: none; stroke: #000000; stroke-width: 2; stroke-linecap: round"/>
   </g>
   <g id="line2d_13">
    <path d="M 39.288 30.92 
L 28.488 30.92 
L 17.688 30.92 
" clip-path="url(#pd72c31dcd8)" style="fill: none; stroke: #000000; stroke-width: 2; stroke-linecap: round"/>
   </g>
   <g id="line2d_14">
    <path d="M 68.088 48.92 
L 68.088 102.92 
L 68.088 156.92 
" clip-path="url(#pd72c31dcd8)" style="fill: none; stroke: #000000; stroke-width: 2; stroke-linecap: round"/>
   </g>
   <g id="line2d_15">
    <path d="M 68.088 48.92 
L 89.688 48.92 
L 111.288 48.92 
" clip-path="url(#pd72c31dcd8)" style="fill: none; stroke: #000000; stroke-width: 2; stroke-linecap: round"/>
   </g>
   <g id="line2d_16">
    <path d="M 68.088 156.92 
L 89.688 156.92 
L 111.288 156.92 
" clip-path="url(#pd72c31dcd8)" style="fill: none; stroke: #000000; stroke-width: 2; stroke-linecap: round"/>
   </g>
   <g id="line2d_17">
    <path d="M 68.088 156.92 
L 42.888 156.92 
L 17.688 156.92 
" clip-path="url(#pd72c31dcd8)" style="fill: none; stroke: #000000; stroke-width: 2; stroke-linecap: round"/>
   </g>
   <g id="text_1">
    <!-- G0 -->
    <g transform="translate(135.610344 15.768437) scale(0.14 -0.14)">
     <defs>
      <path id="DejaVuSans-47" d="M 3809 666 
L 3809 1919 
L 2778 1919 
L 2778 2438 
L 4434 2438 
L 4434 434 
Q 4069 175 3628 42 
Q 3188 -91 2688 -91 
Q 1594 -91 976 548 
Q 359 1188 359 2328 
Q 359 3472 976 4111 
Q 1594 4750 2688 4750 
Q 3144 4750 3555 4637 
Q 3966 4525 4313 4306 
L 4313 3634 
Q 3963 3931 3569 4081 
Q 3175 4231 2741 4231 
Q 1884 4231 1454 3753 
Q 1025 3275 1025 2328 
Q 1025 1384 1454 906 
Q 1884 428 2741 428 
Q 3075 428 3337 486 
Q 3600 544 3809 666 
z
" transform="scale(0.015625)"/>
      <path id="DejaVuSans-30" d="M 2034 4250 
Q 1547 4250 1301 3770 
Q 1056 3291 1056 2328 
Q 1056 1369 1301 889 
Q 1547 409 2034 409 
Q 2525 409 2770 889 
Q 3016 1369 3016 2328 
Q 3016 3291 2770 3770 
Q 2525 4250 2034 4250 
z
M 2034 4750 
Q 2819 4750 3233 4129 
Q 3647 3509 3647 2328 
Q 3647 1150 3233 529 
Q 2819 -91 2034 -91 
Q 1250 -91 836 529 
Q 422 1150 422 2328 
Q 422 3509 836 4129 
Q 1250 4750 2034 4750 
z
" transform="scale(0.015625)"/>
     </defs>
     <use xlink:href="#DejaVuSans-47"/>
     <use xlink:href="#DejaVuSans-30" transform="translate(77.490234 0)"/>
    </g>
   </g>
   <g id="text_2">
    <!-- S -->
    <g transform="translate(183.288 43.783125) scale(0.14 -0.14)">
     <defs>
      <path id="DejaVuSans-53" d="M 3425 4513 
L 3425 3897 
Q 3066 4069 2747 4153 
Q 2428 4238 2131 4238 
Q 1616 4238 1336 4038 
Q 1056 3838 1056 3469 
Q 1056 3159 1242 3001 
Q 1428 2844 1947 2747 
L 2328 2669 
Q 3034 2534 3370 2195 
Q 3706 1856 3706 1288 
Q 3706 609 3251 259 
Q 2797 -91 1919 -91 
Q 1588 -91 1214 -16 
Q 841 59 441 206 
L 441 856 
Q 825 641 1194 531 
Q 1563 422 1919 422 
Q 2459 422 2753 634 
Q 3047 847 3047 1241 
Q 3047 1584 2836 1778 
Q 2625 1972 2144 2069 
L 1759 2144 
Q 1053 2284 737 2584 
Q 422 2884 422 3419 
Q 422 4038 858 4394 
Q 1294 4750 2059 4750 
Q 2388 4750 2728 4690 
Q 3069 4631 3425 4513 
z
" transform="scale(0.015625)"/>
     </defs>
     <use xlink:href="#DejaVuSans-53"/>
    </g>
   </g>
   <g id="text_3">
    <!-- G1 -->
    <g transform="translate(134.710344 180.157812) scale(0.14 -0.14)">
     <defs>
      <path id="DejaVuSans-31" d="M 794 531 
L 1825 531 
L 1825 4091 
L 703 3866 
L 703 4441 
L 1819 4666 
L 2450 4666 
L 2450 531 
L 3481 531 
L 3481 0 
L 794 0 
L 794 531 
z
" transform="scale(0.015625)"/>
     </defs>
     <use xlink:href="#DejaVuSans-47"/>
     <use xlink:href="#DejaVuSans-31" transform="translate(77.490234 0)"/>
    </g>
   </g>
   <g id="text_4">
    <!-- C -->
    <g transform="translate(181.488 151.783125) scale(0.14 -0.14)">
     <defs>
      <path id="DejaVuSans-43" d="M 4122 4306 
L 4122 3641 
Q 3803 3938 3442 4084 
Q 3081 4231 2675 4231 
Q 1875 4231 1450 3742 
Q 1025 3253 1025 2328 
Q 1025 1406 1450 917 
Q 1875 428 2675 428 
Q 3081 428 3442 575 
Q 3803 722 4122 1019 
L 4122 359 
Q 3791 134 3420 21 
Q 3050 -91 2638 -91 
Q 1578 -91 968 557 
Q 359 1206 359 2328 
Q 359 3453 968 4101 
Q 1578 4750 2638 4750 
Q 3056 4750 3426 4639 
Q 3797 4528 4122 4306 
z
" transform="scale(0.015625)"/>
     </defs>
     <use xlink:href="#DejaVuSans-43"/>
    </g>
   </g>
   <g id="text_5">
    <!-- A -->
    <g transform="translate(4.511125 34.783125) scale(0.14 -0.14)">
     <defs>
      <path id="DejaVuSans-41" d="M 2188 4044 
L 1331 1722 
L 3047 1722 
L 2188 4044 
z
M 1831 4666 
L 2547 4666 
L 4325 0 
L 3669 0 
L 3244 1197 
L 1141 1197 
L 716 0 
L 50 0 
L 1831 4666 
z
" transform="scale(0.015625)"/>
     </defs>
     <use xlink:href="#DejaVuSans-41"/>
    </g>
   </g>
   <g id="text_6">
    <!-- B -->
    <g transform="translate(4.482687 160.783125) scale(0.14 -0.14)">
     <defs>
      <path id="DejaVuSans-42" d="M 1259 2228 
L 1259 519 
L 2272 519 
Q 2781 519 3026 730 
Q 3272 941 3272 1375 
Q 3272 1813 3026 2020 
Q 2781 2228 2272 2228 
L 1259 2228 
z
M 1259 4147 
L 1259 2741 
L 2194 2741 
Q 2656 2741 2882 2914 
Q 3109 3088 3109 3444 
Q 3109 3797 2882 3972 
Q 2656 4147 2194 4147 
L 1259 4147 
z
M 628 4666 
L 2241 4666 
Q 2963 4666 3353 4366 
Q 3744 4066 3744 3513 
Q 3744 3084 3544 2831 
Q 3344 2578 2956 2516 
Q 3422 2416 3680 2098 
Q 3938 1781 3938 1306 
Q 3938 681 3513 340 
Q 3088 0 2303 0 
L 628 0 
L 628 4666 
z
" transform="scale(0.015625)"/>
     </defs>
     <use xlink:href="#DejaVuSans-42"/>
    </g>
   </g>
   <g id="patch_2">
    <path d="M 39.288 33.62 
C 40.004048 33.62 40.690866 33.335511 41.197188 32.829188 
C 41.703511 32.322866 41.988 31.636048 41.988 30.92 
C 41.988 30.203952 41.703511 29.517134 41.197188 29.010812 
C 40.690866 28.504489 40.004048 28.22 39.288 28.22 
C 38.571952 28.22 37.885134 28.504489 37.378812 29.010812 
C 36.872489 29.517134 36.588 30.203952 36.588 30.92 
C 36.588 31.636048 36.872489 32.322866 37.378812 32.829188 
C 37.885134 33.335511 38.571952 33.62 39.288 33.62 
z
" clip-path="url(#pd72c31dcd8)" style="stroke: #000000; stroke-width: 2; stroke-linejoin: miter"/>
   </g>
   <g id="patch_3">
    <path d="M 39.288 141.62 
C 40.004048 141.62 40.690866 141.335511 41.197188 140.829188 
C 41.703511 140.322866 41.988 139.636048 41.988 138.92 
C 41.988 138.203952 41.703511 137.517134 41.197188 137.010812 
C 40.690866 136.504489 40.004048 136.22 39.288 136.22 
C 38.571952 136.22 37.885134 136.504489 37.378812 137.010812 
C 36.872489 137.517134 36.588 138.203952 36.588 138.92 
C 36.588 139.636048 36.872489 140.322866 37.378812 140.829188 
C 37.885134 141.335511 38.571952 141.62 39.288 141.62 
z
" clip-path="url(#pd72c31dcd8)" style="stroke: #000000; stroke-width: 2; stroke-linejoin: miter"/>
   </g>
   <g id="patch_4">
    <path d="M 68.088 51.62 
C 68.804048 51.62 69.490866 51.335511 69.997188 50.829188 
C 70.503511 50.322866 70.788 49.636048 70.788 48.92 
C 70.788 48.203952 70.503511 47.517134 69.997188 47.010812 
C 69.490866 46.504489 68.804048 46.22 68.088 46.22 
C 67.371952 46.22 66.685134 46.504489 66.178812 47.010812 
C 65.672489 47.517134 65.388 48.203952 65.388 48.92 
C 65.388 49.636048 65.672489 50.322866 66.178812 50.829188 
C 66.685134 51.335511 67.371952 51.62 68.088 51.62 
z
" clip-path="url(#pd72c31dcd8)" style="stroke: #000000; stroke-width: 2; stroke-linejoin: miter"/>
   </g>
   <g id="patch_5">
    <path d="M 68.088 159.62 
C 68.804048 159.62 69.490866 159.335511 69.997188 158.829188 
C 70.503511 158.322866 70.788 157.636048 70.788 156.92 
C 70.788 156.203952 70.503511 155.517134 69.997188 155.010812 
C 69.490866 154.504489 68.804048 154.22 68.088 154.22 
C 67.371952 154.22 66.685134 154.504489 66.178812 155.010812 
C 65.672489 155.517134 65.388 156.203952 65.388 156.92 
C 65.388 157.636048 65.672489 158.322866 66.178812 158.829188 
C 66.685134 159.335511 67.371952 159.62 68.088 159.62 
z
" clip-path="url(#pd72c31dcd8)" style="stroke: #000000; stroke-width: 2; stroke-linejoin: miter"/>
   </g>
  </g>
 </g>
 <defs>
  <clipPath id="pd72c31dcd8">
   <rect x="0" y="-0" width="197.376" height="188.2"/>
  </clipPath>
 </defs>
</svg>
