<?xml version="1.0" encoding="utf-8" standalone="no"?>
<!DOCTYPE svg PUBLIC "-//W3C//DTD SVG 1.1//EN"
  "http://www.w3.org/Graphics/SVG/1.1/DTD/svg11.dtd">
<svg xmlns:xlink="http://www.w3.org/1999/xlink" width="491.232pt" height="301.76pt" viewBox="0 0 491.232 301.76" xmlns="http://www.w3.org/2000/svg" version="1.1">
 <metadata>
  <rdf:RDF xmlns:dc="http://purl.org/dc/elements/1.1/" xmlns:cc="http://creativecommons.org/ns#" xmlns:rdf="http://www.w3.org/1999/02/22-rdf-syntax-ns#">
   <cc:Work>
    <dc:type rdf:resource="http://purl.org/dc/dcmitype/StillImage"/>
    <dc:date>2026-06-15T16:37:16.231855</dc:date>
    <dc:format>image/svg+xml</dc:format>
    <dc:creator>
     <cc:Agent>
      <dc:title>Matplotlib v3.10.8, https://matplotlib.org/</dc:title>
     </cc:Agent>
    </dc:creator>
   </cc:Work>
  </rdf:RDF>
 </metadata>
 <defs>
  <style type="text/css">*{stroke-linejoin: round; stroke-linecap: butt}</style>
 </defs>
 <g id="figure_1">
  <g id="patch_1">
   <path d="M 0 301.76 
L 491.232 301.76 
L 491.232 0 
L 0 0 
z
" style="fill: #ffffff"/>
  </g>
  <g id="axes_1">
   <g id="patch_2">
    <path d="M 145.536 266.8 
C 146.681677 266.8 147.780585 266.344818 148.590701 265.534701 
C 149.400818 264.724585 149.856 263.625677 149.856 262.48 
C 149.856 261.334323 149.400818 260.235415 148.590701 259.425299 
C 147.780585 258.615182 146.681677 258.16 145.536 258.16 
C 144.390323 258.16 143.291415 258.615182 142.481299 259.425299 
C 141.671182 260.235415 141.216 261.334323 141.216 262.48 
C 141.216 263.625677 141.671182 264.724585 142.481299 265.534701 
C 143.291415 266.344818 144.390323 266.8 145.536 266.8 
L 145.536 266.8 
z
" clip-path="url(#p7921900533)" style="fill: none; stroke: #000000; stroke-width: 2; stroke-linejoin: miter"/>
   </g>
   <g id="line2d_1">
    <path d="M 254.616 57.28 
L 255.769264 57.243017 
L 256.917789 57.13222 
L 258.056855 56.948065 
L 259.181783 56.691308 
L 260.287948 56.363003 
L 261.370806 55.964502 
L 262.425907 55.49744 
L 263.448916 54.963737 
L 264.435628 54.365586 
L 265.38199 53.705445 
L 266.284111 52.986027 
L 267.138286 52.210288 
L 267.941004 51.381416 
L 268.688967 50.502816 
L 269.379101 49.5781 
L 270.00857 48.611066 
L 270.574788 47.605689 
L 271.075427 46.5661 
L 271.508432 45.496571 
L 271.872021 44.401497 
L 272.164702 43.285377 
L 272.385272 42.152798 
L 272.532824 41.008414 
L 272.606752 39.856928 
L 272.606752 38.703072 
L 272.532824 37.551586 
L 272.385272 36.407202 
L 272.164702 35.274623 
L 271.872021 34.158503 
L 271.508432 33.063429 
L 271.075427 31.9939 
L 270.574788 30.954311 
L 270.00857 29.948934 
L 269.379101 28.9819 
L 268.688967 28.057184 
L 267.941004 27.178584 
L 267.138286 26.349712 
L 266.284111 25.573973 
L 265.38199 24.854555 
L 264.435628 24.194414 
L 263.448916 23.596263 
L 262.425907 23.06256 
L 261.370806 22.595498 
L 260.287948 22.196997 
L 259.181783 21.868692 
L 258.056855 21.611935 
L 256.917789 21.42778 
L 255.769264 21.316983 
L 254.616 21.28 
L 254.616 21.28 
L 231.216 21.28 
L 231.216 39.28 
L 231.216 57.28 
L 254.616 57.28 
" clip-path="url(#p7921900533)" style="fill: none; stroke: #000000; stroke-width: 2; stroke-linecap: round"/>
   </g>
   <g id="line2d_2">
    <path d="M 218.616 48.28 
L 231.216 48.28 
" clip-path="url(#p7921900533)" style="fill: none; stroke: #000000; stroke-width: 2; stroke-linecap: round"/>
   </g>
   <g id="line2d_3">
    <path d="M 218.616 30.28 
L 231.216 30.28 
" clip-path="url(#p7921900533)" style="fill: none; stroke: #000000; stroke-width: 2; stroke-linecap: round"/>
   </g>
   <g id="line2d_4">
    <path d="M 272.616 39.28 
L 285.216 39.28 
" clip-path="url(#p7921900533)" style="fill: none; stroke: #000000; stroke-width: 2; stroke-linecap: round"/>
   </g>
   <g id="line2d_5">
    <path d="M 254.616 186.88 
L 255.769264 186.843017 
L 256.917789 186.73222 
L 258.056855 186.548065 
L 259.181783 186.291308 
L 260.287948 185.963003 
L 261.370806 185.564502 
L 262.425907 185.09744 
L 263.448916 184.563737 
L 264.435628 183.965586 
L 265.38199 183.305445 
L 266.284111 182.586027 
L 267.138286 181.810288 
L 267.941004 180.981416 
L 268.688967 180.102816 
L 269.379101 179.1781 
L 270.00857 178.211066 
L 270.574788 177.205689 
L 271.075427 176.1661 
L 271.508432 175.096571 
L 271.872021 174.001497 
L 272.164702 172.885377 
L 272.385272 171.752798 
L 272.532824 170.608414 
L 272.606752 169.456928 
L 272.606752 168.303072 
L 272.532824 167.151586 
L 272.385272 166.007202 
L 272.164702 164.874623 
L 271.872021 163.758503 
L 271.508432 162.663429 
L 271.075427 161.5939 
L 270.574788 160.554311 
L 270.00857 159.548934 
L 269.379101 158.5819 
L 268.688967 157.657184 
L 267.941004 156.778584 
L 267.138286 155.949712 
L 266.284111 155.173973 
L 265.38199 154.454555 
L 264.435628 153.794414 
L 263.448916 153.196263 
L 262.425907 152.66256 
L 261.370806 152.195498 
L 260.287948 151.796997 
L 259.181783 151.468692 
L 258.056855 151.211935 
L 256.917789 151.02778 
L 255.769264 150.916983 
L 254.616 150.88 
L 254.616 150.88 
L 231.216 150.88 
L 231.216 168.88 
L 231.216 186.88 
L 254.616 186.88 
" clip-path="url(#p7921900533)" style="fill: none; stroke: #000000; stroke-width: 2; stroke-linecap: round"/>
   </g>
   <g id="line2d_6">
    <path d="M 218.616 177.88 
L 231.216 177.88 
" clip-path="url(#p7921900533)" style="fill: none; stroke: #000000; stroke-width: 2; stroke-linecap: round"/>
   </g>
   <g id="line2d_7">
    <path d="M 218.616 159.88 
L 231.216 159.88 
" clip-path="url(#p7921900533)" style="fill: none; stroke: #000000; stroke-width: 2; stroke-linecap: round"/>
   </g>
   <g id="line2d_8">
    <path d="M 272.616 168.88 
L 285.216 168.88 
" clip-path="url(#p7921900533)" style="fill: none; stroke: #000000; stroke-width: 2; stroke-linecap: round"/>
   </g>
   <g id="line2d_9">
    <path d="M 382.416 121.72 
L 401.958857 121.653878 
L 404.016 121.36 
L 406.073143 120.83102 
L 408.130286 120.066939 
L 410.187429 119.067755 
L 412.244571 117.833469 
L 414.301714 116.364082 
L 416.358857 114.659592 
L 418.930286 112.198367 
L 421.501714 109.369796 
L 424.073143 106.173878 
L 425.616 104.08 
L 425.616 104.08 
L 423.044571 100.663673 
L 420.473143 97.614694 
L 417.901714 94.933061 
L 415.330286 92.618776 
L 413.273143 91.031837 
L 411.216 89.68 
L 409.158857 88.563265 
L 407.101714 87.681633 
L 405.044571 87.035102 
L 402.987429 86.623673 
L 400.930286 86.447347 
L 400.416 86.44 
L 382.416 86.44 
L 382.416 86.44 
L 384.4032 88.6 
L 386.1312 90.76 
L 387.6 92.92 
L 388.8096 95.08 
L 389.76 97.24 
L 390.4512 99.4 
L 390.8832 101.56 
L 391.056 103.72 
L 390.9696 105.88 
L 390.624 108.04 
L 390.0192 110.2 
L 389.1552 112.36 
L 388.032 114.52 
L 386.6496 116.68 
L 385.008 118.84 
L 383.1072 121 
L 382.416 121.72 
L 382.416 121.72 
" clip-path="url(#p7921900533)" style="fill: none; stroke: #000000; stroke-width: 2; stroke-linecap: round"/>
   </g>
   <g id="line2d_10">
    <path d="M 369.816 113.08 
L 388.8096 113.08 
" clip-path="url(#p7921900533)" style="fill: none; stroke: #000000; stroke-width: 2; stroke-linecap: round"/>
   </g>
   <g id="line2d_11">
    <path d="M 369.816 95.08 
L 388.8096 95.08 
" clip-path="url(#p7921900533)" style="fill: none; stroke: #000000; stroke-width: 2; stroke-linecap: round"/>
   </g>
   <g id="line2d_12">
    <path d="M 425.616 104.08 
L 438.216 104.08 
" clip-path="url(#p7921900533)" style="fill: none; stroke: #000000; stroke-width: 2; stroke-linecap: round"/>
   </g>
   <g id="line2d_13">
    <path d="M 117.816 262.48 
M 149.856 262.48 
" clip-path="url(#p7921900533)" style="fill: none; stroke: #000000; stroke-width: 2; stroke-linecap: round"/>
   </g>
   <g id="line2d_14">
    <path d="M 117.816 244.48 
L 141.216 262.48 
L 117.816 280.48 
L 117.816 244.48 
" clip-path="url(#p7921900533)" style="fill: none; stroke: #000000; stroke-width: 2; stroke-linecap: round"/>
   </g>
   <g id="line2d_15">
    <path d="M 218.616 30.28 
L 128.616 30.28 
L 38.616 30.28 
" clip-path="url(#p7921900533)" style="fill: none; stroke: #000000; stroke-width: 2; stroke-linecap: round"/>
   </g>
   <g id="line2d_16">
    <path d="M 218.616 159.88 
L 128.616 159.88 
L 38.616 159.88 
" clip-path="url(#p7921900533)" style="fill: none; stroke: #000000; stroke-width: 2; stroke-linecap: round"/>
   </g>
   <g id="line2d_17">
    <path d="M 218.616 48.28 
L 146.616 48.28 
L 74.616 48.28 
" clip-path="url(#p7921900533)" style="fill: none; stroke: #000000; stroke-width: 2; stroke-linecap: round"/>
   </g>
   <g id="line2d_18">
    <path d="M 117.816 262.48 
L 96.216 262.48 
L 74.616 262.48 
" clip-path="url(#p7921900533)" style="fill: none; stroke: #000000; stroke-width: 2; stroke-linecap: round"/>
   </g>
   <g id="line2d_19">
    <path d="M 74.616 48.28 
L 74.616 155.38 
L 74.616 262.48 
" clip-path="url(#p7921900533)" style="fill: none; stroke: #000000; stroke-width: 2; stroke-linecap: round"/>
   </g>
   <g id="line2d_20">
    <path d="M 74.616 262.48 
L 45.816 262.48 
L 17.016 262.48 
" clip-path="url(#p7921900533)" style="fill: none; stroke: #000000; stroke-width: 2; stroke-linecap: round"/>
   </g>
   <g id="line2d_21">
    <path d="M 149.856 262.48 
L 155.436 262.48 
L 161.016 262.48 
" clip-path="url(#p7921900533)" style="fill: none; stroke: #000000; stroke-width: 2; stroke-linecap: round"/>
   </g>
   <g id="line2d_22">
    <path d="M 161.016 262.48 
L 161.016 220.18 
L 161.016 177.88 
" clip-path="url(#p7921900533)" style="fill: none; stroke: #000000; stroke-width: 2; stroke-linecap: round"/>
   </g>
   <g id="line2d_23">
    <path d="M 161.016 177.88 
L 189.816 177.88 
L 218.616 177.88 
" clip-path="url(#p7921900533)" style="fill: none; stroke: #000000; stroke-width: 2; stroke-linecap: round"/>
   </g>
   <g id="line2d_24">
    <path d="M 285.216 39.28 
L 309.516 39.28 
L 333.816 39.28 
" clip-path="url(#p7921900533)" style="fill: none; stroke: #000000; stroke-width: 2; stroke-linecap: round"/>
   </g>
   <g id="line2d_25">
    <path d="M 333.816 39.28 
L 333.816 67.18 
L 333.816 95.08 
" clip-path="url(#p7921900533)" style="fill: none; stroke: #000000; stroke-width: 2; stroke-linecap: round"/>
   </g>
   <g id="line2d_26">
    <path d="M 333.816 95.08 
L 351.816 95.08 
L 369.816 95.08 
" clip-path="url(#p7921900533)" style="fill: none; stroke: #000000; stroke-width: 2; stroke-linecap: round"/>
   </g>
   <g id="line2d_27">
    <path d="M 285.216 168.88 
L 309.516 168.88 
L 333.816 168.88 
" clip-path="url(#p7921900533)" style="fill: none; stroke: #000000; stroke-width: 2; stroke-linecap: round"/>
   </g>
   <g id="line2d_28">
    <path d="M 333.816 168.88 
L 333.816 140.98 
L 333.816 113.08 
" clip-path="url(#p7921900533)" style="fill: none; stroke: #000000; stroke-width: 2; stroke-linecap: round"/>
   </g>
   <g id="line2d_29">
    <path d="M 333.816 113.08 
L 351.816 113.08 
L 369.816 113.08 
" clip-path="url(#p7921900533)" style="fill: none; stroke: #000000; stroke-width: 2; stroke-linecap: round"/>
   </g>
   <g id="line2d_30">
    <path d="M 438.216 104.08 
L 456.216 104.08 
L 474.216 104.08 
" clip-path="url(#p7921900533)" style="fill: none; stroke: #000000; stroke-width: 2; stroke-linecap: round"/>
   </g>
   <g id="text_1">
    <!-- G1 -->
    <g transform="translate(242.743891 14.976406) scale(0.13 -0.13)">
     <defs>
      <path id="DejaVuSans-47" d="M 3809 666 
L 3809 1919 
L 2778 1919 
L 2778 2438 
L 4434 2438 
L 4434 434 
Q 4069 175 3628 42 
Q 3188 -91 2688 -91 
Q 1594 -91 976 548 
Q 359 1188 359 2328 
Q 359 3472 976 4111 
Q 1594 4750 2688 4750 
Q 3144 4750 3555 4637 
Q 3966 4525 4313 4306 
L 4313 3634 
Q 3963 3931 3569 4081 
Q 3175 4231 2741 4231 
Q 1884 4231 1454 3753 
Q 1025 3275 1025 2328 
Q 1025 1384 1454 906 
Q 1884 428 2741 428 
Q 3075 428 3337 486 
Q 3600 544 3809 666 
z
" transform="scale(0.015625)"/>
      <path id="DejaVuSans-31" d="M 794 531 
L 1825 531 
L 1825 4091 
L 703 3866 
L 703 4441 
L 1819 4666 
L 2450 4666 
L 2450 531 
L 3481 531 
L 3481 0 
L 794 0 
L 794 531 
z
" transform="scale(0.015625)"/>
     </defs>
     <use xlink:href="#DejaVuSans-47"/>
     <use xlink:href="#DejaVuSans-31" transform="translate(77.490234 0)"/>
    </g>
   </g>
   <g id="text_2">
    <!-- G2 -->
    <g transform="translate(242.743891 200.357969) scale(0.13 -0.13)">
     <defs>
      <path id="DejaVuSans-32" d="M 1228 531 
L 3431 531 
L 3431 0 
L 469 0 
L 469 531 
Q 828 903 1448 1529 
Q 2069 2156 2228 2338 
Q 2531 2678 2651 2914 
Q 2772 3150 2772 3378 
Q 2772 3750 2511 3984 
Q 2250 4219 1831 4219 
Q 1534 4219 1204 4116 
Q 875 4013 500 3803 
L 500 4441 
Q 881 4594 1212 4672 
Q 1544 4750 1819 4750 
Q 2544 4750 2975 4387 
Q 3406 4025 3406 3419 
Q 3406 3131 3298 2873 
Q 3191 2616 2906 2266 
Q 2828 2175 2409 1742 
Q 1991 1309 1228 531 
z
" transform="scale(0.015625)"/>
     </defs>
     <use xlink:href="#DejaVuSans-47"/>
     <use xlink:href="#DejaVuSans-32" transform="translate(77.490234 0)"/>
    </g>
   </g>
   <g id="text_3">
    <!-- G4 -->
    <g transform="translate(394.843891 80.136406) scale(0.13 -0.13)">
     <defs>
      <path id="DejaVuSans-34" d="M 2419 4116 
L 825 1625 
L 2419 1625 
L 2419 4116 
z
M 2253 4666 
L 3047 4666 
L 3047 1625 
L 3713 1625 
L 3713 1100 
L 3047 1100 
L 3047 0 
L 2419 0 
L 2419 1100 
L 313 1100 
L 313 1709 
L 2253 4666 
z
" transform="scale(0.015625)"/>
     </defs>
     <use xlink:href="#DejaVuSans-47"/>
     <use xlink:href="#DejaVuSans-34" transform="translate(77.490234 0)"/>
    </g>
   </g>
   <g id="text_4">
    <!-- G3 -->
    <g transform="translate(124.663891 293.957969) scale(0.13 -0.13)">
     <defs>
      <path id="DejaVuSans-33" d="M 2597 2516 
Q 3050 2419 3304 2112 
Q 3559 1806 3559 1356 
Q 3559 666 3084 287 
Q 2609 -91 1734 -91 
Q 1441 -91 1130 -33 
Q 819 25 488 141 
L 488 750 
Q 750 597 1062 519 
Q 1375 441 1716 441 
Q 2309 441 2620 675 
Q 2931 909 2931 1356 
Q 2931 1769 2642 2001 
Q 2353 2234 1838 2234 
L 1294 2234 
L 1294 2753 
L 1863 2753 
Q 2328 2753 2575 2939 
Q 2822 3125 2822 3475 
Q 2822 3834 2567 4026 
Q 2313 4219 1838 4219 
Q 1578 4219 1281 4162 
Q 984 4106 628 3988 
L 628 4550 
Q 988 4650 1302 4700 
Q 1616 4750 1894 4750 
Q 2613 4750 3031 4423 
Q 3450 4097 3450 3541 
Q 3450 3153 3228 2886 
Q 3006 2619 2597 2516 
z
" transform="scale(0.015625)"/>
     </defs>
     <use xlink:href="#DejaVuSans-47"/>
     <use xlink:href="#DejaVuSans-33" transform="translate(77.490234 0)"/>
    </g>
   </g>
   <g id="text_5">
    <!-- A -->
    <g transform="translate(26.123188 33.867188) scale(0.13 -0.13)">
     <defs>
      <path id="DejaVuSans-41" d="M 2188 4044 
L 1331 1722 
L 3047 1722 
L 2188 4044 
z
M 1831 4666 
L 2547 4666 
L 4325 0 
L 3669 0 
L 3244 1197 
L 1141 1197 
L 716 0 
L 50 0 
L 1831 4666 
z
" transform="scale(0.015625)"/>
     </defs>
     <use xlink:href="#DejaVuSans-41"/>
    </g>
   </g>
   <g id="text_6">
    <!-- B -->
    <g transform="translate(26.096781 163.467187) scale(0.13 -0.13)">
     <defs>
      <path id="DejaVuSans-42" d="M 1259 2228 
L 1259 519 
L 2272 519 
Q 2781 519 3026 730 
Q 3272 941 3272 1375 
Q 3272 1813 3026 2020 
Q 2781 2228 2272 2228 
L 1259 2228 
z
M 1259 4147 
L 1259 2741 
L 2194 2741 
Q 2656 2741 2882 2914 
Q 3109 3088 3109 3444 
Q 3109 3797 2882 3972 
Q 2656 4147 2194 4147 
L 1259 4147 
z
M 628 4666 
L 2241 4666 
Q 2963 4666 3353 4366 
Q 3744 4066 3744 3513 
Q 3744 3084 3544 2831 
Q 3344 2578 2956 2516 
Q 3422 2416 3680 2098 
Q 3938 1781 3938 1306 
Q 3938 681 3513 340 
Q 3088 0 2303 0 
L 628 0 
L 628 4666 
z
" transform="scale(0.015625)"/>
     </defs>
     <use xlink:href="#DejaVuSans-42"/>
    </g>
   </g>
   <g id="text_7">
    <!-- S -->
    <g transform="translate(5.163031 266.067187) scale(0.13 -0.13)">
     <defs>
      <path id="DejaVuSans-53" d="M 3425 4513 
L 3425 3897 
Q 3066 4069 2747 4153 
Q 2428 4238 2131 4238 
Q 1616 4238 1336 4038 
Q 1056 3838 1056 3469 
Q 1056 3159 1242 3001 
Q 1428 2844 1947 2747 
L 2328 2669 
Q 3034 2534 3370 2195 
Q 3706 1856 3706 1288 
Q 3706 609 3251 259 
Q 2797 -91 1919 -91 
Q 1588 -91 1214 -16 
Q 841 59 441 206 
L 441 856 
Q 825 641 1194 531 
Q 1563 422 1919 422 
Q 2459 422 2753 634 
Q 3047 847 3047 1241 
Q 3047 1584 2836 1778 
Q 2625 1972 2144 2069 
L 1759 2144 
Q 1053 2284 737 2584 
Q 422 2884 422 3419 
Q 422 4038 858 4394 
Q 1294 4750 2059 4750 
Q 2388 4750 2728 4690 
Q 3069 4631 3425 4513 
z
" transform="scale(0.015625)"/>
     </defs>
     <use xlink:href="#DejaVuSans-53"/>
    </g>
   </g>
   <g id="text_8">
    <!-- W1 -->
    <g transform="translate(164.616 266.067187) scale(0.13 -0.13)">
     <defs>
      <path id="DejaVuSans-57" d="M 213 4666 
L 850 4666 
L 1831 722 
L 2809 4666 
L 3519 4666 
L 4500 722 
L 5478 4666 
L 6119 4666 
L 4947 0 
L 4153 0 
L 3169 4050 
L 2175 0 
L 1381 0 
L 213 4666 
z
" transform="scale(0.015625)"/>
     </defs>
     <use xlink:href="#DejaVuSans-57"/>
     <use xlink:href="#DejaVuSans-31" transform="translate(98.876953 0)"/>
    </g>
   </g>
   <g id="text_9">
    <!-- Y -->
    <g transform="translate(477.816 107.667187) scale(0.13 -0.13)">
     <defs>
      <path id="DejaVuSans-59" d="M -13 4666 
L 666 4666 
L 1959 2747 
L 3244 4666 
L 3922 4666 
L 2272 2222 
L 2272 0 
L 1638 0 
L 1638 2222 
L -13 4666 
z
" transform="scale(0.015625)"/>
     </defs>
     <use xlink:href="#DejaVuSans-59"/>
    </g>
   </g>
   <g id="patch_3">
    <path d="M 74.616 265.18 
C 75.332048 265.18 76.018866 264.895511 76.525188 264.389188 
C 77.031511 263.882866 77.316 263.196048 77.316 262.48 
C 77.316 261.763952 77.031511 261.077134 76.525188 260.570812 
C 76.018866 260.064489 75.332048 259.78 74.616 259.78 
C 73.899952 259.78 73.213134 260.064489 72.706812 260.570812 
C 72.200489 261.077134 71.916 261.763952 71.916 262.48 
C 71.916 263.196048 72.200489 263.882866 72.706812 264.389188 
C 73.213134 264.895511 73.899952 265.18 74.616 265.18 
z
" clip-path="url(#p7921900533)" style="stroke: #000000; stroke-width: 2; stroke-linejoin: miter"/>
   </g>
  </g>
 </g>
 <defs>
  <clipPath id="p7921900533">
   <rect x="0" y="0" width="491.232" height="301.76"/>
  </clipPath>
 </defs>
</svg>
