<?xml version="1.0" encoding="utf-8" standalone="no"?>
<!DOCTYPE svg PUBLIC "-//W3C//DTD SVG 1.1//EN"
  "http://www.w3.org/Graphics/SVG/1.1/DTD/svg11.dtd">
<svg xmlns:xlink="http://www.w3.org/1999/xlink" width="504.136719pt" height="269.16pt" viewBox="0 0 504.136719 269.16" xmlns="http://www.w3.org/2000/svg" version="1.1">
 <metadata>
  <rdf:RDF xmlns:dc="http://purl.org/dc/elements/1.1/" xmlns:cc="http://creativecommons.org/ns#" xmlns:rdf="http://www.w3.org/1999/02/22-rdf-syntax-ns#">
   <cc:Work>
    <dc:type rdf:resource="http://purl.org/dc/dcmitype/StillImage"/>
    <dc:date>2026-06-15T12:01:10.235662</dc:date>
    <dc:format>image/svg+xml</dc:format>
    <dc:creator>
     <cc:Agent>
      <dc:title>Matplotlib v3.10.8, https://matplotlib.org/</dc:title>
     </cc:Agent>
    </dc:creator>
   </cc:Work>
  </rdf:RDF>
 </metadata>
 <defs>
  <style type="text/css">*{stroke-linejoin: round; stroke-linecap: butt}</style>
 </defs>
 <g id="figure_1">
  <g id="patch_1">
   <path d="M 0 269.16 
L 504.136719 269.16 
L 504.136719 0 
L 0 0 
z
" style="fill: #ffffff"/>
  </g>
  <g id="axes_1">
   <g id="patch_2">
    <path d="M 337.7125 264.48 
L 337.883852 264.478641 
L 338.055162 264.474563 
L 338.226385 264.467767 
L 338.397478 264.458256 
L 338.5684 264.446032 
L 338.739105 264.431097 
L 338.909553 264.413455 
L 339.079698 264.393112 
L 339.2495 264.370072 
L 339.418915 264.34434 
L 339.5879 264.315924 
L 339.756413 264.28483 
L 339.924412 264.251066 
L 340.091854 264.214642 
L 340.258697 264.175565 
L 340.424898 264.133846 
L 340.590417 264.089495 
L 340.755212 264.042524 
L 340.91924 263.992944 
L 341.082461 263.940768 
L 341.244834 263.886009 
L 341.406318 263.82868 
L 341.566871 263.768797 
L 341.726455 263.706374 
L 341.885027 263.641426 
L 342.04255 263.573971 
L 342.198982 263.504026 
L 342.354285 263.431607 
L 342.508419 263.356733 
L 342.661346 263.279423 
L 342.813028 263.199696 
L 342.963425 263.117573 
L 343.1125 263.033074 
L 343.260216 262.946221 
L 343.406535 262.857035 
L 343.551421 262.765538 
L 343.694837 262.671754 
L 343.836747 262.575707 
L 343.977115 262.47742 
L 344.115906 262.376919 
L 344.253085 262.274228 
L 344.388617 262.169373 
L 344.522469 262.062382 
L 344.654606 261.95328 
L 344.784996 261.842095 
L 344.913605 261.728856 
L 345.040402 261.61359 
L 345.165353 261.496328 
L 345.288429 261.377097 
L 345.409597 261.255929 
L 345.528828 261.132853 
L 345.64609 261.007902 
L 345.761356 260.881105 
L 345.874595 260.752496 
L 345.98578 260.622106 
L 346.094882 260.489969 
L 346.201873 260.356117 
L 346.306728 260.220585 
L 346.409419 260.083406 
L 346.50992 259.944615 
L 346.608207 259.804247 
L 346.704254 259.662337 
L 346.798038 259.518921 
L 346.889535 259.374035 
L 346.978721 259.227716 
L 347.065574 259.08 
L 347.150073 258.930925 
L 347.232196 258.780528 
L 347.311923 258.628846 
L 347.389233 258.475919 
L 347.464107 258.321785 
L 347.536526 258.166482 
L 347.606471 258.01005 
L 347.673926 257.852527 
L 347.738874 257.693955 
L 347.801297 257.534371 
L 347.86118 257.373818 
L 347.918509 257.212334 
L 347.973268 257.049961 
L 348.025444 256.88674 
L 348.075024 256.722712 
L 348.121995 256.557917 
L 348.166346 256.392398 
L 348.208065 256.226197 
L 348.247142 256.059354 
L 348.283566 255.891912 
L 348.31733 255.723913 
L 348.348424 255.5554 
L 348.37684 255.386415 
L 348.402572 255.217 
L 348.425612 255.047198 
L 348.445955 254.877053 
L 348.463597 254.706605 
L 348.478532 254.5359 
L 348.490756 254.364978 
L 348.500267 254.193885 
L 348.507063 254.022662 
L 348.511141 253.851352 
L 348.5125 253.68 
L 348.5125 30.48 
L 348.511141 30.308648 
L 348.507063 30.137338 
L 348.500267 29.966115 
L 348.490756 29.795022 
L 348.478532 29.6241 
L 348.463597 29.453395 
L 348.445955 29.282947 
L 348.425612 29.112802 
L 348.402572 28.943 
L 348.37684 28.773585 
L 348.348424 28.6046 
L 348.31733 28.436087 
L 348.283566 28.268088 
L 348.247142 28.100646 
L 348.208065 27.933803 
L 348.166346 27.767602 
L 348.121995 27.602083 
L 348.075024 27.437288 
L 348.025444 27.27326 
L 347.973268 27.110039 
L 347.918509 26.947666 
L 347.86118 26.786182 
L 347.801297 26.625629 
L 347.738874 26.466045 
L 347.673926 26.307473 
L 347.606471 26.14995 
L 347.536526 25.993518 
L 347.464107 25.838215 
L 347.389233 25.684081 
L 347.311923 25.531154 
L 347.232196 25.379472 
L 347.150073 25.229075 
L 347.065574 25.08 
L 346.978721 24.932284 
L 346.889535 24.785965 
L 346.798038 24.641079 
L 346.704254 24.497663 
L 346.608207 24.355753 
L 346.50992 24.215385 
L 346.409419 24.076594 
L 346.306728 23.939415 
L 346.201873 23.803883 
L 346.094882 23.670031 
L 345.98578 23.537894 
L 345.874595 23.407504 
L 345.761356 23.278895 
L 345.64609 23.152098 
L 345.528828 23.027147 
L 345.409597 22.904071 
L 345.288429 22.782903 
L 345.165353 22.663672 
L 345.040402 22.54641 
L 344.913605 22.431144 
L 344.784996 22.317905 
L 344.654606 22.20672 
L 344.522469 22.097618 
L 344.388617 21.990627 
L 344.253085 21.885772 
L 344.115906 21.783081 
L 343.977115 21.68258 
L 343.836747 21.584293 
L 343.694837 21.488246 
L 343.551421 21.394462 
L 343.406535 21.302965 
L 343.260216 21.213779 
L 343.1125 21.126926 
L 342.963425 21.042427 
L 342.813028 20.960304 
L 342.661346 20.880577 
L 342.508419 20.803267 
L 342.354285 20.728393 
L 342.198982 20.655974 
L 342.04255 20.586029 
L 341.885027 20.518574 
L 341.726455 20.453626 
L 341.566871 20.391203 
L 341.406318 20.33132 
L 341.244834 20.273991 
L 341.082461 20.219232 
L 340.91924 20.167056 
L 340.755212 20.117476 
L 340.590417 20.070505 
L 340.424898 20.026154 
L 340.258697 19.984435 
L 340.091854 19.945358 
L 339.924412 19.908934 
L 339.756413 19.87517 
L 339.5879 19.844076 
L 339.418915 19.81566 
L 339.2495 19.789928 
L 339.079698 19.766888 
L 338.909553 19.746545 
L 338.739105 19.728903 
L 338.5684 19.713968 
L 338.397478 19.701744 
L 338.226385 19.692233 
L 338.055162 19.685437 
L 337.883852 19.681359 
L 337.7125 19.68 
L 179.3125 19.68 
L 179.141148 19.681359 
L 178.969838 19.685437 
L 178.798615 19.692233 
L 178.627522 19.701744 
L 178.4566 19.713968 
L 178.285895 19.728903 
L 178.115447 19.746545 
L 177.945302 19.766888 
L 177.7755 19.789928 
L 177.606085 19.81566 
L 177.4371 19.844076 
L 177.268587 19.87517 
L 177.100588 19.908934 
L 176.933146 19.945358 
L 176.766303 19.984435 
L 176.600102 20.026154 
L 176.434583 20.070505 
L 176.269788 20.117476 
L 176.10576 20.167056 
L 175.942539 20.219232 
L 175.780166 20.273991 
L 175.618682 20.33132 
L 175.458129 20.391203 
L 175.298545 20.453626 
L 175.139973 20.518574 
L 174.98245 20.586029 
L 174.826018 20.655974 
L 174.670715 20.728393 
L 174.516581 20.803267 
L 174.363654 20.880577 
L 174.211972 20.960304 
L 174.061575 21.042427 
L 173.9125 21.126926 
L 173.764784 21.213779 
L 173.618465 21.302965 
L 173.473579 21.394462 
L 173.330163 21.488246 
L 173.188253 21.584293 
L 173.047885 21.68258 
L 172.909094 21.783081 
L 172.771915 21.885772 
L 172.636383 21.990627 
L 172.502531 22.097618 
L 172.370394 22.20672 
L 172.240004 22.317905 
L 172.111395 22.431144 
L 171.984598 22.54641 
L 171.859647 22.663672 
L 171.736571 22.782903 
L 171.615403 22.904071 
L 171.496172 23.027147 
L 171.37891 23.152098 
L 171.263644 23.278895 
L 171.150405 23.407504 
L 171.03922 23.537894 
L 170.930118 23.670031 
L 170.823127 23.803883 
L 170.718272 23.939415 
L 170.615581 24.076594 
L 170.51508 24.215385 
L 170.416793 24.355753 
L 170.320746 24.497663 
L 170.226962 24.641079 
L 170.135465 24.785965 
L 170.046279 24.932284 
L 169.959426 25.08 
L 169.874927 25.229075 
L 169.792804 25.379472 
L 169.713077 25.531154 
L 169.635767 25.684081 
L 169.560893 25.838215 
L 169.488474 25.993518 
L 169.418529 26.14995 
L 169.351074 26.307473 
L 169.286126 26.466045 
L 169.223703 26.625629 
L 169.16382 26.786182 
L 169.106491 26.947666 
L 169.051732 27.110039 
L 168.999556 27.27326 
L 168.949976 27.437288 
L 168.903005 27.602083 
L 168.858654 27.767602 
L 168.816935 27.933803 
L 168.777858 28.100646 
L 168.741434 28.268088 
L 168.70767 28.436087 
L 168.676576 28.6046 
L 168.64816 28.773585 
L 168.622428 28.943 
L 168.599388 29.112802 
L 168.579045 29.282947 
L 168.561403 29.453395 
L 168.546468 29.6241 
L 168.534244 29.795022 
L 168.524733 29.966115 
L 168.517937 30.137338 
L 168.513859 30.308648 
L 168.5125 30.48 
L 168.5125 253.68 
L 168.513859 253.851352 
L 168.517937 254.022662 
L 168.524733 254.193885 
L 168.534244 254.364978 
L 168.546468 254.5359 
L 168.561403 254.706605 
L 168.579045 254.877053 
L 168.599388 255.047198 
L 168.622428 255.217 
L 168.64816 255.386415 
L 168.676576 255.5554 
L 168.70767 255.723913 
L 168.741434 255.891912 
L 168.777858 256.059354 
L 168.816935 256.226197 
L 168.858654 256.392398 
L 168.903005 256.557917 
L 168.949976 256.722712 
L 168.999556 256.88674 
L 169.051732 257.049961 
L 169.106491 257.212334 
L 169.16382 257.373818 
L 169.223703 257.534371 
L 169.286126 257.693955 
L 169.351074 257.852527 
L 169.418529 258.01005 
L 169.488474 258.166482 
L 169.560893 258.321785 
L 169.635767 258.475919 
L 169.713077 258.628846 
L 169.792804 258.780528 
L 169.874927 258.930925 
L 169.959426 259.08 
L 170.046279 259.227716 
L 170.135465 259.374035 
L 170.226962 259.518921 
L 170.320746 259.662337 
L 170.416793 259.804247 
L 170.51508 259.944615 
L 170.615581 260.083406 
L 170.718272 260.220585 
L 170.823127 260.356117 
L 170.930118 260.489969 
L 171.03922 260.622106 
L 171.150405 260.752496 
L 171.263644 260.881105 
L 171.37891 261.007902 
L 171.496172 261.132853 
L 171.615403 261.255929 
L 171.736571 261.377097 
L 171.859647 261.496328 
L 171.984598 261.61359 
L 172.111395 261.728856 
L 172.240004 261.842095 
L 172.370394 261.95328 
L 172.502531 262.062382 
L 172.636383 262.169373 
L 172.771915 262.274228 
L 172.909094 262.376919 
L 173.047885 262.47742 
L 173.188253 262.575707 
L 173.330163 262.671754 
L 173.473579 262.765538 
L 173.618465 262.857035 
L 173.764784 262.946221 
L 173.9125 263.033074 
L 174.061575 263.117573 
L 174.211972 263.199696 
L 174.363654 263.279423 
L 174.516581 263.356733 
L 174.670715 263.431607 
L 174.826018 263.504026 
L 174.98245 263.573971 
L 175.139973 263.641426 
L 175.298545 263.706374 
L 175.458129 263.768797 
L 175.618682 263.82868 
L 175.780166 263.886009 
L 175.942539 263.940768 
L 176.10576 263.992944 
L 176.269788 264.042524 
L 176.434583 264.089495 
L 176.600102 264.133846 
L 176.766303 264.175565 
L 176.933146 264.214642 
L 177.100588 264.251066 
L 177.268587 264.28483 
L 177.4371 264.315924 
L 177.606085 264.34434 
L 177.7755 264.370072 
L 177.945302 264.393112 
L 178.115447 264.413455 
L 178.285895 264.431097 
L 178.4566 264.446032 
L 178.627522 264.458256 
L 178.798615 264.467767 
L 178.969838 264.474563 
L 179.141148 264.478641 
L 179.3125 264.48 
L 337.7125 264.48 
z
" clip-path="url(#p0cdf9577cd)" style="fill: none; stroke: #000000; stroke-width: 2; stroke-linecap: round"/>
   </g>
   <g id="line2d_1">
    <path d="M 168.5125 142.08 
L 143.3125 142.08 
L 118.1125 142.08 
" clip-path="url(#p0cdf9577cd)" style="fill: none; stroke: #000000; stroke-width: 2; stroke-linecap: round"/>
   </g>
   <g id="line2d_2">
    <path d="M 168.5125 214.08 
L 143.3125 214.08 
L 118.1125 214.08 
" clip-path="url(#p0cdf9577cd)" style="fill: none; stroke: #000000; stroke-width: 2; stroke-linecap: round"/>
   </g>
   <g id="line2d_3">
    <path d="M 168.5125 246.48 
L 143.3125 246.48 
L 118.1125 246.48 
" clip-path="url(#p0cdf9577cd)" style="fill: none; stroke: #000000; stroke-width: 2; stroke-linecap: round"/>
   </g>
   <g id="line2d_4">
    <path d="M 348.5125 59.28 
L 375.5125 59.28 
L 402.5125 59.28 
" clip-path="url(#p0cdf9577cd)" style="fill: none; stroke: #000000; stroke-width: 2; stroke-linecap: round"/>
   </g>
   <g id="line2d_5">
    <path d="M 348.5125 93.48 
L 375.5125 93.48 
L 402.5125 93.48 
" clip-path="url(#p0cdf9577cd)" style="fill: none; stroke: #000000; stroke-width: 2; stroke-linecap: round"/>
   </g>
   <g id="line2d_6">
    <path d="M 348.5125 127.68 
L 375.5125 127.68 
L 402.5125 127.68 
" clip-path="url(#p0cdf9577cd)" style="fill: none; stroke: #000000; stroke-width: 2; stroke-linecap: round"/>
   </g>
   <g id="line2d_7">
    <path d="M 348.5125 161.88 
L 375.5125 161.88 
L 402.5125 161.88 
" clip-path="url(#p0cdf9577cd)" style="fill: none; stroke: #000000; stroke-width: 2; stroke-linecap: round"/>
   </g>
   <g id="line2d_8">
    <path d="M 348.5125 196.08 
L 375.5125 196.08 
L 402.5125 196.08 
" clip-path="url(#p0cdf9577cd)" style="fill: none; stroke: #000000; stroke-width: 2; stroke-linecap: round"/>
   </g>
   <g id="line2d_9">
    <path d="M 348.5125 230.28 
L 375.5125 230.28 
L 402.5125 230.28 
" clip-path="url(#p0cdf9577cd)" style="fill: none; stroke: #000000; stroke-width: 2; stroke-linecap: round"/>
   </g>
   <g id="text_1">
    <!-- Tang Nano 9K -->
    <g transform="translate(210.482656 139.168438) scale(0.14 -0.14)">
     <defs>
      <path id="DejaVuSans-54" d="M -19 4666 
L 3928 4666 
L 3928 4134 
L 2272 4134 
L 2272 0 
L 1638 0 
L 1638 4134 
L -19 4134 
L -19 4666 
z
" transform="scale(0.015625)"/>
      <path id="DejaVuSans-61" d="M 2194 1759 
Q 1497 1759 1228 1600 
Q 959 1441 959 1056 
Q 959 750 1161 570 
Q 1363 391 1709 391 
Q 2188 391 2477 730 
Q 2766 1069 2766 1631 
L 2766 1759 
L 2194 1759 
z
M 3341 1997 
L 3341 0 
L 2766 0 
L 2766 531 
Q 2569 213 2275 61 
Q 1981 -91 1556 -91 
Q 1019 -91 701 211 
Q 384 513 384 1019 
Q 384 1609 779 1909 
Q 1175 2209 1959 2209 
L 2766 2209 
L 2766 2266 
Q 2766 2663 2505 2880 
Q 2244 3097 1772 3097 
Q 1472 3097 1187 3025 
Q 903 2953 641 2809 
L 641 3341 
Q 956 3463 1253 3523 
Q 1550 3584 1831 3584 
Q 2591 3584 2966 3190 
Q 3341 2797 3341 1997 
z
" transform="scale(0.015625)"/>
      <path id="DejaVuSans-6e" d="M 3513 2113 
L 3513 0 
L 2938 0 
L 2938 2094 
Q 2938 2591 2744 2837 
Q 2550 3084 2163 3084 
Q 1697 3084 1428 2787 
Q 1159 2491 1159 1978 
L 1159 0 
L 581 0 
L 581 3500 
L 1159 3500 
L 1159 2956 
Q 1366 3272 1645 3428 
Q 1925 3584 2291 3584 
Q 2894 3584 3203 3211 
Q 3513 2838 3513 2113 
z
" transform="scale(0.015625)"/>
      <path id="DejaVuSans-67" d="M 2906 1791 
Q 2906 2416 2648 2759 
Q 2391 3103 1925 3103 
Q 1463 3103 1205 2759 
Q 947 2416 947 1791 
Q 947 1169 1205 825 
Q 1463 481 1925 481 
Q 2391 481 2648 825 
Q 2906 1169 2906 1791 
z
M 3481 434 
Q 3481 -459 3084 -895 
Q 2688 -1331 1869 -1331 
Q 1566 -1331 1297 -1286 
Q 1028 -1241 775 -1147 
L 775 -588 
Q 1028 -725 1275 -790 
Q 1522 -856 1778 -856 
Q 2344 -856 2625 -561 
Q 2906 -266 2906 331 
L 2906 616 
Q 2728 306 2450 153 
Q 2172 0 1784 0 
Q 1141 0 747 490 
Q 353 981 353 1791 
Q 353 2603 747 3093 
Q 1141 3584 1784 3584 
Q 2172 3584 2450 3431 
Q 2728 3278 2906 2969 
L 2906 3500 
L 3481 3500 
L 3481 434 
z
" transform="scale(0.015625)"/>
      <path id="DejaVuSans-20" transform="scale(0.015625)"/>
      <path id="DejaVuSans-4e" d="M 628 4666 
L 1478 4666 
L 3547 763 
L 3547 4666 
L 4159 4666 
L 4159 0 
L 3309 0 
L 1241 3903 
L 1241 0 
L 628 0 
L 628 4666 
z
" transform="scale(0.015625)"/>
      <path id="DejaVuSans-6f" d="M 1959 3097 
Q 1497 3097 1228 2736 
Q 959 2375 959 1747 
Q 959 1119 1226 758 
Q 1494 397 1959 397 
Q 2419 397 2687 759 
Q 2956 1122 2956 1747 
Q 2956 2369 2687 2733 
Q 2419 3097 1959 3097 
z
M 1959 3584 
Q 2709 3584 3137 3096 
Q 3566 2609 3566 1747 
Q 3566 888 3137 398 
Q 2709 -91 1959 -91 
Q 1206 -91 779 398 
Q 353 888 353 1747 
Q 353 2609 779 3096 
Q 1206 3584 1959 3584 
z
" transform="scale(0.015625)"/>
      <path id="DejaVuSans-39" d="M 703 97 
L 703 672 
Q 941 559 1184 500 
Q 1428 441 1663 441 
Q 2288 441 2617 861 
Q 2947 1281 2994 2138 
Q 2813 1869 2534 1725 
Q 2256 1581 1919 1581 
Q 1219 1581 811 2004 
Q 403 2428 403 3163 
Q 403 3881 828 4315 
Q 1253 4750 1959 4750 
Q 2769 4750 3195 4129 
Q 3622 3509 3622 2328 
Q 3622 1225 3098 567 
Q 2575 -91 1691 -91 
Q 1453 -91 1209 -44 
Q 966 3 703 97 
z
M 1959 2075 
Q 2384 2075 2632 2365 
Q 2881 2656 2881 3163 
Q 2881 3666 2632 3958 
Q 2384 4250 1959 4250 
Q 1534 4250 1286 3958 
Q 1038 3666 1038 3163 
Q 1038 2656 1286 2365 
Q 1534 2075 1959 2075 
z
" transform="scale(0.015625)"/>
      <path id="DejaVuSans-4b" d="M 628 4666 
L 1259 4666 
L 1259 2694 
L 3353 4666 
L 4166 4666 
L 1850 2491 
L 4331 0 
L 3500 0 
L 1259 2247 
L 1259 0 
L 628 0 
L 628 4666 
z
" transform="scale(0.015625)"/>
     </defs>
     <use xlink:href="#DejaVuSans-54"/>
     <use xlink:href="#DejaVuSans-61" transform="translate(44.583984 0)"/>
     <use xlink:href="#DejaVuSans-6e" transform="translate(105.863281 0)"/>
     <use xlink:href="#DejaVuSans-67" transform="translate(169.242188 0)"/>
     <use xlink:href="#DejaVuSans-20" transform="translate(232.71875 0)"/>
     <use xlink:href="#DejaVuSans-4e" transform="translate(264.505859 0)"/>
     <use xlink:href="#DejaVuSans-61" transform="translate(339.310547 0)"/>
     <use xlink:href="#DejaVuSans-6e" transform="translate(400.589844 0)"/>
     <use xlink:href="#DejaVuSans-6f" transform="translate(463.96875 0)"/>
     <use xlink:href="#DejaVuSans-20" transform="translate(525.150391 0)"/>
     <use xlink:href="#DejaVuSans-39" transform="translate(556.9375 0)"/>
     <use xlink:href="#DejaVuSans-4b" transform="translate(620.560547 0)"/>
    </g>
    <!-- (GW1NR-9) -->
    <g transform="translate(219.451406 152.717812) scale(0.14 -0.14)">
     <defs>
      <path id="DejaVuSans-28" d="M 1984 4856 
Q 1566 4138 1362 3434 
Q 1159 2731 1159 2009 
Q 1159 1288 1364 580 
Q 1569 -128 1984 -844 
L 1484 -844 
Q 1016 -109 783 600 
Q 550 1309 550 2009 
Q 550 2706 781 3412 
Q 1013 4119 1484 4856 
L 1984 4856 
z
" transform="scale(0.015625)"/>
      <path id="DejaVuSans-47" d="M 3809 666 
L 3809 1919 
L 2778 1919 
L 2778 2438 
L 4434 2438 
L 4434 434 
Q 4069 175 3628 42 
Q 3188 -91 2688 -91 
Q 1594 -91 976 548 
Q 359 1188 359 2328 
Q 359 3472 976 4111 
Q 1594 4750 2688 4750 
Q 3144 4750 3555 4637 
Q 3966 4525 4313 4306 
L 4313 3634 
Q 3963 3931 3569 4081 
Q 3175 4231 2741 4231 
Q 1884 4231 1454 3753 
Q 1025 3275 1025 2328 
Q 1025 1384 1454 906 
Q 1884 428 2741 428 
Q 3075 428 3337 486 
Q 3600 544 3809 666 
z
" transform="scale(0.015625)"/>
      <path id="DejaVuSans-57" d="M 213 4666 
L 850 4666 
L 1831 722 
L 2809 4666 
L 3519 4666 
L 4500 722 
L 5478 4666 
L 6119 4666 
L 4947 0 
L 4153 0 
L 3169 4050 
L 2175 0 
L 1381 0 
L 213 4666 
z
" transform="scale(0.015625)"/>
      <path id="DejaVuSans-31" d="M 794 531 
L 1825 531 
L 1825 4091 
L 703 3866 
L 703 4441 
L 1819 4666 
L 2450 4666 
L 2450 531 
L 3481 531 
L 3481 0 
L 794 0 
L 794 531 
z
" transform="scale(0.015625)"/>
      <path id="DejaVuSans-52" d="M 2841 2188 
Q 3044 2119 3236 1894 
Q 3428 1669 3622 1275 
L 4263 0 
L 3584 0 
L 2988 1197 
Q 2756 1666 2539 1819 
Q 2322 1972 1947 1972 
L 1259 1972 
L 1259 0 
L 628 0 
L 628 4666 
L 2053 4666 
Q 2853 4666 3247 4331 
Q 3641 3997 3641 3322 
Q 3641 2881 3436 2590 
Q 3231 2300 2841 2188 
z
M 1259 4147 
L 1259 2491 
L 2053 2491 
Q 2509 2491 2742 2702 
Q 2975 2913 2975 3322 
Q 2975 3731 2742 3939 
Q 2509 4147 2053 4147 
L 1259 4147 
z
" transform="scale(0.015625)"/>
      <path id="DejaVuSans-2d" d="M 313 2009 
L 1997 2009 
L 1997 1497 
L 313 1497 
L 313 2009 
z
" transform="scale(0.015625)"/>
      <path id="DejaVuSans-29" d="M 513 4856 
L 1013 4856 
Q 1481 4119 1714 3412 
Q 1947 2706 1947 2009 
Q 1947 1309 1714 600 
Q 1481 -109 1013 -844 
L 513 -844 
Q 928 -128 1133 580 
Q 1338 1288 1338 2009 
Q 1338 2731 1133 3434 
Q 928 4138 513 4856 
z
" transform="scale(0.015625)"/>
     </defs>
     <use xlink:href="#DejaVuSans-28"/>
     <use xlink:href="#DejaVuSans-47" transform="translate(39.013672 0)"/>
     <use xlink:href="#DejaVuSans-57" transform="translate(116.503906 0)"/>
     <use xlink:href="#DejaVuSans-31" transform="translate(215.380859 0)"/>
     <use xlink:href="#DejaVuSans-4e" transform="translate(279.003906 0)"/>
     <use xlink:href="#DejaVuSans-52" transform="translate(353.808594 0)"/>
     <use xlink:href="#DejaVuSans-2d" transform="translate(419.291016 0)"/>
     <use xlink:href="#DejaVuSans-39" transform="translate(455.375 0)"/>
     <use xlink:href="#DejaVuSans-29" transform="translate(518.998047 0)"/>
    </g>
   </g>
   <g id="text_2">
    <!-- CLK 27 MHz = pin 52 -->
    <g transform="translate(8.81875 144.839375) scale(0.1 -0.1)">
     <defs>
      <path id="DejaVuSans-43" d="M 4122 4306 
L 4122 3641 
Q 3803 3938 3442 4084 
Q 3081 4231 2675 4231 
Q 1875 4231 1450 3742 
Q 1025 3253 1025 2328 
Q 1025 1406 1450 917 
Q 1875 428 2675 428 
Q 3081 428 3442 575 
Q 3803 722 4122 1019 
L 4122 359 
Q 3791 134 3420 21 
Q 3050 -91 2638 -91 
Q 1578 -91 968 557 
Q 359 1206 359 2328 
Q 359 3453 968 4101 
Q 1578 4750 2638 4750 
Q 3056 4750 3426 4639 
Q 3797 4528 4122 4306 
z
" transform="scale(0.015625)"/>
      <path id="DejaVuSans-4c" d="M 628 4666 
L 1259 4666 
L 1259 531 
L 3531 531 
L 3531 0 
L 628 0 
L 628 4666 
z
" transform="scale(0.015625)"/>
      <path id="DejaVuSans-32" d="M 1228 531 
L 3431 531 
L 3431 0 
L 469 0 
L 469 531 
Q 828 903 1448 1529 
Q 2069 2156 2228 2338 
Q 2531 2678 2651 2914 
Q 2772 3150 2772 3378 
Q 2772 3750 2511 3984 
Q 2250 4219 1831 4219 
Q 1534 4219 1204 4116 
Q 875 4013 500 3803 
L 500 4441 
Q 881 4594 1212 4672 
Q 1544 4750 1819 4750 
Q 2544 4750 2975 4387 
Q 3406 4025 3406 3419 
Q 3406 3131 3298 2873 
Q 3191 2616 2906 2266 
Q 2828 2175 2409 1742 
Q 1991 1309 1228 531 
z
" transform="scale(0.015625)"/>
      <path id="DejaVuSans-37" d="M 525 4666 
L 3525 4666 
L 3525 4397 
L 1831 0 
L 1172 0 
L 2766 4134 
L 525 4134 
L 525 4666 
z
" transform="scale(0.015625)"/>
      <path id="DejaVuSans-4d" d="M 628 4666 
L 1569 4666 
L 2759 1491 
L 3956 4666 
L 4897 4666 
L 4897 0 
L 4281 0 
L 4281 4097 
L 3078 897 
L 2444 897 
L 1241 4097 
L 1241 0 
L 628 0 
L 628 4666 
z
" transform="scale(0.015625)"/>
      <path id="DejaVuSans-48" d="M 628 4666 
L 1259 4666 
L 1259 2753 
L 3553 2753 
L 3553 4666 
L 4184 4666 
L 4184 0 
L 3553 0 
L 3553 2222 
L 1259 2222 
L 1259 0 
L 628 0 
L 628 4666 
z
" transform="scale(0.015625)"/>
      <path id="DejaVuSans-7a" d="M 353 3500 
L 3084 3500 
L 3084 2975 
L 922 459 
L 3084 459 
L 3084 0 
L 275 0 
L 275 525 
L 2438 3041 
L 353 3041 
L 353 3500 
z
" transform="scale(0.015625)"/>
      <path id="DejaVuSans-3d" d="M 678 2906 
L 4684 2906 
L 4684 2381 
L 678 2381 
L 678 2906 
z
M 678 1631 
L 4684 1631 
L 4684 1100 
L 678 1100 
L 678 1631 
z
" transform="scale(0.015625)"/>
      <path id="DejaVuSans-70" d="M 1159 525 
L 1159 -1331 
L 581 -1331 
L 581 3500 
L 1159 3500 
L 1159 2969 
Q 1341 3281 1617 3432 
Q 1894 3584 2278 3584 
Q 2916 3584 3314 3078 
Q 3713 2572 3713 1747 
Q 3713 922 3314 415 
Q 2916 -91 2278 -91 
Q 1894 -91 1617 61 
Q 1341 213 1159 525 
z
M 3116 1747 
Q 3116 2381 2855 2742 
Q 2594 3103 2138 3103 
Q 1681 3103 1420 2742 
Q 1159 2381 1159 1747 
Q 1159 1113 1420 752 
Q 1681 391 2138 391 
Q 2594 391 2855 752 
Q 3116 1113 3116 1747 
z
" transform="scale(0.015625)"/>
      <path id="DejaVuSans-69" d="M 603 3500 
L 1178 3500 
L 1178 0 
L 603 0 
L 603 3500 
z
M 603 4863 
L 1178 4863 
L 1178 4134 
L 603 4134 
L 603 4863 
z
" transform="scale(0.015625)"/>
      <path id="DejaVuSans-35" d="M 691 4666 
L 3169 4666 
L 3169 4134 
L 1269 4134 
L 1269 2991 
Q 1406 3038 1543 3061 
Q 1681 3084 1819 3084 
Q 2600 3084 3056 2656 
Q 3513 2228 3513 1497 
Q 3513 744 3044 326 
Q 2575 -91 1722 -91 
Q 1428 -91 1123 -41 
Q 819 9 494 109 
L 494 744 
Q 775 591 1075 516 
Q 1375 441 1709 441 
Q 2250 441 2565 725 
Q 2881 1009 2881 1497 
Q 2881 1984 2565 2268 
Q 2250 2553 1709 2553 
Q 1456 2553 1204 2497 
Q 953 2441 691 2322 
L 691 4666 
z
" transform="scale(0.015625)"/>
     </defs>
     <use xlink:href="#DejaVuSans-43"/>
     <use xlink:href="#DejaVuSans-4c" transform="translate(69.824219 0)"/>
     <use xlink:href="#DejaVuSans-4b" transform="translate(125.537109 0)"/>
     <use xlink:href="#DejaVuSans-20" transform="translate(191.113281 0)"/>
     <use xlink:href="#DejaVuSans-32" transform="translate(222.900391 0)"/>
     <use xlink:href="#DejaVuSans-37" transform="translate(286.523438 0)"/>
     <use xlink:href="#DejaVuSans-20" transform="translate(350.146484 0)"/>
     <use xlink:href="#DejaVuSans-4d" transform="translate(381.933594 0)"/>
     <use xlink:href="#DejaVuSans-48" transform="translate(468.212891 0)"/>
     <use xlink:href="#DejaVuSans-7a" transform="translate(543.408203 0)"/>
     <use xlink:href="#DejaVuSans-20" transform="translate(595.898438 0)"/>
     <use xlink:href="#DejaVuSans-3d" transform="translate(627.685547 0)"/>
     <use xlink:href="#DejaVuSans-20" transform="translate(711.474609 0)"/>
     <use xlink:href="#DejaVuSans-70" transform="translate(743.261719 0)"/>
     <use xlink:href="#DejaVuSans-69" transform="translate(806.738281 0)"/>
     <use xlink:href="#DejaVuSans-6e" transform="translate(834.521484 0)"/>
     <use xlink:href="#DejaVuSans-20" transform="translate(897.900391 0)"/>
     <use xlink:href="#DejaVuSans-35" transform="translate(929.6875 0)"/>
     <use xlink:href="#DejaVuSans-32" transform="translate(993.310547 0)"/>
    </g>
   </g>
   <g id="text_3">
    <!-- S1 = pin 4 (active-low) -->
    <g transform="translate(-0 216.839375) scale(0.1 -0.1)">
     <defs>
      <path id="DejaVuSans-53" d="M 3425 4513 
L 3425 3897 
Q 3066 4069 2747 4153 
Q 2428 4238 2131 4238 
Q 1616 4238 1336 4038 
Q 1056 3838 1056 3469 
Q 1056 3159 1242 3001 
Q 1428 2844 1947 2747 
L 2328 2669 
Q 3034 2534 3370 2195 
Q 3706 1856 3706 1288 
Q 3706 609 3251 259 
Q 2797 -91 1919 -91 
Q 1588 -91 1214 -16 
Q 841 59 441 206 
L 441 856 
Q 825 641 1194 531 
Q 1563 422 1919 422 
Q 2459 422 2753 634 
Q 3047 847 3047 1241 
Q 3047 1584 2836 1778 
Q 2625 1972 2144 2069 
L 1759 2144 
Q 1053 2284 737 2584 
Q 422 2884 422 3419 
Q 422 4038 858 4394 
Q 1294 4750 2059 4750 
Q 2388 4750 2728 4690 
Q 3069 4631 3425 4513 
z
" transform="scale(0.015625)"/>
      <path id="DejaVuSans-34" d="M 2419 4116 
L 825 1625 
L 2419 1625 
L 2419 4116 
z
M 2253 4666 
L 3047 4666 
L 3047 1625 
L 3713 1625 
L 3713 1100 
L 3047 1100 
L 3047 0 
L 2419 0 
L 2419 1100 
L 313 1100 
L 313 1709 
L 2253 4666 
z
" transform="scale(0.015625)"/>
      <path id="DejaVuSans-63" d="M 3122 3366 
L 3122 2828 
Q 2878 2963 2633 3030 
Q 2388 3097 2138 3097 
Q 1578 3097 1268 2742 
Q 959 2388 959 1747 
Q 959 1106 1268 751 
Q 1578 397 2138 397 
Q 2388 397 2633 464 
Q 2878 531 3122 666 
L 3122 134 
Q 2881 22 2623 -34 
Q 2366 -91 2075 -91 
Q 1284 -91 818 406 
Q 353 903 353 1747 
Q 353 2603 823 3093 
Q 1294 3584 2113 3584 
Q 2378 3584 2631 3529 
Q 2884 3475 3122 3366 
z
" transform="scale(0.015625)"/>
      <path id="DejaVuSans-74" d="M 1172 4494 
L 1172 3500 
L 2356 3500 
L 2356 3053 
L 1172 3053 
L 1172 1153 
Q 1172 725 1289 603 
Q 1406 481 1766 481 
L 2356 481 
L 2356 0 
L 1766 0 
Q 1100 0 847 248 
Q 594 497 594 1153 
L 594 3053 
L 172 3053 
L 172 3500 
L 594 3500 
L 594 4494 
L 1172 4494 
z
" transform="scale(0.015625)"/>
      <path id="DejaVuSans-76" d="M 191 3500 
L 800 3500 
L 1894 563 
L 2988 3500 
L 3597 3500 
L 2284 0 
L 1503 0 
L 191 3500 
z
" transform="scale(0.015625)"/>
      <path id="DejaVuSans-65" d="M 3597 1894 
L 3597 1613 
L 953 1613 
Q 991 1019 1311 708 
Q 1631 397 2203 397 
Q 2534 397 2845 478 
Q 3156 559 3463 722 
L 3463 178 
Q 3153 47 2828 -22 
Q 2503 -91 2169 -91 
Q 1331 -91 842 396 
Q 353 884 353 1716 
Q 353 2575 817 3079 
Q 1281 3584 2069 3584 
Q 2775 3584 3186 3129 
Q 3597 2675 3597 1894 
z
M 3022 2063 
Q 3016 2534 2758 2815 
Q 2500 3097 2075 3097 
Q 1594 3097 1305 2825 
Q 1016 2553 972 2059 
L 3022 2063 
z
" transform="scale(0.015625)"/>
      <path id="DejaVuSans-6c" d="M 603 4863 
L 1178 4863 
L 1178 0 
L 603 0 
L 603 4863 
z
" transform="scale(0.015625)"/>
      <path id="DejaVuSans-77" d="M 269 3500 
L 844 3500 
L 1563 769 
L 2278 3500 
L 2956 3500 
L 3675 769 
L 4391 3500 
L 4966 3500 
L 4050 0 
L 3372 0 
L 2619 2869 
L 1863 0 
L 1184 0 
L 269 3500 
z
" transform="scale(0.015625)"/>
     </defs>
     <use xlink:href="#DejaVuSans-53"/>
     <use xlink:href="#DejaVuSans-31" transform="translate(63.476562 0)"/>
     <use xlink:href="#DejaVuSans-20" transform="translate(127.099609 0)"/>
     <use xlink:href="#DejaVuSans-3d" transform="translate(158.886719 0)"/>
     <use xlink:href="#DejaVuSans-20" transform="translate(242.675781 0)"/>
     <use xlink:href="#DejaVuSans-70" transform="translate(274.462891 0)"/>
     <use xlink:href="#DejaVuSans-69" transform="translate(337.939453 0)"/>
     <use xlink:href="#DejaVuSans-6e" transform="translate(365.722656 0)"/>
     <use xlink:href="#DejaVuSans-20" transform="translate(429.101562 0)"/>
     <use xlink:href="#DejaVuSans-34" transform="translate(460.888672 0)"/>
     <use xlink:href="#DejaVuSans-20" transform="translate(524.511719 0)"/>
     <use xlink:href="#DejaVuSans-28" transform="translate(556.298828 0)"/>
     <use xlink:href="#DejaVuSans-61" transform="translate(595.3125 0)"/>
     <use xlink:href="#DejaVuSans-63" transform="translate(656.591797 0)"/>
     <use xlink:href="#DejaVuSans-74" transform="translate(711.572266 0)"/>
     <use xlink:href="#DejaVuSans-69" transform="translate(750.78125 0)"/>
     <use xlink:href="#DejaVuSans-76" transform="translate(778.564453 0)"/>
     <use xlink:href="#DejaVuSans-65" transform="translate(837.744141 0)"/>
     <use xlink:href="#DejaVuSans-2d" transform="translate(899.267578 0)"/>
     <use xlink:href="#DejaVuSans-6c" transform="translate(935.351562 0)"/>
     <use xlink:href="#DejaVuSans-6f" transform="translate(963.134766 0)"/>
     <use xlink:href="#DejaVuSans-77" transform="translate(1024.316406 0)"/>
     <use xlink:href="#DejaVuSans-29" transform="translate(1106.103516 0)"/>
    </g>
   </g>
   <g id="text_4">
    <!-- S2 = pin 3 (active-low) -->
    <g transform="translate(-0 249.239375) scale(0.1 -0.1)">
     <defs>
      <path id="DejaVuSans-33" d="M 2597 2516 
Q 3050 2419 3304 2112 
Q 3559 1806 3559 1356 
Q 3559 666 3084 287 
Q 2609 -91 1734 -91 
Q 1441 -91 1130 -33 
Q 819 25 488 141 
L 488 750 
Q 750 597 1062 519 
Q 1375 441 1716 441 
Q 2309 441 2620 675 
Q 2931 909 2931 1356 
Q 2931 1769 2642 2001 
Q 2353 2234 1838 2234 
L 1294 2234 
L 1294 2753 
L 1863 2753 
Q 2328 2753 2575 2939 
Q 2822 3125 2822 3475 
Q 2822 3834 2567 4026 
Q 2313 4219 1838 4219 
Q 1578 4219 1281 4162 
Q 984 4106 628 3988 
L 628 4550 
Q 988 4650 1302 4700 
Q 1616 4750 1894 4750 
Q 2613 4750 3031 4423 
Q 3450 4097 3450 3541 
Q 3450 3153 3228 2886 
Q 3006 2619 2597 2516 
z
" transform="scale(0.015625)"/>
     </defs>
     <use xlink:href="#DejaVuSans-53"/>
     <use xlink:href="#DejaVuSans-32" transform="translate(63.476562 0)"/>
     <use xlink:href="#DejaVuSans-20" transform="translate(127.099609 0)"/>
     <use xlink:href="#DejaVuSans-3d" transform="translate(158.886719 0)"/>
     <use xlink:href="#DejaVuSans-20" transform="translate(242.675781 0)"/>
     <use xlink:href="#DejaVuSans-70" transform="translate(274.462891 0)"/>
     <use xlink:href="#DejaVuSans-69" transform="translate(337.939453 0)"/>
     <use xlink:href="#DejaVuSans-6e" transform="translate(365.722656 0)"/>
     <use xlink:href="#DejaVuSans-20" transform="translate(429.101562 0)"/>
     <use xlink:href="#DejaVuSans-33" transform="translate(460.888672 0)"/>
     <use xlink:href="#DejaVuSans-20" transform="translate(524.511719 0)"/>
     <use xlink:href="#DejaVuSans-28" transform="translate(556.298828 0)"/>
     <use xlink:href="#DejaVuSans-61" transform="translate(595.3125 0)"/>
     <use xlink:href="#DejaVuSans-63" transform="translate(656.591797 0)"/>
     <use xlink:href="#DejaVuSans-74" transform="translate(711.572266 0)"/>
     <use xlink:href="#DejaVuSans-69" transform="translate(750.78125 0)"/>
     <use xlink:href="#DejaVuSans-76" transform="translate(778.564453 0)"/>
     <use xlink:href="#DejaVuSans-65" transform="translate(837.744141 0)"/>
     <use xlink:href="#DejaVuSans-2d" transform="translate(899.267578 0)"/>
     <use xlink:href="#DejaVuSans-6c" transform="translate(935.351562 0)"/>
     <use xlink:href="#DejaVuSans-6f" transform="translate(963.134766 0)"/>
     <use xlink:href="#DejaVuSans-77" transform="translate(1024.316406 0)"/>
     <use xlink:href="#DejaVuSans-29" transform="translate(1106.103516 0)"/>
    </g>
   </g>
   <g id="text_5">
    <!-- LED0 = pin 10 -->
    <g transform="translate(406.1125 62.039375) scale(0.1 -0.1)">
     <defs>
      <path id="DejaVuSans-45" d="M 628 4666 
L 3578 4666 
L 3578 4134 
L 1259 4134 
L 1259 2753 
L 3481 2753 
L 3481 2222 
L 1259 2222 
L 1259 531 
L 3634 531 
L 3634 0 
L 628 0 
L 628 4666 
z
" transform="scale(0.015625)"/>
      <path id="DejaVuSans-44" d="M 1259 4147 
L 1259 519 
L 2022 519 
Q 2988 519 3436 956 
Q 3884 1394 3884 2338 
Q 3884 3275 3436 3711 
Q 2988 4147 2022 4147 
L 1259 4147 
z
M 628 4666 
L 1925 4666 
Q 3281 4666 3915 4102 
Q 4550 3538 4550 2338 
Q 4550 1131 3912 565 
Q 3275 0 1925 0 
L 628 0 
L 628 4666 
z
" transform="scale(0.015625)"/>
      <path id="DejaVuSans-30" d="M 2034 4250 
Q 1547 4250 1301 3770 
Q 1056 3291 1056 2328 
Q 1056 1369 1301 889 
Q 1547 409 2034 409 
Q 2525 409 2770 889 
Q 3016 1369 3016 2328 
Q 3016 3291 2770 3770 
Q 2525 4250 2034 4250 
z
M 2034 4750 
Q 2819 4750 3233 4129 
Q 3647 3509 3647 2328 
Q 3647 1150 3233 529 
Q 2819 -91 2034 -91 
Q 1250 -91 836 529 
Q 422 1150 422 2328 
Q 422 3509 836 4129 
Q 1250 4750 2034 4750 
z
" transform="scale(0.015625)"/>
     </defs>
     <use xlink:href="#DejaVuSans-4c"/>
     <use xlink:href="#DejaVuSans-45" transform="translate(55.712891 0)"/>
     <use xlink:href="#DejaVuSans-44" transform="translate(118.896484 0)"/>
     <use xlink:href="#DejaVuSans-30" transform="translate(195.898438 0)"/>
     <use xlink:href="#DejaVuSans-20" transform="translate(259.521484 0)"/>
     <use xlink:href="#DejaVuSans-3d" transform="translate(291.308594 0)"/>
     <use xlink:href="#DejaVuSans-20" transform="translate(375.097656 0)"/>
     <use xlink:href="#DejaVuSans-70" transform="translate(406.884766 0)"/>
     <use xlink:href="#DejaVuSans-69" transform="translate(470.361328 0)"/>
     <use xlink:href="#DejaVuSans-6e" transform="translate(498.144531 0)"/>
     <use xlink:href="#DejaVuSans-20" transform="translate(561.523438 0)"/>
     <use xlink:href="#DejaVuSans-31" transform="translate(593.310547 0)"/>
     <use xlink:href="#DejaVuSans-30" transform="translate(656.933594 0)"/>
    </g>
   </g>
   <g id="text_6">
    <!-- LED1 = pin 11 -->
    <g transform="translate(406.1125 96.239375) scale(0.1 -0.1)">
     <use xlink:href="#DejaVuSans-4c"/>
     <use xlink:href="#DejaVuSans-45" transform="translate(55.712891 0)"/>
     <use xlink:href="#DejaVuSans-44" transform="translate(118.896484 0)"/>
     <use xlink:href="#DejaVuSans-31" transform="translate(195.898438 0)"/>
     <use xlink:href="#DejaVuSans-20" transform="translate(259.521484 0)"/>
     <use xlink:href="#DejaVuSans-3d" transform="translate(291.308594 0)"/>
     <use xlink:href="#DejaVuSans-20" transform="translate(375.097656 0)"/>
     <use xlink:href="#DejaVuSans-70" transform="translate(406.884766 0)"/>
     <use xlink:href="#DejaVuSans-69" transform="translate(470.361328 0)"/>
     <use xlink:href="#DejaVuSans-6e" transform="translate(498.144531 0)"/>
     <use xlink:href="#DejaVuSans-20" transform="translate(561.523438 0)"/>
     <use xlink:href="#DejaVuSans-31" transform="translate(593.310547 0)"/>
     <use xlink:href="#DejaVuSans-31" transform="translate(656.933594 0)"/>
    </g>
   </g>
   <g id="text_7">
    <!-- LED2 = pin 13 -->
    <g transform="translate(406.1125 130.439375) scale(0.1 -0.1)">
     <use xlink:href="#DejaVuSans-4c"/>
     <use xlink:href="#DejaVuSans-45" transform="translate(55.712891 0)"/>
     <use xlink:href="#DejaVuSans-44" transform="translate(118.896484 0)"/>
     <use xlink:href="#DejaVuSans-32" transform="translate(195.898438 0)"/>
     <use xlink:href="#DejaVuSans-20" transform="translate(259.521484 0)"/>
     <use xlink:href="#DejaVuSans-3d" transform="translate(291.308594 0)"/>
     <use xlink:href="#DejaVuSans-20" transform="translate(375.097656 0)"/>
     <use xlink:href="#DejaVuSans-70" transform="translate(406.884766 0)"/>
     <use xlink:href="#DejaVuSans-69" transform="translate(470.361328 0)"/>
     <use xlink:href="#DejaVuSans-6e" transform="translate(498.144531 0)"/>
     <use xlink:href="#DejaVuSans-20" transform="translate(561.523438 0)"/>
     <use xlink:href="#DejaVuSans-31" transform="translate(593.310547 0)"/>
     <use xlink:href="#DejaVuSans-33" transform="translate(656.933594 0)"/>
    </g>
   </g>
   <g id="text_8">
    <!-- LED3 = pin 14 -->
    <g transform="translate(406.1125 164.639375) scale(0.1 -0.1)">
     <use xlink:href="#DejaVuSans-4c"/>
     <use xlink:href="#DejaVuSans-45" transform="translate(55.712891 0)"/>
     <use xlink:href="#DejaVuSans-44" transform="translate(118.896484 0)"/>
     <use xlink:href="#DejaVuSans-33" transform="translate(195.898438 0)"/>
     <use xlink:href="#DejaVuSans-20" transform="translate(259.521484 0)"/>
     <use xlink:href="#DejaVuSans-3d" transform="translate(291.308594 0)"/>
     <use xlink:href="#DejaVuSans-20" transform="translate(375.097656 0)"/>
     <use xlink:href="#DejaVuSans-70" transform="translate(406.884766 0)"/>
     <use xlink:href="#DejaVuSans-69" transform="translate(470.361328 0)"/>
     <use xlink:href="#DejaVuSans-6e" transform="translate(498.144531 0)"/>
     <use xlink:href="#DejaVuSans-20" transform="translate(561.523438 0)"/>
     <use xlink:href="#DejaVuSans-31" transform="translate(593.310547 0)"/>
     <use xlink:href="#DejaVuSans-34" transform="translate(656.933594 0)"/>
    </g>
   </g>
   <g id="text_9">
    <!-- LED4 = pin 15 -->
    <g transform="translate(406.1125 198.839375) scale(0.1 -0.1)">
     <use xlink:href="#DejaVuSans-4c"/>
     <use xlink:href="#DejaVuSans-45" transform="translate(55.712891 0)"/>
     <use xlink:href="#DejaVuSans-44" transform="translate(118.896484 0)"/>
     <use xlink:href="#DejaVuSans-34" transform="translate(195.898438 0)"/>
     <use xlink:href="#DejaVuSans-20" transform="translate(259.521484 0)"/>
     <use xlink:href="#DejaVuSans-3d" transform="translate(291.308594 0)"/>
     <use xlink:href="#DejaVuSans-20" transform="translate(375.097656 0)"/>
     <use xlink:href="#DejaVuSans-70" transform="translate(406.884766 0)"/>
     <use xlink:href="#DejaVuSans-69" transform="translate(470.361328 0)"/>
     <use xlink:href="#DejaVuSans-6e" transform="translate(498.144531 0)"/>
     <use xlink:href="#DejaVuSans-20" transform="translate(561.523438 0)"/>
     <use xlink:href="#DejaVuSans-31" transform="translate(593.310547 0)"/>
     <use xlink:href="#DejaVuSans-35" transform="translate(656.933594 0)"/>
    </g>
   </g>
   <g id="text_10">
    <!-- LED5 = pin 16 -->
    <g transform="translate(406.1125 233.039375) scale(0.1 -0.1)">
     <defs>
      <path id="DejaVuSans-36" d="M 2113 2584 
Q 1688 2584 1439 2293 
Q 1191 2003 1191 1497 
Q 1191 994 1439 701 
Q 1688 409 2113 409 
Q 2538 409 2786 701 
Q 3034 994 3034 1497 
Q 3034 2003 2786 2293 
Q 2538 2584 2113 2584 
z
M 3366 4563 
L 3366 3988 
Q 3128 4100 2886 4159 
Q 2644 4219 2406 4219 
Q 1781 4219 1451 3797 
Q 1122 3375 1075 2522 
Q 1259 2794 1537 2939 
Q 1816 3084 2150 3084 
Q 2853 3084 3261 2657 
Q 3669 2231 3669 1497 
Q 3669 778 3244 343 
Q 2819 -91 2113 -91 
Q 1303 -91 875 529 
Q 447 1150 447 2328 
Q 447 3434 972 4092 
Q 1497 4750 2381 4750 
Q 2619 4750 2861 4703 
Q 3103 4656 3366 4563 
z
" transform="scale(0.015625)"/>
     </defs>
     <use xlink:href="#DejaVuSans-4c"/>
     <use xlink:href="#DejaVuSans-45" transform="translate(55.712891 0)"/>
     <use xlink:href="#DejaVuSans-44" transform="translate(118.896484 0)"/>
     <use xlink:href="#DejaVuSans-35" transform="translate(195.898438 0)"/>
     <use xlink:href="#DejaVuSans-20" transform="translate(259.521484 0)"/>
     <use xlink:href="#DejaVuSans-3d" transform="translate(291.308594 0)"/>
     <use xlink:href="#DejaVuSans-20" transform="translate(375.097656 0)"/>
     <use xlink:href="#DejaVuSans-70" transform="translate(406.884766 0)"/>
     <use xlink:href="#DejaVuSans-69" transform="translate(470.361328 0)"/>
     <use xlink:href="#DejaVuSans-6e" transform="translate(498.144531 0)"/>
     <use xlink:href="#DejaVuSans-20" transform="translate(561.523438 0)"/>
     <use xlink:href="#DejaVuSans-31" transform="translate(593.310547 0)"/>
     <use xlink:href="#DejaVuSans-36" transform="translate(656.933594 0)"/>
    </g>
   </g>
   <g id="text_11">
    <!-- 6 LEDs -->
    <g transform="translate(446.542187 12.76125) scale(0.1 -0.1)">
     <defs>
      <path id="DejaVuSans-73" d="M 2834 3397 
L 2834 2853 
Q 2591 2978 2328 3040 
Q 2066 3103 1784 3103 
Q 1356 3103 1142 2972 
Q 928 2841 928 2578 
Q 928 2378 1081 2264 
Q 1234 2150 1697 2047 
L 1894 2003 
Q 2506 1872 2764 1633 
Q 3022 1394 3022 966 
Q 3022 478 2636 193 
Q 2250 -91 1575 -91 
Q 1294 -91 989 -36 
Q 684 19 347 128 
L 347 722 
Q 666 556 975 473 
Q 1284 391 1588 391 
Q 1994 391 2212 530 
Q 2431 669 2431 922 
Q 2431 1156 2273 1281 
Q 2116 1406 1581 1522 
L 1381 1569 
Q 847 1681 609 1914 
Q 372 2147 372 2553 
Q 372 3047 722 3315 
Q 1072 3584 1716 3584 
Q 2034 3584 2315 3537 
Q 2597 3491 2834 3397 
z
" transform="scale(0.015625)"/>
     </defs>
     <use xlink:href="#DejaVuSans-36"/>
     <use xlink:href="#DejaVuSans-20" transform="translate(63.623047 0)"/>
     <use xlink:href="#DejaVuSans-4c" transform="translate(95.410156 0)"/>
     <use xlink:href="#DejaVuSans-45" transform="translate(151.123047 0)"/>
     <use xlink:href="#DejaVuSans-44" transform="translate(214.306641 0)"/>
     <use xlink:href="#DejaVuSans-73" transform="translate(291.308594 0)"/>
    </g>
    <!-- active-LOW -->
    <g transform="translate(435.225781 22.439375) scale(0.1 -0.1)">
     <defs>
      <path id="DejaVuSans-4f" d="M 2522 4238 
Q 1834 4238 1429 3725 
Q 1025 3213 1025 2328 
Q 1025 1447 1429 934 
Q 1834 422 2522 422 
Q 3209 422 3611 934 
Q 4013 1447 4013 2328 
Q 4013 3213 3611 3725 
Q 3209 4238 2522 4238 
z
M 2522 4750 
Q 3503 4750 4090 4092 
Q 4678 3434 4678 2328 
Q 4678 1225 4090 567 
Q 3503 -91 2522 -91 
Q 1538 -91 948 565 
Q 359 1222 359 2328 
Q 359 3434 948 4092 
Q 1538 4750 2522 4750 
z
" transform="scale(0.015625)"/>
     </defs>
     <use xlink:href="#DejaVuSans-61"/>
     <use xlink:href="#DejaVuSans-63" transform="translate(61.279297 0)"/>
     <use xlink:href="#DejaVuSans-74" transform="translate(116.259766 0)"/>
     <use xlink:href="#DejaVuSans-69" transform="translate(155.46875 0)"/>
     <use xlink:href="#DejaVuSans-76" transform="translate(183.251953 0)"/>
     <use xlink:href="#DejaVuSans-65" transform="translate(242.431641 0)"/>
     <use xlink:href="#DejaVuSans-2d" transform="translate(303.955078 0)"/>
     <use xlink:href="#DejaVuSans-4c" transform="translate(340.039062 0)"/>
     <use xlink:href="#DejaVuSans-4f" transform="translate(392.126953 0)"/>
     <use xlink:href="#DejaVuSans-57" transform="translate(470.837891 0)"/>
    </g>
    <!-- (lit when pin=0) -->
    <g transform="translate(423.288281 32.1175) scale(0.1 -0.1)">
     <defs>
      <path id="DejaVuSans-68" d="M 3513 2113 
L 3513 0 
L 2938 0 
L 2938 2094 
Q 2938 2591 2744 2837 
Q 2550 3084 2163 3084 
Q 1697 3084 1428 2787 
Q 1159 2491 1159 1978 
L 1159 0 
L 581 0 
L 581 4863 
L 1159 4863 
L 1159 2956 
Q 1366 3272 1645 3428 
Q 1925 3584 2291 3584 
Q 2894 3584 3203 3211 
Q 3513 2838 3513 2113 
z
" transform="scale(0.015625)"/>
     </defs>
     <use xlink:href="#DejaVuSans-28"/>
     <use xlink:href="#DejaVuSans-6c" transform="translate(39.013672 0)"/>
     <use xlink:href="#DejaVuSans-69" transform="translate(66.796875 0)"/>
     <use xlink:href="#DejaVuSans-74" transform="translate(94.580078 0)"/>
     <use xlink:href="#DejaVuSans-20" transform="translate(133.789062 0)"/>
     <use xlink:href="#DejaVuSans-77" transform="translate(165.576172 0)"/>
     <use xlink:href="#DejaVuSans-68" transform="translate(247.363281 0)"/>
     <use xlink:href="#DejaVuSans-65" transform="translate(310.742188 0)"/>
     <use xlink:href="#DejaVuSans-6e" transform="translate(372.265625 0)"/>
     <use xlink:href="#DejaVuSans-20" transform="translate(435.644531 0)"/>
     <use xlink:href="#DejaVuSans-70" transform="translate(467.431641 0)"/>
     <use xlink:href="#DejaVuSans-69" transform="translate(530.908203 0)"/>
     <use xlink:href="#DejaVuSans-6e" transform="translate(558.691406 0)"/>
     <use xlink:href="#DejaVuSans-3d" transform="translate(622.070312 0)"/>
     <use xlink:href="#DejaVuSans-30" transform="translate(705.859375 0)"/>
     <use xlink:href="#DejaVuSans-29" transform="translate(769.482422 0)"/>
    </g>
   </g>
  </g>
 </g>
 <defs>
  <clipPath id="p0cdf9577cd">
   <rect x="11.2525" y="0" width="491.1" height="269.16"/>
  </clipPath>
 </defs>
</svg>
