<?xml version="1.0" encoding="utf-8" standalone="no"?>
<!DOCTYPE svg PUBLIC "-//W3C//DTD SVG 1.1//EN"
  "http://www.w3.org/Graphics/SVG/1.1/DTD/svg11.dtd">
<svg xmlns:xlink="http://www.w3.org/1999/xlink" width="368.64pt" height="207.36pt" viewBox="0 0 368.64 207.36" xmlns="http://www.w3.org/2000/svg" version="1.1">
 <metadata>
  <rdf:RDF xmlns:dc="http://purl.org/dc/elements/1.1/" xmlns:cc="http://creativecommons.org/ns#" xmlns:rdf="http://www.w3.org/1999/02/22-rdf-syntax-ns#">
   <cc:Work>
    <dc:type rdf:resource="http://purl.org/dc/dcmitype/StillImage"/>
    <dc:date>2026-06-15T16:33:32.307490</dc:date>
    <dc:format>image/svg+xml</dc:format>
    <dc:creator>
     <cc:Agent>
      <dc:title>Matplotlib v3.10.8, https://matplotlib.org/</dc:title>
     </cc:Agent>
    </dc:creator>
   </cc:Work>
  </rdf:RDF>
 </metadata>
 <defs>
  <style type="text/css">*{stroke-linejoin: round; stroke-linecap: butt}</style>
 </defs>
 <g id="figure_1">
  <g id="patch_1">
   <path d="M 0 207.36 
L 368.64 207.36 
L 368.64 0 
L 0 0 
z
" style="fill: #ffffff"/>
  </g>
  <g id="axes_1">
   <g id="line2d_1">
    <path d="M 60.155345 201.933053 
L 60.155345 5.426947 
" clip-path="url(#p4b95f8d7c0)" style="fill: none; stroke-dasharray: 0.8,1.32; stroke-dashoffset: 0; stroke: #d9d9d9; stroke-width: 0.8"/>
   </g>
   <g id="line2d_2">
    <path d="M 110.424436 201.933053 
L 110.424436 5.426947 
" clip-path="url(#p4b95f8d7c0)" style="fill: none; stroke-dasharray: 0.8,1.32; stroke-dashoffset: 0; stroke: #d9d9d9; stroke-width: 0.8"/>
   </g>
   <g id="line2d_3">
    <path d="M 160.693527 201.933053 
L 160.693527 5.426947 
" clip-path="url(#p4b95f8d7c0)" style="fill: none; stroke-dasharray: 0.8,1.32; stroke-dashoffset: 0; stroke: #d9d9d9; stroke-width: 0.8"/>
   </g>
   <g id="line2d_4">
    <path d="M 210.962618 201.933053 
L 210.962618 5.426947 
" clip-path="url(#p4b95f8d7c0)" style="fill: none; stroke-dasharray: 0.8,1.32; stroke-dashoffset: 0; stroke: #d9d9d9; stroke-width: 0.8"/>
   </g>
   <g id="line2d_5">
    <path d="M 261.231709 201.933053 
L 261.231709 5.426947 
" clip-path="url(#p4b95f8d7c0)" style="fill: none; stroke-dasharray: 0.8,1.32; stroke-dashoffset: 0; stroke: #d9d9d9; stroke-width: 0.8"/>
   </g>
   <g id="line2d_6">
    <path d="M 311.5008 201.933053 
L 311.5008 5.426947 
" clip-path="url(#p4b95f8d7c0)" style="fill: none; stroke-dasharray: 0.8,1.32; stroke-dashoffset: 0; stroke: #d9d9d9; stroke-width: 0.8"/>
   </g>
   <g id="line2d_7">
    <path d="M 361.769891 201.933053 
L 361.769891 5.426947 
" clip-path="url(#p4b95f8d7c0)" style="fill: none; stroke-dasharray: 0.8,1.32; stroke-dashoffset: 0; stroke: #d9d9d9; stroke-width: 0.8"/>
   </g>
   <g id="text_1">
    <!-- A -->
    <g style="fill: #1a1aff" transform="translate(37.87125 28.187606) scale(0.12 -0.12)">
     <defs>
      <path id="DejaVuSans-41" d="M 2188 4044 
L 1331 1722 
L 3047 1722 
L 2188 4044 
z
M 1831 4666 
L 2547 4666 
L 4325 0 
L 3669 0 
L 3244 1197 
L 1141 1197 
L 716 0 
L 50 0 
L 1831 4666 
z
" transform="scale(0.015625)"/>
     </defs>
     <use xlink:href="#DejaVuSans-41"/>
    </g>
   </g>
   <g id="line2d_8">
    <path d="M 60.155345 13.810313 
L 110.424436 13.810313 
L 110.424436 13.810313 
L 160.693527 13.810313 
L 160.693527 13.810313 
L 210.962618 13.810313 
L 210.962618 35.9424 
L 261.231709 35.9424 
L 261.231709 35.9424 
L 311.5008 35.9424 
L 311.5008 35.9424 
L 361.769891 35.9424 
" clip-path="url(#p4b95f8d7c0)" style="fill: none; stroke: #000000; stroke-width: 1.6"/>
   </g>
   <g id="text_2">
    <!-- B -->
    <g style="fill: #1a1aff" transform="translate(37.846875 78.487804) scale(0.12 -0.12)">
     <defs>
      <path id="DejaVuSans-42" d="M 1259 2228 
L 1259 519 
L 2272 519 
Q 2781 519 3026 730 
Q 3272 941 3272 1375 
Q 3272 1813 3026 2020 
Q 2781 2228 2272 2228 
L 1259 2228 
z
M 1259 4147 
L 1259 2741 
L 2194 2741 
Q 2656 2741 2882 2914 
Q 3109 3088 3109 3444 
Q 3109 3797 2882 3972 
Q 2656 4147 2194 4147 
L 1259 4147 
z
M 628 4666 
L 2241 4666 
Q 2963 4666 3353 4366 
Q 3744 4066 3744 3513 
Q 3744 3084 3544 2831 
Q 3344 2578 2956 2516 
Q 3422 2416 3680 2098 
Q 3938 1781 3938 1306 
Q 3938 681 3513 340 
Q 3088 0 2303 0 
L 628 0 
L 628 4666 
z
" transform="scale(0.015625)"/>
     </defs>
     <use xlink:href="#DejaVuSans-42"/>
    </g>
   </g>
   <g id="line2d_9">
    <path d="M 60.155345 64.110511 
L 110.424436 64.110511 
L 110.424436 64.110511 
L 160.693527 64.110511 
L 160.693527 64.110511 
L 210.962618 64.110511 
L 210.962618 64.110511 
L 261.231709 64.110511 
L 261.231709 64.110511 
L 311.5008 64.110511 
L 311.5008 64.110511 
L 361.769891 64.110511 
" clip-path="url(#p4b95f8d7c0)" style="fill: none; stroke: #000000; stroke-width: 1.6"/>
   </g>
   <g id="text_3">
    <!-- C -->
    <g style="fill: #1a1aff" transform="translate(37.700625 128.788002) scale(0.12 -0.12)">
     <defs>
      <path id="DejaVuSans-43" d="M 4122 4306 
L 4122 3641 
Q 3803 3938 3442 4084 
Q 3081 4231 2675 4231 
Q 1875 4231 1450 3742 
Q 1025 3253 1025 2328 
Q 1025 1406 1450 917 
Q 1875 428 2675 428 
Q 3081 428 3442 575 
Q 3803 722 4122 1019 
L 4122 359 
Q 3791 134 3420 21 
Q 3050 -91 2638 -91 
Q 1578 -91 968 557 
Q 359 1206 359 2328 
Q 359 3453 968 4101 
Q 1578 4750 2638 4750 
Q 3056 4750 3426 4639 
Q 3797 4528 4122 4306 
z
" transform="scale(0.015625)"/>
     </defs>
     <use xlink:href="#DejaVuSans-43"/>
    </g>
   </g>
   <g id="line2d_10">
    <path d="M 60.155345 114.410709 
L 110.424436 114.410709 
L 110.424436 114.410709 
L 160.693527 114.410709 
L 160.693527 114.410709 
L 210.962618 114.410709 
L 210.962618 114.410709 
L 261.231709 114.410709 
L 261.231709 114.410709 
L 311.5008 114.410709 
L 311.5008 114.410709 
L 361.769891 114.410709 
" clip-path="url(#p4b95f8d7c0)" style="fill: none; stroke: #000000; stroke-width: 1.6"/>
   </g>
   <g id="text_4">
    <!-- Y -->
    <g style="fill: #1a1aff" transform="translate(38.750625 179.0882) scale(0.12 -0.12)">
     <defs>
      <path id="DejaVuSans-59" d="M -13 4666 
L 666 4666 
L 1959 2747 
L 3244 4666 
L 3922 4666 
L 2272 2222 
L 2272 0 
L 1638 0 
L 1638 2222 
L -13 4666 
z
" transform="scale(0.015625)"/>
     </defs>
     <use xlink:href="#DejaVuSans-59"/>
    </g>
   </g>
   <g id="line2d_11">
    <path d="M 60.155345 164.710907 
L 110.424436 164.710907 
L 110.424436 164.710907 
L 160.693527 164.710907 
L 160.693527 164.710907 
L 210.962618 164.710907 
L 210.962618 164.710907 
L 261.231709 164.710907 
L 261.231709 164.710907 
L 311.5008 164.710907 
L 311.5008 164.710907 
L 361.769891 164.710907 
" clip-path="url(#p4b95f8d7c0)" style="fill: none; stroke: #000000; stroke-width: 1.6"/>
   </g>
   <g id="line2d_12">
    <path d="M 210.962618 164.710907 
L 210.962618 186.842994 
L 219.005673 186.842994 
L 219.005673 164.710907 
" clip-path="url(#p4b95f8d7c0)" style="fill: none; stroke: #000000; stroke-width: 1.6; stroke-linecap: square"/>
   </g>
  </g>
 </g>
 <defs>
  <clipPath id="p4b95f8d7c0">
   <rect x="7.3728" y="2.0736" width="359.424" height="203.2128"/>
  </clipPath>
 </defs>
</svg>
