<?xml version="1.0" encoding="utf-8" standalone="no"?>
<!DOCTYPE svg PUBLIC "-//W3C//DTD SVG 1.1//EN"
  "http://www.w3.org/Graphics/SVG/1.1/DTD/svg11.dtd">
<svg xmlns:xlink="http://www.w3.org/1999/xlink" width="324pt" height="129.6pt" viewBox="0 0 324 129.6" xmlns="http://www.w3.org/2000/svg" version="1.1">
 <metadata>
  <rdf:RDF xmlns:dc="http://purl.org/dc/elements/1.1/" xmlns:cc="http://creativecommons.org/ns#" xmlns:rdf="http://www.w3.org/1999/02/22-rdf-syntax-ns#">
   <cc:Work>
    <dc:type rdf:resource="http://purl.org/dc/dcmitype/StillImage"/>
    <dc:date>2026-06-15T16:33:32.399751</dc:date>
    <dc:format>image/svg+xml</dc:format>
    <dc:creator>
     <cc:Agent>
      <dc:title>Matplotlib v3.10.8, https://matplotlib.org/</dc:title>
     </cc:Agent>
    </dc:creator>
   </cc:Work>
  </rdf:RDF>
 </metadata>
 <defs>
  <style type="text/css">*{stroke-linejoin: round; stroke-linecap: butt}</style>
 </defs>
 <g id="figure_1">
  <g id="patch_1">
   <path d="M 0 129.6 
L 324 129.6 
L 324 0 
L 0 0 
z
" style="fill: #ffffff"/>
  </g>
  <g id="axes_1">
   <g id="line2d_1">
    <path d="M 60.414146 124.153412 
L 60.414146 5.446588 
" clip-path="url(#p24dbb8be19)" style="fill: none; stroke-dasharray: 0.8,1.32; stroke-dashoffset: 0; stroke: #d9d9d9; stroke-width: 0.8"/>
   </g>
   <g id="line2d_2">
    <path d="M 111.78 124.153412 
L 111.78 5.446588 
" clip-path="url(#p24dbb8be19)" style="fill: none; stroke-dasharray: 0.8,1.32; stroke-dashoffset: 0; stroke: #d9d9d9; stroke-width: 0.8"/>
   </g>
   <g id="line2d_3">
    <path d="M 163.145854 124.153412 
L 163.145854 5.446588 
" clip-path="url(#p24dbb8be19)" style="fill: none; stroke-dasharray: 0.8,1.32; stroke-dashoffset: 0; stroke: #d9d9d9; stroke-width: 0.8"/>
   </g>
   <g id="line2d_4">
    <path d="M 214.511707 124.153412 
L 214.511707 5.446588 
" clip-path="url(#p24dbb8be19)" style="fill: none; stroke-dasharray: 0.8,1.32; stroke-dashoffset: 0; stroke: #d9d9d9; stroke-width: 0.8"/>
   </g>
   <g id="line2d_5">
    <path d="M 265.877561 124.153412 
L 265.877561 5.446588 
" clip-path="url(#p24dbb8be19)" style="fill: none; stroke-dasharray: 0.8,1.32; stroke-dashoffset: 0; stroke: #d9d9d9; stroke-width: 0.8"/>
   </g>
   <g id="line2d_6">
    <path d="M 317.243415 124.153412 
L 317.243415 5.446588 
" clip-path="url(#p24dbb8be19)" style="fill: none; stroke-dasharray: 0.8,1.32; stroke-dashoffset: 0; stroke: #d9d9d9; stroke-width: 0.8"/>
   </g>
   <g id="text_1">
    <!-- in -->
    <g style="fill: #1a1aff" transform="translate(35.092957 32.83125) scale(0.12 -0.12)">
     <defs>
      <path id="DejaVuSans-69" d="M 603 3500 
L 1178 3500 
L 1178 0 
L 603 0 
L 603 3500 
z
M 603 4863 
L 1178 4863 
L 1178 4134 
L 603 4134 
L 603 4863 
z
" transform="scale(0.015625)"/>
      <path id="DejaVuSans-6e" d="M 3513 2113 
L 3513 0 
L 2938 0 
L 2938 2094 
Q 2938 2591 2744 2837 
Q 2550 3084 2163 3084 
Q 1697 3084 1428 2787 
Q 1159 2491 1159 1978 
L 1159 0 
L 581 0 
L 581 3500 
L 1159 3500 
L 1159 2956 
Q 1366 3272 1645 3428 
Q 1925 3584 2291 3584 
Q 2894 3584 3203 3211 
Q 3513 2838 3513 2113 
z
" transform="scale(0.015625)"/>
     </defs>
     <use xlink:href="#DejaVuSans-69"/>
     <use xlink:href="#DejaVuSans-6e" transform="translate(27.783203 0)"/>
    </g>
   </g>
   <g id="line2d_7">
    <path d="M 65.550732 15.823059 
L 106.643415 15.823059 
" clip-path="url(#p24dbb8be19)" style="fill: none; stroke: #000000; stroke-width: 1.4; stroke-linecap: square"/>
   </g>
   <g id="line2d_8">
    <path d="M 65.550732 43.216941 
L 106.643415 43.216941 
" clip-path="url(#p24dbb8be19)" style="fill: none; stroke: #000000; stroke-width: 1.4; stroke-linecap: square"/>
   </g>
   <g id="line2d_9">
    <path d="M 60.414146 29.52 
L 65.550732 15.823059 
" clip-path="url(#p24dbb8be19)" style="fill: none; stroke: #000000; stroke-width: 1.4; stroke-linecap: square"/>
   </g>
   <g id="line2d_10">
    <path d="M 60.414146 29.52 
L 65.550732 43.216941 
" clip-path="url(#p24dbb8be19)" style="fill: none; stroke: #000000; stroke-width: 1.4; stroke-linecap: square"/>
   </g>
   <g id="line2d_11">
    <path d="M 106.643415 15.823059 
L 111.78 29.52 
" clip-path="url(#p24dbb8be19)" style="fill: none; stroke: #000000; stroke-width: 1.4; stroke-linecap: square"/>
   </g>
   <g id="line2d_12">
    <path d="M 106.643415 43.216941 
L 111.78 29.52 
" clip-path="url(#p24dbb8be19)" style="fill: none; stroke: #000000; stroke-width: 1.4; stroke-linecap: square"/>
   </g>
   <g id="line2d_13">
    <path d="M 116.916585 15.823059 
L 158.009268 15.823059 
" clip-path="url(#p24dbb8be19)" style="fill: none; stroke: #000000; stroke-width: 1.4; stroke-linecap: square"/>
   </g>
   <g id="line2d_14">
    <path d="M 116.916585 43.216941 
L 158.009268 43.216941 
" clip-path="url(#p24dbb8be19)" style="fill: none; stroke: #000000; stroke-width: 1.4; stroke-linecap: square"/>
   </g>
   <g id="line2d_15">
    <path d="M 111.78 29.52 
L 116.916585 15.823059 
" clip-path="url(#p24dbb8be19)" style="fill: none; stroke: #000000; stroke-width: 1.4; stroke-linecap: square"/>
   </g>
   <g id="line2d_16">
    <path d="M 111.78 29.52 
L 116.916585 43.216941 
" clip-path="url(#p24dbb8be19)" style="fill: none; stroke: #000000; stroke-width: 1.4; stroke-linecap: square"/>
   </g>
   <g id="line2d_17">
    <path d="M 158.009268 15.823059 
L 163.145854 29.52 
" clip-path="url(#p24dbb8be19)" style="fill: none; stroke: #000000; stroke-width: 1.4; stroke-linecap: square"/>
   </g>
   <g id="line2d_18">
    <path d="M 158.009268 43.216941 
L 163.145854 29.52 
" clip-path="url(#p24dbb8be19)" style="fill: none; stroke: #000000; stroke-width: 1.4; stroke-linecap: square"/>
   </g>
   <g id="line2d_19">
    <path d="M 168.282439 15.823059 
L 209.375122 15.823059 
" clip-path="url(#p24dbb8be19)" style="fill: none; stroke: #000000; stroke-width: 1.4; stroke-linecap: square"/>
   </g>
   <g id="line2d_20">
    <path d="M 168.282439 43.216941 
L 209.375122 43.216941 
" clip-path="url(#p24dbb8be19)" style="fill: none; stroke: #000000; stroke-width: 1.4; stroke-linecap: square"/>
   </g>
   <g id="line2d_21">
    <path d="M 163.145854 29.52 
L 168.282439 15.823059 
" clip-path="url(#p24dbb8be19)" style="fill: none; stroke: #000000; stroke-width: 1.4; stroke-linecap: square"/>
   </g>
   <g id="line2d_22">
    <path d="M 163.145854 29.52 
L 168.282439 43.216941 
" clip-path="url(#p24dbb8be19)" style="fill: none; stroke: #000000; stroke-width: 1.4; stroke-linecap: square"/>
   </g>
   <g id="line2d_23">
    <path d="M 209.375122 15.823059 
L 214.511707 29.52 
" clip-path="url(#p24dbb8be19)" style="fill: none; stroke: #000000; stroke-width: 1.4; stroke-linecap: square"/>
   </g>
   <g id="line2d_24">
    <path d="M 209.375122 43.216941 
L 214.511707 29.52 
" clip-path="url(#p24dbb8be19)" style="fill: none; stroke: #000000; stroke-width: 1.4; stroke-linecap: square"/>
   </g>
   <g id="line2d_25">
    <path d="M 219.648293 15.823059 
L 260.740976 15.823059 
" clip-path="url(#p24dbb8be19)" style="fill: none; stroke: #000000; stroke-width: 1.4; stroke-linecap: square"/>
   </g>
   <g id="line2d_26">
    <path d="M 219.648293 43.216941 
L 260.740976 43.216941 
" clip-path="url(#p24dbb8be19)" style="fill: none; stroke: #000000; stroke-width: 1.4; stroke-linecap: square"/>
   </g>
   <g id="line2d_27">
    <path d="M 214.511707 29.52 
L 219.648293 15.823059 
" clip-path="url(#p24dbb8be19)" style="fill: none; stroke: #000000; stroke-width: 1.4; stroke-linecap: square"/>
   </g>
   <g id="line2d_28">
    <path d="M 214.511707 29.52 
L 219.648293 43.216941 
" clip-path="url(#p24dbb8be19)" style="fill: none; stroke: #000000; stroke-width: 1.4; stroke-linecap: square"/>
   </g>
   <g id="line2d_29">
    <path d="M 260.740976 15.823059 
L 265.877561 29.52 
" clip-path="url(#p24dbb8be19)" style="fill: none; stroke: #000000; stroke-width: 1.4; stroke-linecap: square"/>
   </g>
   <g id="line2d_30">
    <path d="M 260.740976 43.216941 
L 265.877561 29.52 
" clip-path="url(#p24dbb8be19)" style="fill: none; stroke: #000000; stroke-width: 1.4; stroke-linecap: square"/>
   </g>
   <g id="line2d_31">
    <path d="M 271.014146 15.823059 
L 312.106829 15.823059 
" clip-path="url(#p24dbb8be19)" style="fill: none; stroke: #000000; stroke-width: 1.4; stroke-linecap: square"/>
   </g>
   <g id="line2d_32">
    <path d="M 271.014146 43.216941 
L 312.106829 43.216941 
" clip-path="url(#p24dbb8be19)" style="fill: none; stroke: #000000; stroke-width: 1.4; stroke-linecap: square"/>
   </g>
   <g id="line2d_33">
    <path d="M 265.877561 29.52 
L 271.014146 15.823059 
" clip-path="url(#p24dbb8be19)" style="fill: none; stroke: #000000; stroke-width: 1.4; stroke-linecap: square"/>
   </g>
   <g id="line2d_34">
    <path d="M 265.877561 29.52 
L 271.014146 43.216941 
" clip-path="url(#p24dbb8be19)" style="fill: none; stroke: #000000; stroke-width: 1.4; stroke-linecap: square"/>
   </g>
   <g id="line2d_35">
    <path d="M 312.106829 15.823059 
L 317.243415 29.52 
" clip-path="url(#p24dbb8be19)" style="fill: none; stroke: #000000; stroke-width: 1.4; stroke-linecap: square"/>
   </g>
   <g id="line2d_36">
    <path d="M 312.106829 43.216941 
L 317.243415 29.52 
" clip-path="url(#p24dbb8be19)" style="fill: none; stroke: #000000; stroke-width: 1.4; stroke-linecap: square"/>
   </g>
   <g id="text_2">
    <!-- Y -->
    <g style="fill: #1a1aff" transform="translate(38.702332 95.090074) scale(0.12 -0.12)">
     <defs>
      <path id="DejaVuSans-59" d="M -13 4666 
L 666 4666 
L 1959 2747 
L 3244 4666 
L 3922 4666 
L 2272 2222 
L 2272 0 
L 1638 0 
L 1638 2222 
L -13 4666 
z
" transform="scale(0.015625)"/>
     </defs>
     <use xlink:href="#DejaVuSans-59"/>
    </g>
   </g>
   <g id="line2d_37">
    <path d="M 60.414146 105.475765 
L 111.78 105.475765 
L 111.78 105.475765 
L 163.145854 105.475765 
L 163.145854 105.475765 
L 214.511707 105.475765 
L 214.511707 105.475765 
L 265.877561 105.475765 
L 265.877561 78.081882 
L 317.243415 78.081882 
" clip-path="url(#p24dbb8be19)" style="fill: none; stroke: #000000; stroke-width: 1.6"/>
   </g>
   <g id="text_3">
    <!-- A -->
    <g transform="translate(82.847776 32.141406) scale(0.095 -0.095)">
     <defs>
      <path id="DejaVuSans-41" d="M 2188 4044 
L 1331 1722 
L 3047 1722 
L 2188 4044 
z
M 1831 4666 
L 2547 4666 
L 4325 0 
L 3669 0 
L 3244 1197 
L 1141 1197 
L 716 0 
L 50 0 
L 1831 4666 
z
" transform="scale(0.015625)"/>
     </defs>
     <use xlink:href="#DejaVuSans-41"/>
    </g>
   </g>
   <g id="text_4">
    <!-- B -->
    <g transform="translate(134.203982 32.141406) scale(0.095 -0.095)">
     <defs>
      <path id="DejaVuSans-42" d="M 1259 2228 
L 1259 519 
L 2272 519 
Q 2781 519 3026 730 
Q 3272 941 3272 1375 
Q 3272 1813 3026 2020 
Q 2781 2228 2272 2228 
L 1259 2228 
z
M 1259 4147 
L 1259 2741 
L 2194 2741 
Q 2656 2741 2882 2914 
Q 3109 3088 3109 3444 
Q 3109 3797 2882 3972 
Q 2656 4147 2194 4147 
L 1259 4147 
z
M 628 4666 
L 2241 4666 
Q 2963 4666 3353 4366 
Q 3744 4066 3744 3513 
Q 3744 3084 3544 2831 
Q 3344 2578 2956 2516 
Q 3422 2416 3680 2098 
Q 3938 1781 3938 1306 
Q 3938 681 3513 340 
Q 3088 0 2303 0 
L 628 0 
L 628 4666 
z
" transform="scale(0.015625)"/>
     </defs>
     <use xlink:href="#DejaVuSans-42"/>
    </g>
   </g>
   <g id="text_5">
    <!-- A -->
    <g transform="translate(185.579484 32.141406) scale(0.095 -0.095)">
     <use xlink:href="#DejaVuSans-41"/>
    </g>
   </g>
   <g id="text_6">
    <!-- B -->
    <g transform="translate(236.935689 32.141406) scale(0.095 -0.095)">
     <use xlink:href="#DejaVuSans-42"/>
    </g>
   </g>
   <g id="text_7">
    <!-- A -->
    <g transform="translate(288.311191 32.141406) scale(0.095 -0.095)">
     <use xlink:href="#DejaVuSans-41"/>
    </g>
   </g>
  </g>
 </g>
 <defs>
  <clipPath id="p24dbb8be19">
   <rect x="6.48" y="1.296" width="315.9" height="127.008"/>
  </clipPath>
 </defs>
</svg>
