<?xml version="1.0" encoding="utf-8" standalone="no"?>
<!DOCTYPE svg PUBLIC "-//W3C//DTD SVG 1.1//EN"
  "http://www.w3.org/Graphics/SVG/1.1/DTD/svg11.dtd">
<svg xmlns:xlink="http://www.w3.org/1999/xlink" width="636.48pt" height="207.36pt" viewBox="0 0 636.48 207.36" xmlns="http://www.w3.org/2000/svg" version="1.1">
 <metadata>
  <rdf:RDF xmlns:dc="http://purl.org/dc/elements/1.1/" xmlns:cc="http://creativecommons.org/ns#" xmlns:rdf="http://www.w3.org/1999/02/22-rdf-syntax-ns#">
   <cc:Work>
    <dc:type rdf:resource="http://purl.org/dc/dcmitype/StillImage"/>
    <dc:date>2026-06-15T16:33:32.375888</dc:date>
    <dc:format>image/svg+xml</dc:format>
    <dc:creator>
     <cc:Agent>
      <dc:title>Matplotlib v3.10.8, https://matplotlib.org/</dc:title>
     </cc:Agent>
    </dc:creator>
   </cc:Work>
  </rdf:RDF>
 </metadata>
 <defs>
  <style type="text/css">*{stroke-linejoin: round; stroke-linecap: butt}</style>
 </defs>
 <g id="figure_1">
  <g id="patch_1">
   <path d="M 0 207.36 
L 636.48 207.36 
L 636.48 0 
L 0 0 
z
" style="fill: #ffffff"/>
  </g>
  <g id="axes_1">
   <g id="line2d_1">
    <path d="M 62.280657 201.933053 
L 62.280657 5.426947 
" clip-path="url(#p65793e91ea)" style="fill: none; stroke-dasharray: 0.8,1.32; stroke-dashoffset: 0; stroke: #d9d9d9; stroke-width: 0.8"/>
   </g>
   <g id="line2d_2">
    <path d="M 109.47214 201.933053 
L 109.47214 5.426947 
" clip-path="url(#p65793e91ea)" style="fill: none; stroke-dasharray: 0.8,1.32; stroke-dashoffset: 0; stroke: #d9d9d9; stroke-width: 0.8"/>
   </g>
   <g id="line2d_3">
    <path d="M 156.663623 201.933053 
L 156.663623 5.426947 
" clip-path="url(#p65793e91ea)" style="fill: none; stroke-dasharray: 0.8,1.32; stroke-dashoffset: 0; stroke: #d9d9d9; stroke-width: 0.8"/>
   </g>
   <g id="line2d_4">
    <path d="M 203.855106 201.933053 
L 203.855106 5.426947 
" clip-path="url(#p65793e91ea)" style="fill: none; stroke-dasharray: 0.8,1.32; stroke-dashoffset: 0; stroke: #d9d9d9; stroke-width: 0.8"/>
   </g>
   <g id="line2d_5">
    <path d="M 251.046589 201.933053 
L 251.046589 5.426947 
" clip-path="url(#p65793e91ea)" style="fill: none; stroke-dasharray: 0.8,1.32; stroke-dashoffset: 0; stroke: #d9d9d9; stroke-width: 0.8"/>
   </g>
   <g id="line2d_6">
    <path d="M 298.238071 201.933053 
L 298.238071 5.426947 
" clip-path="url(#p65793e91ea)" style="fill: none; stroke-dasharray: 0.8,1.32; stroke-dashoffset: 0; stroke: #d9d9d9; stroke-width: 0.8"/>
   </g>
   <g id="line2d_7">
    <path d="M 345.429554 201.933053 
L 345.429554 5.426947 
" clip-path="url(#p65793e91ea)" style="fill: none; stroke-dasharray: 0.8,1.32; stroke-dashoffset: 0; stroke: #d9d9d9; stroke-width: 0.8"/>
   </g>
   <g id="line2d_8">
    <path d="M 392.621037 201.933053 
L 392.621037 5.426947 
" clip-path="url(#p65793e91ea)" style="fill: none; stroke-dasharray: 0.8,1.32; stroke-dashoffset: 0; stroke: #d9d9d9; stroke-width: 0.8"/>
   </g>
   <g id="line2d_9">
    <path d="M 439.81252 201.933053 
L 439.81252 5.426947 
" clip-path="url(#p65793e91ea)" style="fill: none; stroke-dasharray: 0.8,1.32; stroke-dashoffset: 0; stroke: #d9d9d9; stroke-width: 0.8"/>
   </g>
   <g id="line2d_10">
    <path d="M 487.004003 201.933053 
L 487.004003 5.426947 
" clip-path="url(#p65793e91ea)" style="fill: none; stroke-dasharray: 0.8,1.32; stroke-dashoffset: 0; stroke: #d9d9d9; stroke-width: 0.8"/>
   </g>
   <g id="line2d_11">
    <path d="M 534.195486 201.933053 
L 534.195486 5.426947 
" clip-path="url(#p65793e91ea)" style="fill: none; stroke-dasharray: 0.8,1.32; stroke-dashoffset: 0; stroke: #d9d9d9; stroke-width: 0.8"/>
   </g>
   <g id="line2d_12">
    <path d="M 581.386969 201.933053 
L 581.386969 5.426947 
" clip-path="url(#p65793e91ea)" style="fill: none; stroke-dasharray: 0.8,1.32; stroke-dashoffset: 0; stroke: #d9d9d9; stroke-width: 0.8"/>
   </g>
   <g id="line2d_13">
    <path d="M 628.578452 201.933053 
L 628.578452 5.426947 
" clip-path="url(#p65793e91ea)" style="fill: none; stroke-dasharray: 0.8,1.32; stroke-dashoffset: 0; stroke: #d9d9d9; stroke-width: 0.8"/>
   </g>
   <g id="text_1">
    <!-- clk -->
    <g style="fill: #1a1aff" transform="translate(32.186417 28.187606) scale(0.12 -0.12)">
     <defs>
      <path id="DejaVuSans-63" d="M 3122 3366 
L 3122 2828 
Q 2878 2963 2633 3030 
Q 2388 3097 2138 3097 
Q 1578 3097 1268 2742 
Q 959 2388 959 1747 
Q 959 1106 1268 751 
Q 1578 397 2138 397 
Q 2388 397 2633 464 
Q 2878 531 3122 666 
L 3122 134 
Q 2881 22 2623 -34 
Q 2366 -91 2075 -91 
Q 1284 -91 818 406 
Q 353 903 353 1747 
Q 353 2603 823 3093 
Q 1294 3584 2113 3584 
Q 2378 3584 2631 3529 
Q 2884 3475 3122 3366 
z
" transform="scale(0.015625)"/>
      <path id="DejaVuSans-6c" d="M 603 4863 
L 1178 4863 
L 1178 0 
L 603 0 
L 603 4863 
z
" transform="scale(0.015625)"/>
      <path id="DejaVuSans-6b" d="M 581 4863 
L 1159 4863 
L 1159 1991 
L 2875 3500 
L 3609 3500 
L 1753 1863 
L 3688 0 
L 2938 0 
L 1159 1709 
L 1159 0 
L 581 0 
L 581 4863 
z
" transform="scale(0.015625)"/>
     </defs>
     <use xlink:href="#DejaVuSans-63"/>
     <use xlink:href="#DejaVuSans-6c" transform="translate(54.980469 0)"/>
     <use xlink:href="#DejaVuSans-6b" transform="translate(82.763672 0)"/>
    </g>
   </g>
   <g id="line2d_14">
    <path d="M 62.280657 35.9424 
L 109.47214 35.9424 
L 109.47214 13.810313 
L 156.663623 13.810313 
L 156.663623 35.9424 
L 203.855106 35.9424 
L 203.855106 13.810313 
L 251.046589 13.810313 
L 251.046589 35.9424 
L 298.238071 35.9424 
L 298.238071 13.810313 
L 345.429554 13.810313 
L 345.429554 35.9424 
L 392.621037 35.9424 
L 392.621037 13.810313 
L 439.81252 13.810313 
L 439.81252 35.9424 
L 487.004003 35.9424 
L 487.004003 13.810313 
L 534.195486 13.810313 
L 534.195486 35.9424 
L 581.386969 35.9424 
L 581.386969 13.810313 
L 628.578452 13.810313 
" clip-path="url(#p65793e91ea)" style="fill: none; stroke: #000000; stroke-width: 1.6"/>
   </g>
   <g id="text_2">
    <!-- b -->
    <g style="fill: #1a1aff" transform="translate(41.448917 78.487804) scale(0.12 -0.12)">
     <defs>
      <path id="DejaVuSans-62" d="M 3116 1747 
Q 3116 2381 2855 2742 
Q 2594 3103 2138 3103 
Q 1681 3103 1420 2742 
Q 1159 2381 1159 1747 
Q 1159 1113 1420 752 
Q 1681 391 2138 391 
Q 2594 391 2855 752 
Q 3116 1113 3116 1747 
z
M 1159 2969 
Q 1341 3281 1617 3432 
Q 1894 3584 2278 3584 
Q 2916 3584 3314 3078 
Q 3713 2572 3713 1747 
Q 3713 922 3314 415 
Q 2916 -91 2278 -91 
Q 1894 -91 1617 61 
Q 1341 213 1159 525 
L 1159 0 
L 581 0 
L 581 4863 
L 1159 4863 
L 1159 2969 
z
" transform="scale(0.015625)"/>
     </defs>
     <use xlink:href="#DejaVuSans-62"/>
    </g>
   </g>
   <g id="line2d_15">
    <path d="M 62.280657 64.110511 
L 109.47214 64.110511 
L 109.47214 64.110511 
L 156.663623 64.110511 
L 156.663623 86.242598 
L 203.855106 86.242598 
L 203.855106 86.242598 
L 251.046589 86.242598 
L 251.046589 64.110511 
L 298.238071 64.110511 
L 298.238071 64.110511 
L 345.429554 64.110511 
L 345.429554 64.110511 
L 392.621037 64.110511 
L 392.621037 64.110511 
L 439.81252 64.110511 
L 439.81252 86.242598 
L 487.004003 86.242598 
L 487.004003 86.242598 
L 534.195486 86.242598 
L 534.195486 86.242598 
L 581.386969 86.242598 
L 581.386969 86.242598 
L 628.578452 86.242598 
" clip-path="url(#p65793e91ea)" style="fill: none; stroke: #000000; stroke-width: 1.6"/>
   </g>
   <g id="text_3">
    <!-- a -->
    <g style="fill: #1a1aff" transform="translate(41.713292 128.788002) scale(0.12 -0.12)">
     <defs>
      <path id="DejaVuSans-61" d="M 2194 1759 
Q 1497 1759 1228 1600 
Q 959 1441 959 1056 
Q 959 750 1161 570 
Q 1363 391 1709 391 
Q 2188 391 2477 730 
Q 2766 1069 2766 1631 
L 2766 1759 
L 2194 1759 
z
M 3341 1997 
L 3341 0 
L 2766 0 
L 2766 531 
Q 2569 213 2275 61 
Q 1981 -91 1556 -91 
Q 1019 -91 701 211 
Q 384 513 384 1019 
Q 384 1609 779 1909 
Q 1175 2209 1959 2209 
L 2766 2209 
L 2766 2266 
Q 2766 2663 2505 2880 
Q 2244 3097 1772 3097 
Q 1472 3097 1187 3025 
Q 903 2953 641 2809 
L 641 3341 
Q 956 3463 1253 3523 
Q 1550 3584 1831 3584 
Q 2591 3584 2966 3190 
Q 3341 2797 3341 1997 
z
" transform="scale(0.015625)"/>
     </defs>
     <use xlink:href="#DejaVuSans-61"/>
    </g>
   </g>
   <g id="line2d_16">
    <path d="M 62.280657 136.542796 
L 109.47214 136.542796 
L 109.47214 136.542796 
L 156.663623 136.542796 
L 156.663623 114.410709 
L 203.855106 114.410709 
L 203.855106 114.410709 
L 251.046589 114.410709 
L 251.046589 136.542796 
L 298.238071 136.542796 
L 298.238071 136.542796 
L 345.429554 136.542796 
L 345.429554 114.410709 
L 392.621037 114.410709 
L 392.621037 114.410709 
L 439.81252 114.410709 
L 439.81252 114.410709 
L 487.004003 114.410709 
L 487.004003 114.410709 
L 534.195486 114.410709 
L 534.195486 136.542796 
L 581.386969 136.542796 
L 581.386969 136.542796 
L 628.578452 136.542796 
" clip-path="url(#p65793e91ea)" style="fill: none; stroke: #000000; stroke-width: 1.6"/>
   </g>
   <g id="text_4">
    <!-- c -->
    <g style="fill: #1a1aff" transform="translate(42.468917 179.0882) scale(0.12 -0.12)">
     <use xlink:href="#DejaVuSans-63"/>
    </g>
   </g>
   <g id="line2d_17">
    <path d="M 62.280657 186.842994 
L 109.47214 186.842994 
L 109.47214 186.842994 
L 156.663623 186.842994 
L 156.663623 186.842994 
L 203.855106 186.842994 
L 203.855106 186.842994 
L 251.046589 186.842994 
L 251.046589 164.710907 
L 298.238071 164.710907 
L 298.238071 164.710907 
L 345.429554 164.710907 
L 345.429554 186.842994 
L 392.621037 186.842994 
L 392.621037 186.842994 
L 439.81252 186.842994 
L 439.81252 164.710907 
L 487.004003 164.710907 
L 487.004003 164.710907 
L 534.195486 164.710907 
L 534.195486 164.710907 
L 581.386969 164.710907 
L 581.386969 164.710907 
L 628.578452 164.710907 
" clip-path="url(#p65793e91ea)" style="fill: none; stroke: #000000; stroke-width: 1.6"/>
   </g>
  </g>
 </g>
 <defs>
  <clipPath id="p65793e91ea">
   <rect x="12.7296" y="2.0736" width="620.568" height="203.2128"/>
  </clipPath>
 </defs>
</svg>
