<?xml version="1.0" encoding="utf-8" standalone="no"?>
<!DOCTYPE svg PUBLIC "-//W3C//DTD SVG 1.1//EN"
  "http://www.w3.org/Graphics/SVG/1.1/DTD/svg11.dtd">
<svg xmlns:xlink="http://www.w3.org/1999/xlink" width="457.92pt" height="252pt" viewBox="0 0 457.92 252" xmlns="http://www.w3.org/2000/svg" version="1.1">
 <metadata>
  <rdf:RDF xmlns:dc="http://purl.org/dc/elements/1.1/" xmlns:cc="http://creativecommons.org/ns#" xmlns:rdf="http://www.w3.org/1999/02/22-rdf-syntax-ns#">
   <cc:Work>
    <dc:type rdf:resource="http://purl.org/dc/dcmitype/StillImage"/>
    <dc:date>2026-06-15T16:33:32.288129</dc:date>
    <dc:format>image/svg+xml</dc:format>
    <dc:creator>
     <cc:Agent>
      <dc:title>Matplotlib v3.10.8, https://matplotlib.org/</dc:title>
     </cc:Agent>
    </dc:creator>
   </cc:Work>
  </rdf:RDF>
 </metadata>
 <defs>
  <style type="text/css">*{stroke-linejoin: round; stroke-linecap: butt}</style>
 </defs>
 <g id="figure_1">
  <g id="patch_1">
   <path d="M 0 252 
L 457.92 252 
L 457.92 0 
L 0 0 
z
" style="fill: #ffffff"/>
  </g>
  <g id="axes_1">
   <g id="line2d_1">
    <path d="M 60.392892 246.213333 
L 60.392892 5.786667 
" clip-path="url(#p60e2fd53be)" style="fill: none; stroke-dasharray: 0.8,1.32; stroke-dashoffset: 0; stroke: #d9d9d9; stroke-width: 0.8"/>
   </g>
   <g id="line2d_2">
    <path d="M 109.187646 246.213333 
L 109.187646 5.786667 
" clip-path="url(#p60e2fd53be)" style="fill: none; stroke-dasharray: 0.8,1.32; stroke-dashoffset: 0; stroke: #d9d9d9; stroke-width: 0.8"/>
   </g>
   <g id="line2d_3">
    <path d="M 157.9824 246.213333 
L 157.9824 5.786667 
" clip-path="url(#p60e2fd53be)" style="fill: none; stroke-dasharray: 0.8,1.32; stroke-dashoffset: 0; stroke: #d9d9d9; stroke-width: 0.8"/>
   </g>
   <g id="line2d_4">
    <path d="M 206.777154 246.213333 
L 206.777154 5.786667 
" clip-path="url(#p60e2fd53be)" style="fill: none; stroke-dasharray: 0.8,1.32; stroke-dashoffset: 0; stroke: #d9d9d9; stroke-width: 0.8"/>
   </g>
   <g id="line2d_5">
    <path d="M 255.571908 246.213333 
L 255.571908 5.786667 
" clip-path="url(#p60e2fd53be)" style="fill: none; stroke-dasharray: 0.8,1.32; stroke-dashoffset: 0; stroke: #d9d9d9; stroke-width: 0.8"/>
   </g>
   <g id="line2d_6">
    <path d="M 304.366662 246.213333 
L 304.366662 5.786667 
" clip-path="url(#p60e2fd53be)" style="fill: none; stroke-dasharray: 0.8,1.32; stroke-dashoffset: 0; stroke: #d9d9d9; stroke-width: 0.8"/>
   </g>
   <g id="line2d_7">
    <path d="M 353.161416 246.213333 
L 353.161416 5.786667 
" clip-path="url(#p60e2fd53be)" style="fill: none; stroke-dasharray: 0.8,1.32; stroke-dashoffset: 0; stroke: #d9d9d9; stroke-width: 0.8"/>
   </g>
   <g id="line2d_8">
    <path d="M 401.95617 246.213333 
L 401.95617 5.786667 
" clip-path="url(#p60e2fd53be)" style="fill: none; stroke-dasharray: 0.8,1.32; stroke-dashoffset: 0; stroke: #d9d9d9; stroke-width: 0.8"/>
   </g>
   <g id="line2d_9">
    <path d="M 450.750925 246.213333 
L 450.750925 5.786667 
" clip-path="url(#p60e2fd53be)" style="fill: none; stroke-dasharray: 0.8,1.32; stroke-dashoffset: 0; stroke: #d9d9d9; stroke-width: 0.8"/>
   </g>
   <g id="text_1">
    <!-- A -->
    <g style="fill: #1a1aff" transform="translate(38.521611 28.044583) scale(0.12 -0.12)">
     <defs>
      <path id="DejaVuSans-41" d="M 2188 4044 
L 1331 1722 
L 3047 1722 
L 2188 4044 
z
M 1831 4666 
L 2547 4666 
L 4325 0 
L 3669 0 
L 3244 1197 
L 1141 1197 
L 716 0 
L 50 0 
L 1831 4666 
z
" transform="scale(0.015625)"/>
     </defs>
     <use xlink:href="#DejaVuSans-41"/>
    </g>
   </g>
   <g id="line2d_10">
    <path d="M 60.392892 35.513333 
L 109.187646 35.513333 
L 109.187646 35.513333 
L 157.9824 35.513333 
L 157.9824 35.513333 
L 206.777154 35.513333 
L 206.777154 35.513333 
L 255.571908 35.513333 
L 255.571908 13.953333 
L 304.366662 13.953333 
L 304.366662 13.953333 
L 353.161416 13.953333 
L 353.161416 13.953333 
L 401.95617 13.953333 
L 401.95617 13.953333 
L 450.750925 13.953333 
" clip-path="url(#p60e2fd53be)" style="fill: none; stroke: #000000; stroke-width: 1.6"/>
   </g>
   <g id="text_2">
    <!-- B -->
    <g style="fill: #1a1aff" transform="translate(38.497236 77.044583) scale(0.12 -0.12)">
     <defs>
      <path id="DejaVuSans-42" d="M 1259 2228 
L 1259 519 
L 2272 519 
Q 2781 519 3026 730 
Q 3272 941 3272 1375 
Q 3272 1813 3026 2020 
Q 2781 2228 2272 2228 
L 1259 2228 
z
M 1259 4147 
L 1259 2741 
L 2194 2741 
Q 2656 2741 2882 2914 
Q 3109 3088 3109 3444 
Q 3109 3797 2882 3972 
Q 2656 4147 2194 4147 
L 1259 4147 
z
M 628 4666 
L 2241 4666 
Q 2963 4666 3353 4366 
Q 3744 4066 3744 3513 
Q 3744 3084 3544 2831 
Q 3344 2578 2956 2516 
Q 3422 2416 3680 2098 
Q 3938 1781 3938 1306 
Q 3938 681 3513 340 
Q 3088 0 2303 0 
L 628 0 
L 628 4666 
z
" transform="scale(0.015625)"/>
     </defs>
     <use xlink:href="#DejaVuSans-42"/>
    </g>
   </g>
   <g id="line2d_11">
    <path d="M 60.392892 84.513333 
L 109.187646 84.513333 
L 109.187646 84.513333 
L 157.9824 84.513333 
L 157.9824 62.953333 
L 206.777154 62.953333 
L 206.777154 62.953333 
L 255.571908 62.953333 
L 255.571908 84.513333 
L 304.366662 84.513333 
L 304.366662 84.513333 
L 353.161416 84.513333 
L 353.161416 62.953333 
L 401.95617 62.953333 
L 401.95617 62.953333 
L 450.750925 62.953333 
" clip-path="url(#p60e2fd53be)" style="fill: none; stroke: #000000; stroke-width: 1.6"/>
   </g>
   <g id="text_3">
    <!-- Ci -->
    <g style="fill: #1a1aff" transform="translate(35.017236 126.044583) scale(0.12 -0.12)">
     <defs>
      <path id="DejaVuSans-43" d="M 4122 4306 
L 4122 3641 
Q 3803 3938 3442 4084 
Q 3081 4231 2675 4231 
Q 1875 4231 1450 3742 
Q 1025 3253 1025 2328 
Q 1025 1406 1450 917 
Q 1875 428 2675 428 
Q 3081 428 3442 575 
Q 3803 722 4122 1019 
L 4122 359 
Q 3791 134 3420 21 
Q 3050 -91 2638 -91 
Q 1578 -91 968 557 
Q 359 1206 359 2328 
Q 359 3453 968 4101 
Q 1578 4750 2638 4750 
Q 3056 4750 3426 4639 
Q 3797 4528 4122 4306 
z
" transform="scale(0.015625)"/>
      <path id="DejaVuSans-69" d="M 603 3500 
L 1178 3500 
L 1178 0 
L 603 0 
L 603 3500 
z
M 603 4863 
L 1178 4863 
L 1178 4134 
L 603 4134 
L 603 4863 
z
" transform="scale(0.015625)"/>
     </defs>
     <use xlink:href="#DejaVuSans-43"/>
     <use xlink:href="#DejaVuSans-69" transform="translate(69.824219 0)"/>
    </g>
   </g>
   <g id="line2d_12">
    <path d="M 60.392892 133.513333 
L 109.187646 133.513333 
L 109.187646 111.953333 
L 157.9824 111.953333 
L 157.9824 133.513333 
L 206.777154 133.513333 
L 206.777154 111.953333 
L 255.571908 111.953333 
L 255.571908 133.513333 
L 304.366662 133.513333 
L 304.366662 111.953333 
L 353.161416 111.953333 
L 353.161416 133.513333 
L 401.95617 133.513333 
L 401.95617 111.953333 
L 450.750925 111.953333 
" clip-path="url(#p60e2fd53be)" style="fill: none; stroke: #000000; stroke-width: 1.6"/>
   </g>
   <g id="text_4">
    <!-- S -->
    <g style="fill: #1a1aff" transform="translate(39.112236 175.044583) scale(0.12 -0.12)">
     <defs>
      <path id="DejaVuSans-53" d="M 3425 4513 
L 3425 3897 
Q 3066 4069 2747 4153 
Q 2428 4238 2131 4238 
Q 1616 4238 1336 4038 
Q 1056 3838 1056 3469 
Q 1056 3159 1242 3001 
Q 1428 2844 1947 2747 
L 2328 2669 
Q 3034 2534 3370 2195 
Q 3706 1856 3706 1288 
Q 3706 609 3251 259 
Q 2797 -91 1919 -91 
Q 1588 -91 1214 -16 
Q 841 59 441 206 
L 441 856 
Q 825 641 1194 531 
Q 1563 422 1919 422 
Q 2459 422 2753 634 
Q 3047 847 3047 1241 
Q 3047 1584 2836 1778 
Q 2625 1972 2144 2069 
L 1759 2144 
Q 1053 2284 737 2584 
Q 422 2884 422 3419 
Q 422 4038 858 4394 
Q 1294 4750 2059 4750 
Q 2388 4750 2728 4690 
Q 3069 4631 3425 4513 
z
" transform="scale(0.015625)"/>
     </defs>
     <use xlink:href="#DejaVuSans-53"/>
    </g>
   </g>
   <g id="line2d_13">
    <path d="M 60.392892 182.513333 
L 109.187646 182.513333 
L 109.187646 160.953333 
L 157.9824 160.953333 
L 157.9824 160.953333 
L 206.777154 160.953333 
L 206.777154 182.513333 
L 255.571908 182.513333 
L 255.571908 160.953333 
L 304.366662 160.953333 
L 304.366662 182.513333 
L 353.161416 182.513333 
L 353.161416 182.513333 
L 401.95617 182.513333 
L 401.95617 160.953333 
L 450.750925 160.953333 
" clip-path="url(#p60e2fd53be)" style="fill: none; stroke: #000000; stroke-width: 1.6"/>
   </g>
   <g id="text_5">
    <!-- Co -->
    <g style="fill: #1a1aff" transform="translate(31.008486 224.044583) scale(0.12 -0.12)">
     <defs>
      <path id="DejaVuSans-6f" d="M 1959 3097 
Q 1497 3097 1228 2736 
Q 959 2375 959 1747 
Q 959 1119 1226 758 
Q 1494 397 1959 397 
Q 2419 397 2687 759 
Q 2956 1122 2956 1747 
Q 2956 2369 2687 2733 
Q 2419 3097 1959 3097 
z
M 1959 3584 
Q 2709 3584 3137 3096 
Q 3566 2609 3566 1747 
Q 3566 888 3137 398 
Q 2709 -91 1959 -91 
Q 1206 -91 779 398 
Q 353 888 353 1747 
Q 353 2609 779 3096 
Q 1206 3584 1959 3584 
z
" transform="scale(0.015625)"/>
     </defs>
     <use xlink:href="#DejaVuSans-43"/>
     <use xlink:href="#DejaVuSans-6f" transform="translate(69.824219 0)"/>
    </g>
   </g>
   <g id="line2d_14">
    <path d="M 60.392892 231.513333 
L 109.187646 231.513333 
L 109.187646 231.513333 
L 157.9824 231.513333 
L 157.9824 231.513333 
L 206.777154 231.513333 
L 206.777154 209.953333 
L 255.571908 209.953333 
L 255.571908 231.513333 
L 304.366662 231.513333 
L 304.366662 209.953333 
L 353.161416 209.953333 
L 353.161416 209.953333 
L 401.95617 209.953333 
L 401.95617 209.953333 
L 450.750925 209.953333 
" clip-path="url(#p60e2fd53be)" style="fill: none; stroke: #000000; stroke-width: 1.6"/>
   </g>
  </g>
 </g>
 <defs>
  <clipPath id="p60e2fd53be">
   <rect x="9.1584" y="2.52" width="446.472" height="246.96"/>
  </clipPath>
 </defs>
</svg>
